<svg xmlns="http://www.w3.org/2000/svg" version="1.1" xmlns:xlink="http://www.w3.org/1999/xlink" xmlns:svgjs="http://svgjs.com/svgjs" width="1200" height="560" preserveAspectRatio="none" viewBox="0 0 1200 560"><g mask="url(&quot;#SvgjsMask1039&quot;)" fill="none"><path d="M582.01 594.05C660.24 577.09 606.4 392.2 812.89 372.23 1019.38 352.26 1145.27 143.68 1274.65 137.03" stroke="#e5efdc" stroke-width="2"></path><path d="M583.26 661.25C693.58 591.59 634.13 206.07 831.66 202.25 1029.19 198.43 1194.99 394.75 1328.46 398.25" stroke="#e5efdc" stroke-width="2"></path><path d="M584.89 624.32C682.44 551.01 628.99 185.91 794.09 183.31 959.2 180.71 1092.76 410.63 1212.5 418.51" stroke="#e5efdc" stroke-width="2"></path><path d="M555.49 617.43C649.45 592.08 579.53 358.48 820.14 331.97 1060.75 305.46 1201.22 70.73 1349.44 63.17" stroke="#e5efdc" stroke-width="2"></path><path d="M273.05 633.48C378.4 617.46 431.61 367.71 604.6 365.62 777.58 363.53 770.37 435.62 936.14 435.62 1101.92 435.62 1182.98 366 1267.69 365.62" stroke="#e5efdc" stroke-width="2"></path></g><defs><mask id="SvgjsMask1039"><rect width="1200" height="560" fill="#ffffff"></rect></mask></defs></svg>