<?xml version="1.0" encoding="iso-8859-1"?>
<!-- Generator: Adobe Illustrator 19.0.0, SVG Export Plug-In . SVG Version: 6.00 Build 0)  -->
<svg xmlns="http://www.w3.org/2000/svg" xmlns:xlink="http://www.w3.org/1999/xlink" version="1.1" id="Layer_1" x="0px" y="0px" viewBox="0 0 512 512" style="enable-background:new 0 0 512 512;" xml:space="preserve" width="512" height="512">
<g id="XMLID_116_">
	<g id="XMLID_857_">
		<path id="XMLID_1645_" style="fill:#009FFF;" d="M68.021,313.619C68.021,417.659,152.182,502,256,502    s187.979-84.341,187.979-188.381c0-45.101-15.823-86.493-42.199-118.924h0.013L259.894,11.589    c-1.637-2.113-4.826-2.12-6.473-0.015L110.903,193.713l0.109,0C84.157,226.288,68.021,268.065,68.021,313.619z"/>
		<g id="XMLID_332_">
			<circle id="XMLID_1103_" style="fill:#FFFFFF;" cx="316.558" cy="355.523" r="28.477"/>
			<circle id="XMLID_1102_" style="fill:#FFFFFF;" cx="195.442" cy="234.471" r="28.477"/>
		</g>
	</g>
	<g id="XMLID_2589_">
		<g id="XMLID_2604_">
			<path id="XMLID_2605_" d="M256,512c-109.166,0-197.979-88.993-197.979-198.381c0-45.538,15.753-89.935,44.383-125.177     c0.189-0.306,0.397-0.604,0.622-0.892L245.545,5.412C248.237,1.971,252.284,0,256.651,0c0.011,0,0.021,0,0.032,0     c4.38,0.01,8.432,2.001,11.114,5.463l60.405,77.947c3.383,4.366,2.587,10.647-1.779,14.03     c-4.366,3.382-10.646,2.586-14.029-1.779l-55.766-71.96l-137,175.087c-0.264,0.448-0.564,0.878-0.901,1.287     c-26.25,31.841-40.706,72.166-40.706,113.544C78.021,411.979,157.862,492,256,492s177.979-80.021,177.979-178.381     c0-40.938-14.19-80.933-39.957-112.615c-0.146-0.178-0.283-0.36-0.414-0.546l-32.19-41.539     c-3.383-4.365-2.587-10.647,1.779-14.03c4.362-3.383,10.646-2.587,14.029,1.779l32.471,41.9c0.045,0.059,0.09,0.117,0.134,0.176     c28.473,35.18,44.148,79.508,44.148,124.874C453.979,423.007,365.166,512,256,512z"/>
		</g>
		<g id="XMLID_2592_">
			<g id="XMLID_2602_">
				<path id="XMLID_2603_" d="M204.99,394.002c-1.691,0-3.405-0.43-4.977-1.334c-4.787-2.754-6.436-8.867-3.682-13.654l98-170.367      c2.753-4.788,8.866-6.436,13.654-3.682c4.787,2.754,6.436,8.867,3.682,13.655l-98,170.367      C211.818,392.202,208.452,394.002,204.99,394.002z"/>
			</g>
			<g id="XMLID_2597_">
				<path id="XMLID_2598_" d="M316.558,394c-21.216,0-38.477-17.261-38.477-38.478s17.261-38.478,38.477-38.478      c21.217,0,38.478,17.261,38.478,38.478S337.774,394,316.558,394z M316.558,337.045c-10.188,0-18.477,8.289-18.477,18.478      S306.369,374,316.558,374s18.478-8.289,18.478-18.478S326.746,337.045,316.558,337.045z"/>
			</g>
			<g id="XMLID_2593_">
				<path id="XMLID_2594_" d="M195.442,272.948c-21.217,0-38.478-17.261-38.478-38.477c0-21.217,17.261-38.478,38.478-38.478      c21.216,0,38.477,17.261,38.477,38.478C233.919,255.688,216.658,272.948,195.442,272.948z M195.442,215.994      c-10.188,0-18.478,8.289-18.478,18.478s8.289,18.477,18.478,18.477s18.477-8.289,18.477-18.477S205.631,215.994,195.442,215.994      z"/>
			</g>
		</g>
		<g id="XMLID_2590_">
			<path id="XMLID_2591_" d="M345.04,131c-2.641,0-5.221-1.07-7.08-2.93c-1.86-1.86-2.92-4.44-2.92-7.07c0-2.63,1.06-5.21,2.92-7.07     c1.859-1.86,4.439-2.93,7.08-2.93c2.63,0,5.2,1.07,7.069,2.93c1.86,1.86,2.931,4.44,2.931,7.07c0,2.63-1.07,5.21-2.931,7.07     C350.24,129.93,347.67,131,345.04,131z"/>
		</g>
	</g>
</g>















</svg>
