<?xml version="1.0" standalone="no"?>
<!DOCTYPE svg PUBLIC "-//W3C//DTD SVG 20010904//EN"
 "http://www.w3.org/TR/2001/REC-SVG-20010904/DTD/svg10.dtd">
<svg version="1.0" xmlns="http://www.w3.org/2000/svg"
 width="512.000000pt" height="512.000000pt" viewBox="0 0 512.000000 512.000000"
 preserveAspectRatio="xMidYMid meet">

<g transform="translate(0.000000,512.000000) scale(0.100000,-0.100000)"
fill="#fff" stroke="none">
<path d="M1409 4790 c-512 -46 -1022 -487 -1208 -1045 -60 -182 -75 -280 -75
-500 0 -170 3 -216 22 -305 152 -704 764 -1465 1808 -2248 141 -105 427 -300
532 -362 l73 -43 87 53 c130 79 379 249 537 368 848 635 1439 1300 1679 1888
102 250 142 460 133 704 -12 309 -98 574 -272 835 -217 327 -549 563 -895 636
-122 26 -352 31 -459 10 -285 -55 -528 -182 -739 -385 l-73 -70 -67 66 c-231
226 -530 369 -831 398 -115 11 -125 11 -252 0z m366 -424 c204 -56 371 -165
505 -333 36 -44 112 -160 170 -257 58 -96 107 -175 110 -175 3 0 52 79 110
175 58 97 134 212 170 257 134 167 302 278 505 333 56 15 104 19 235 19 170
-1 220 -9 348 -56 224 -82 419 -264 540 -504 128 -257 162 -606 86 -894 -138
-524 -604 -1105 -1385 -1727 -139 -111 -389 -294 -401 -294 -4 0 -8 234 -8
520 l0 520 108 0 c154 0 313 18 412 47 437 126 798 516 886 957 8 39 17 149
21 244 l6 172 -360 0 c-389 0 -458 -6 -606 -55 -185 -60 -332 -151 -492 -306
l-110 -106 -65 100 c-181 278 -488 490 -802 552 -65 13 -166 18 -457 22 l-374
6 7 -169 c8 -200 20 -282 52 -383 80 -244 240 -466 453 -627 103 -78 293 -174
416 -209 74 -22 125 -28 290 -37 110 -6 202 -12 205 -15 9 -9 12 -1233 3
-1233 -14 0 -263 183 -426 313 -574 458 -990 915 -1211 1330 -150 284 -210
541 -186 806 27 305 127 542 310 734 139 147 296 234 511 282 85 19 340 14
424 -9z m20 -1230 c153 -46 275 -124 373 -239 57 -67 146 -237 158 -301 l7
-39 -169 6 c-175 5 -232 15 -346 61 -99 40 -169 88 -253 171 -63 62 -91 100
-127 170 -37 72 -78 179 -78 203 0 3 78 2 173 -1 148 -4 184 -8 262 -31z
m1959 -193 c-33 -139 -94 -243 -209 -358 -72 -72 -107 -99 -175 -133 -142 -71
-200 -84 -402 -89 -207 -6 -194 -15 -147 107 84 220 260 385 484 455 100 32
177 42 333 44 l122 1 -6 -27z"/>
</g>
</svg>
