<?xml version="1.0"?>
<svg xmlns="http://www.w3.org/2000/svg" id="Lineal" viewBox="0 0 64 64" width="512" height="512"><g id="_8._Sprout_in_pot" data-name="8. Sprout in pot"><path d="M39.71,54.03a1.5,1.5,0,1,1-1.13,2.72A1.5,1.5,0,0,1,39.71,54.03ZM33.5,28.41V31.5H48A4.505,4.505,0,0,1,52.5,36v4a4.491,4.491,0,0,1-3.9,4.439L46.193,59.7a4.475,4.475,0,0,1-4.444,3.8h-19.5a4.479,4.479,0,0,1-4.445-3.8L15.4,44.439A4.491,4.491,0,0,1,11.5,40V36A4.505,4.505,0,0,1,16,31.5H30.5v-12H28A13.515,13.515,0,0,1,14.5,6V2A1.5,1.5,0,0,1,16,.5h4A13.506,13.506,0,0,1,33.475,13.509c5.71-8.48,14.317-7.752,18.177-7.752a1.5,1.5,0,0,1,1.5,1.5V10.91a17.52,17.52,0,0,1-17.5,17.5ZM45.557,44.5H18.443l1.5,9.5H34.417a1.5,1.5,0,0,1,0,3h-14c.292,1.849.237,3.5,1.835,3.5h19.5a1.491,1.491,0,0,0,1.481-1.265ZM48,34.5H16A1.5,1.5,0,0,0,14.5,36v4A1.5,1.5,0,0,0,16,41.5H48A1.5,1.5,0,0,0,49.5,40V36A1.5,1.5,0,0,0,48,34.5ZM33.5,23.288,37.889,18.9a1.5,1.5,0,0,1,2.121,2.122L35.621,25.41a14.515,14.515,0,0,0,14.531-14.5V8.757H48A14.516,14.516,0,0,0,33.5,23.288ZM28.377,16.5l-3.34-3.341a1.5,1.5,0,0,1,2.121-2.121L30.5,14.38A10.515,10.515,0,0,0,20,3.5H17.5V6A10.517,10.517,0,0,0,28.377,16.5Z" fill="#e6e6e6"/></g></svg>
