<svg xmlns="http://www.w3.org/2000/svg" xmlns:xlink="http://www.w3.org/1999/xlink" version="1.1" id="Capa_1" x="0px" y="0px" style="enable-background:new 0 0 264 264;" xml:space="preserve" viewBox="0 13.65 264 236.7">
<g>
	<path style="fill:#224422;" d="M262.577,119.935c-4.72-30.216-18.661-55.154-41.808-74.754   c-24.334-21.013-53.983-31.529-88.944-31.529c-34.971,0-64.618,10.396-88.94,31.166C19.727,64.678,5.91,89.719,1.427,119.935   C0.477,124.901,0,129.625,0,134.122c0,19.844,6.494,37.197,19.498,52.087C32.484,201.09,50.795,211.97,74.429,218.8v5.338   c0,6.606,2.239,12.162,6.727,16.644c4.483,4.493,10.037,6.978,16.653,7.446c6.851,0.479,11.923-0.707,15.233-3.541   c5.193,3.771,10.984,5.66,17.367,5.66c5.905,0,11.344-1.764,16.297-5.307c3.312,2.59,8.149,3.667,14.534,3.188   c6.609-0.707,12.167-3.248,16.652-7.614c4.486-4.392,6.728-9.869,6.728-16.476v-3.895c25.51-6.623,45.239-17.721,59.185-33.33   C257.268,172.04,264,154.446,264,134.122C264,129.625,263.523,124.901,262.577,119.935z M101.352,154.138   c-7.09,8.16-15.601,12.223-25.514,12.223c-9.92,0-18.426-4.062-25.513-12.223c-7.086-8.149-10.633-18.02-10.633-29.596   c0-11.567,3.547-21.435,10.633-29.568c7.087-8.147,15.593-12.222,25.513-12.222c9.913,0,18.424,4.075,25.514,12.222   c7.09,8.133,10.641,18.001,10.641,29.568C111.992,136.118,108.442,145.987,101.352,154.138z M132.175,201.09   c-5.907,0-10.277-1.521-13.106-4.548c-1.657-1.889-2.477-4.214-2.477-7.025c0-4.428,1.709-8.865,5.135-13.315   c3.423-4.427,6.784-6.647,10.098-6.647c3.308,0,6.428,2.448,9.386,7.375c2.952,4.901,4.441,9.562,4.441,14.012   C145.652,197.718,141.154,201.09,132.175,201.09z M210.314,154.138c-6.971,8.16-15.531,12.223-25.695,12.223   c-9.916,0-18.359-4.062-25.328-12.223c-6.977-8.149-10.463-18.02-10.463-29.596c0-11.567,3.486-21.435,10.463-29.568   c6.969-8.147,15.412-12.222,25.328-12.222c10.164,0,18.727,4.075,25.695,12.222c6.963,8.133,10.455,18.001,10.455,29.568   C220.77,136.118,217.277,145.987,210.314,154.138z"/>
</g>
<g>
</g>
<g>
</g>
<g>
</g>
<g>
</g>
<g>
</g>
<g>
</g>
<g>
</g>
<g>
</g>
<g>
</g>
<g>
</g>
<g>
</g>
<g>
</g>
<g>
</g>
<g>
</g>
<g>
</g>
</svg>