<?xml version="1.0" encoding="iso-8859-1"?>
<!-- Generator: Adobe Illustrator 19.0.0, SVG Export Plug-In . SVG Version: 6.00 Build 0)  -->
<svg xmlns="http://www.w3.org/2000/svg" xmlns:xlink="http://www.w3.org/1999/xlink" version="1.1" id="Layer_1" x="0px" y="0px" viewBox="0 0 512 512" style="enable-background:new 0 0 512 512;" xml:space="preserve" width="512" height="512">
<g id="XMLID_176_">
	<g id="XMLID_154_">
		<g id="XMLID_174_">
			<path id="XMLID_175_" d="M244.752,512c-73.339,0-133.004-59.665-133.004-133.003c0-46.117,23.992-88.918,63.004-113.103V208     c0-5.522,4.478-10,10-10s10,4.478,10,10v63.604c0,3.62-1.956,6.957-5.114,8.726c-35.708,19.993-57.89,57.8-57.89,98.667     c0,62.31,50.693,113.003,113.004,113.003c62.31,0,113.003-50.693,113.003-113.003c0-40.867-22.182-78.675-57.889-98.667     c-3.158-1.769-5.114-5.105-5.114-8.726V70c0-27.57-22.43-50-50-50s-50,22.43-50,50v58c0,5.522-4.478,10-10,10s-10-4.478-10-10V70     c0-38.598,31.402-70,70-70s70,31.402,70,70v195.895c39.012,24.185,63.003,66.985,63.003,113.103     C377.755,452.335,318.09,512,244.752,512z"/>
		</g>
		<g id="XMLID_170_">
			<path id="XMLID_171_" d="M244.752,471.997c-51.28,0-93-41.72-93-93c0-40.198,25.536-75.345,63-88.043V80.083     c0-5.522,4.478-10,10-10h40c5.522,0,10,4.478,10,10v210.871c37.464,12.698,63,47.845,63,88.043     C337.752,430.277,296.032,471.997,244.752,471.997z M234.752,90.083v208.355c0,4.598-3.135,8.603-7.598,9.707     c-32.62,8.072-55.402,37.208-55.402,70.852c0,40.252,32.748,73,73,73s73-32.748,73-73c0-33.644-22.782-62.779-55.402-70.852     c-4.463-1.104-7.598-5.109-7.598-9.707V90.083H234.752z"/>
		</g>
		<g id="XMLID_161_">
			<g id="XMLID_168_">
				<path id="XMLID_169_" d="M390.252,258.083h-37c-5.522,0-10-4.478-10-10s4.478-10,10-10h37c5.522,0,10,4.478,10,10      S395.774,258.083,390.252,258.083z"/>
			</g>
			<g id="XMLID_166_">
				<path id="XMLID_167_" d="M390.252,202.083h-37c-5.522,0-10-4.478-10-10s4.478-10,10-10h37c5.522,0,10,4.478,10,10      S395.774,202.083,390.252,202.083z"/>
			</g>
			<g id="XMLID_164_">
				<path id="XMLID_165_" d="M390.252,146.083h-37c-5.522,0-10-4.478-10-10s4.478-10,10-10h37c5.522,0,10,4.478,10,10      S395.774,146.083,390.252,146.083z"/>
			</g>
			<g id="XMLID_162_">
				<path id="XMLID_163_" d="M390.252,90.083h-37c-5.522,0-10-4.478-10-10s4.478-10,10-10h37c5.522,0,10,4.478,10,10      S395.774,90.083,390.252,90.083z"/>
			</g>
		</g>
		<g id="XMLID_159_">
			<path id="XMLID_160_" d="M184.75,178c-2.63,0-5.21-1.07-7.07-2.931c-1.86-1.859-2.93-4.439-2.93-7.069s1.069-5.21,2.93-7.07     s4.44-2.93,7.07-2.93c2.64,0,5.21,1.069,7.069,2.93c1.86,1.86,2.931,4.44,2.931,7.07s-1.07,5.21-2.931,7.069     C189.96,176.93,187.39,178,184.75,178z"/>
		</g>
		<g id="XMLID_157_">
			<path id="XMLID_158_" d="M244.752,431.992c-9.996,0-19.736-2.801-28.167-8.099c-4.676-2.938-6.084-9.111-3.146-13.788     c2.938-4.675,9.111-6.084,13.788-3.146c5.238,3.292,11.298,5.032,17.524,5.032c18.193,0,32.995-14.802,32.995-32.995     c0-5.522,4.478-10,10-10s10,4.478,10,10C297.747,408.219,273.974,431.992,244.752,431.992z"/>
		</g>
		<g id="XMLID_155_">
			<path id="XMLID_156_" d="M201.757,389.029c-5.505,0-9.977-4.481-10-9.988c-0.024-5.515,4.42-10.04,9.935-10.076     c0.021,0,0.044,0,0.066,0c5.483,0,9.951,4.453,9.999,9.945c0,0.029,0,0.058,0,0.087c0,5.515-4.464,10.021-9.979,10.032     C201.771,389.029,201.764,389.029,201.757,389.029z"/>
		</g>
	</g>
</g>















</svg>
