<?xml version="1.0" encoding="UTF-8"?>
<!-- Generator: Adobe Illustrator 25.2.1, SVG Export Plug-In . SVG Version: 6.00 Build 0)  -->
<svg xmlns="http://www.w3.org/2000/svg" xmlns:xlink="http://www.w3.org/1999/xlink" version="1.1" id="Capa_1" x="0px" y="0px" viewBox="0 0 512 512" style="enable-background:new 0 0 512 512;" xml:space="preserve" width="512" height="512">
<g>
	<path style="fill:#FFFFFF;" d="M471.802,385.913l-24.433-16.81c0.699-26.165-4.612-51.813-15.403-73.595   c-1.586-3.203-3.347-6.451-5.547-10.229l-1.211-2.072c-1.531-2.553-3.152-5.102-4.824-7.591   c7.488-5.962,14.441-12.484,20.811-19.526c33.825-37.426,51.63-87.777,48.846-138.146c-1.965-35.565-15.195-64.688-37.25-82.006   c-15.799-12.399-36.016-18.955-58.463-18.955c-3.858,0-7.775,0.205-11.647,0.606c-18.197,1.887-35.851,7.862-52.193,17.554   C312.593,13.346,286.263,0,258.257,0c-10.808,0-21.544,1.972-31.915,5.861c-25.215,9.46-45.377,31.219-55.318,59.703   c-3.773,10.809-6.093,22.516-6.98,35.325c-1.194-1.232-2.303-2.322-3.309-3.27c-0.406-0.387-0.812-0.769-1.221-1.148   c-5.748-13.184-18.927-22.451-34.132-22.451c-20.52,0-37.213,16.696-37.213,37.216c0,0.478,0.01,0.955,0.027,1.429   c-4.568-0.645-9.368-0.416-13.943,0.704c-9.658,2.356-17.822,8.333-22.983,16.829c-5.162,8.496-6.707,18.494-4.35,28.152   c4.084,16.717,18.944,28.392,36.145,28.392c2.968,0,5.943-0.358,8.826-1.063c0.689-0.167,1.368-0.355,2.037-0.559   c2.265,2.148,4.565,4.515,6.806,7.096c0.928,1.076,1.815,2.156,2.665,3.232c-0.792,0.397-1.58,0.8-2.361,1.208   c-22.888,11.93-40.341,27.077-53.37,46.327c-2.071,3.07-4.053,6.284-5.841,9.467l-0.283,0.518   c-1.845,3.314-3.473,6.509-4.967,9.758c-0.045,0.097-0.092,0.195-0.137,0.292c-1.419,3.103-2.76,6.351-4.073,9.853l-0.74,2.021   c-1.354,3.751-2.422,6.997-3.357,10.21c-11.313,38.847-7.956,80.176,9.211,113.391c19.152,37.056,62.083,85.261,157.827,104.475   c3.906,0.788,7.809,1.505,11.681,2.146c4.179,0.696,8.385,1.344,12.756,1.989l0.983,0.14c4.186,0.611,8.389,1.174,12.606,1.689   c0.072,0.01,0.14,0.017,0.212,0.027c16.757,2.043,31.881,3.036,46.23,3.04c0.003,0,0.003,0,0.003,0   c17.668,0,33.768-1.494,49.211-4.561c0.126-0.024,0.256-0.051,0.385-0.075c6.161-1.238,12.244-2.739,18.033-4.459   c1.822-0.536,3.63-1.105,5.462-1.706l0.798-0.256c0.87-0.28,1.736-0.563,2.528-0.839c2.913-1.013,5.806-2.122,8.73-3.303   c0.839-0.338,1.675-0.692,2.439-1.016c3.562-1.501,6.52-2.838,9.317-4.206c16.87-8.263,31.577-20.807,43.105-36.66l36.496-4.725   c14.673-1.9,26.395-12.422,29.868-26.801C489.624,409.009,483.991,394.299,471.802,385.913z"/>
	<g>
		<g>
			<path style="fill:#43AA99;" d="M257.95,284.281c-37.106-41.319-60.849-94.454-66.875-149.661     c-2.21-20.252-2.025-41.191,4.686-60.427c6.712-19.235,20.711-36.647,39.786-43.802c37.509-14.068,75.245,8.918,87.63,44.44     c11.587,33.233,10.14,70.821-3.966,103.065"/>
		</g>
		<g>
			<path style="fill:#5ED3BD;" d="M421.754,238.52c-34.636,38.317-85.286,54.629-136.148,53.223     c-2.889-0.08-6.099-0.376-8.035-2.522c-1.834-2.033-1.907-5.053-1.879-7.791c0.312-30.928-3.049-61.919-0.997-92.784     c2.194-33.005,10.798-66.219,29.483-93.514c18.685-27.295,48.3-48.071,81.201-51.483c17.957-1.862,37.03,1.752,51.231,12.899     c18.523,14.54,25.97,39.329,27.269,62.841C466.265,162.56,450.747,206.446,421.754,238.52z"/>
		</g>
		<path style="fill:#FEC400;" d="M456.951,407.499l-36.798-25.318c3.182-26.031-0.787-53.083-11.667-75.049    c-26.269-53.038-83.912-87.939-140.498-99.605c-50.693-10.451-107.729-12.189-154.838,12.364    c-30.818,16.062-49.909,38.838-59.725,72.54c-8.975,30.816-7.545,65.252,7.331,94.035c28.962,56.036,91.144,82.951,150.53,92.805    c51.25,8.504,105.824,12.31,153.871-11.223c17.037-8.345,30.085-21.647,39.305-37.567l48.453-6.271    C461.287,423.126,463.906,412.284,456.951,407.499z"/>
		<path style="fill:#D18E22;" d="M136.399,111.236c0,6.084-4.932,11.016-11.015,11.016c-6.084,0-11.016-4.932-11.016-11.016    s4.932-11.015,11.016-11.015C131.467,100.221,136.399,105.152,136.399,111.236z"/>
		<g>
			<path style="fill:#D18E22;" d="M167.176,221.691c0.767,0.239,3.943-6.615,5.62-18.624c1.715-11.91,1.311-29.159-4.844-46.799     c-6.139-17.645-16.54-31.411-25.285-39.676c-8.776-8.366-15.524-11.763-15.976-11.099c-0.621,0.826,5.017,5.521,12.54,14.336     c7.528,8.748,16.654,22.085,22.416,38.635c5.77,16.548,6.907,32.669,6.445,44.201     C167.676,214.248,166.176,221.43,167.176,221.691z"/>
		</g>
		<path style="fill:#D18E22;" d="M93.776,146.913c1.442,5.91-2.179,11.871-8.09,13.314c-5.91,1.442-11.871-2.18-13.313-8.09    c-1.443-5.91,2.179-11.871,8.089-13.313C86.373,137.381,92.334,141.002,93.776,146.913z"/>
		<g>
			<path style="fill:#D18E22;" d="M146.317,216.898c0.802-0.19,0.422-5.967-2.522-14.797c-1.452-4.413-3.678-9.509-6.65-14.914     c-3.044-5.358-6.863-11.006-11.501-16.426c-4.69-5.375-9.724-9.973-14.586-13.762c-4.918-3.724-9.639-6.663-13.796-8.737     c-8.313-4.188-13.976-5.393-14.279-4.627c-0.394,0.935,4.533,3.665,11.867,8.685c7.342,5.004,16.928,12.648,25.743,22.806     c8.773,10.195,14.947,20.789,18.839,28.777C143.341,211.886,145.335,217.154,146.317,216.898z"/>
		</g>
		<g>
			<path style="fill:#114B44;" d="M456.951,407.499l-36.798-25.318c3.182-26.031-0.787-53.083-11.667-75.049     c-7.831-15.811-18.484-29.981-31.033-42.433c1.055,52.098-5.169,104.536-25.152,152.766     c-9.536,23.017-21.299,44.55-34.255,65.337c16.145-2.68,31.957-7.332,47.111-14.754c17.037-8.345,30.085-21.647,39.305-37.567     l48.453-6.271C461.287,423.126,463.906,412.284,456.951,407.499z"/>
		</g>
		<path style="fill:#114B44;" d="M244.447,203.455c3.024,93.472-24.296,187.648-75.941,265.562    c14.091,4.504,28.511,7.887,42.779,10.254c8.345,1.385,16.782,2.622,25.261,3.66c46.873-79.507,71.82-170.288,72.544-262.777    c-13.452-5.533-27.306-9.782-41.103-12.627C260.273,205.936,252.399,204.58,244.447,203.455z"/>
		<g>
			<path style="fill:#D18E22;" d="M109.085,298.595c0,9.533-3.989,17.261-8.91,17.261c-4.921,0-8.91-7.728-8.91-17.261     s3.989-17.261,8.91-17.261C105.096,281.334,109.085,289.062,109.085,298.595z"/>
			<path style="fill:#D18E22;" d="M188.682,298.595c0,9.533-3.989,17.261-8.91,17.261c-4.921,0-8.91-7.728-8.91-17.261     s3.989-17.261,8.91-17.261C184.693,281.334,188.682,289.062,188.682,298.595z"/>
			<g>
				<path style="fill:#D18E22;" d="M158.602,297.798c-1.01,0.133-0.789,4.105-3.24,9.255c-1.232,2.531-3.152,5.323-5.949,7.482      c-2.741,2.168-6.497,3.579-10.579,3.786c-4.085,0.163-7.953-0.904-10.878-2.815c-2.981-1.898-5.145-4.504-6.6-6.914      c-2.906-4.907-3.045-8.883-4.063-8.924c-0.762-0.179-2.559,4.148-0.223,10.904c1.194,3.273,3.488,7.023,7.339,9.96      c3.832,2.981,9.193,4.702,14.727,4.459c5.533-0.258,10.717-2.456,14.264-5.771c3.57-3.273,5.516-7.215,6.409-10.582      C161.525,301.698,159.345,297.551,158.602,297.798z"/>
			</g>
		</g>
	</g>
</g>















</svg>
