<?xml version="1.0" encoding="UTF-8"?>
<!-- Generator: Adobe Illustrator 25.2.1, SVG Export Plug-In . SVG Version: 6.00 Build 0)  -->
<svg xmlns="http://www.w3.org/2000/svg" xmlns:xlink="http://www.w3.org/1999/xlink" version="1.1" id="Capa_1" x="0px" y="0px" viewBox="0 0 512 512" style="enable-background:new 0 0 512 512;" xml:space="preserve" width="512" height="512">
<g>
	<path style="fill:#FFFFFF;" d="M445.805,156.009c-3.027-12.277-13.09-21.716-25.636-24.049c-3.555-0.664-6.877-0.67-9.719-0.666   c-1.741,0.001-3.388,0.003-4.502-0.176l-0.26-0.048c-1.251-0.258-3.158-1.405-5.178-2.619c-1.398-0.841-2.974-1.787-4.721-2.687   c-0.223-0.121-0.452-0.236-0.683-0.345c-0.894-0.439-1.829-0.856-2.782-1.24c-0.491-0.213-0.987-0.414-1.471-0.582   c-10.551-3.691-19.288-4.485-28.151-2.707c-3.948,0.791-7.42,2.067-10.482,3.193c-1.491,0.548-2.898,1.065-4.202,1.467   c-0.53,0.164-1.065,0.305-1.579,0.428c-0.856,0.201-1.48,0.309-1.967,0.342c-1.222,0.084-2.658-0.017-4.215-0.199   c0.015-1.282,0.087-2.431,0.219-3.515c0.03-0.247,0.076-0.488,0.12-0.732c0.074-0.433,0.161-0.858,0.274-1.292   c0.705-2.777,2.106-5.637,3.732-8.948c1.75-3.565,3.734-7.606,5.162-12.309c0.815-2.689,1.56-5.758,2.279-9.373   c0.787-3.96,1.412-7.922,2.014-11.754c0.324-2.056,0.64-4.069,0.972-5.995c2.555-14.885-0.682-27.678-9.119-36.025   c-5.53-5.467-12.24-8.965-19.411-10.116c-13.859-2.225-28.705,4.495-38.491,17.001c-0.427-0.406-0.864-0.815-1.313-1.228   c-5.569-5.125-5.966-6.104-6.609-9.059c-0.064-0.289-0.121-0.588-0.145-0.706c-0.016-0.094-0.032-0.19-0.05-0.283   c-0.058-0.317-0.112-0.644-0.171-1.038c-0.055-0.35-0.108-0.698-0.152-1.05c-1.806-14.111-11.567-24.542-26.783-28.621   c-1.066-0.286-2.146-0.518-3.214-0.689c-9.354-1.502-23.066,0.638-35.277,19.36c-4.338,6.649-5.911,13.291-6.964,19.479   c-0.144,0.848-0.281,1.699-0.424,2.592l-0.056,0.352c-0.739,4.672-1.323,8.362-3.028,11.304c-1.295,2.233-2.698,4.458-4.184,6.814   l-1.396,2.222l11.68,7.263l-11.828-7.028c-1.745,2.793-3.501,5.681-5.107,8.721c-3.729-1.38-7.384-2.586-10.879-3.586   c-1.414-0.404-2.77-0.768-4.053-1.083c-4.129-1.013-9.605-2.295-15.361-3.219c-8.624-1.385-34.87-5.599-53.719,13.34   c-8.274,8.316-12.098,18.796-10.492,28.752c1.264,7.84,5.755,14.994,13.346,21.262c2.088,1.724,4.133,3.184,6.11,4.597   c2.162,1.544,4.205,3.004,5.767,4.458c3.023,2.816,5.568,6.306,8,10.969c0.319,0.613,0.632,1.232,0.929,1.842   c1.821,3.752,3.407,7.769,5.085,12.021c5.772,14.623,12.314,31.198,30.828,41.961c2.735,1.59,5.618,2.849,8.613,3.766   c-3.971,2.423-6.564,6.78-6.592,11.665c-0.093,16.422-0.523,98.782,0.229,107.374c0.045,0.522,2.734,52.62-26.687,58.911   c-4.915,1.05-9.495,1.923-13.926,2.766c-25.583,4.872-47.677,9.08-56.81,38.928l-0.28,0.918c-0.171,0.592-0.34,1.197-0.51,1.834   c-0.123,0.463-0.24,0.94-0.361,1.424l-0.074,0.304c-0.108,0.432-0.215,0.864-0.314,1.301c-0.224,0.983-0.435,1.998-0.636,3.041   l-0.232,1.265c-0.143,0.795-0.281,1.607-0.419,2.474l-0.174,1.129c-0.096,0.645-0.189,1.297-0.28,1.961   c-3.163,6.032-4.844,12.838-4.791,19.611c0.038,4.989,2.776,9.568,7.155,11.962c11.85,6.48,24.511,11.385,37.627,14.58   c0.802,0.199,1.614,0.319,2.423,0.368c0.747,0.359,1.535,0.656,2.358,0.88c18.665,5.104,35.965,8.906,52.892,11.624   c4.805,0.772,9.627,1.461,14.335,2.046c8.732,1.087,17.44,1.576,24.914,1.952c0.64,0.031,1.383,0.14,2.167,0.241   c3.72,0.469,8.814,1.112,13.832-0.488c1.499-0.477,2.838-1.107,4.038-1.822c4.448,3.225,10.813,4.247,15.722,5.036   c11.496,1.846,33.734,4.259,38.381,4.163c9.174-0.19,14.403-4.236,17.171-7.595c3.226-3.911,4.186-8.268,4.65-10.366   c1.313-5.964,2.324-12.452,0.832-19.473c-0.527-2.481-1.383-4.892-2.53-7.144l-0.595-29.017   c-0.187-9.149,0.231-18.392,1.244-27.474c0.254-2.281,0.547-4.557,0.874-6.822c0.985-6.787,2.318-13.602,3.966-20.256   c2.44-9.856,5.344-21.539,8.439-33.891c6.995-27.923,12.854-50.856,17.413-68.159l1.197-4.522   c2.463-9.275,4.492-16.672,6.03-21.974c0.268-0.919,0.522-1.785,0.768-2.603c1.289-4.322,1.792-5.602,1.88-5.814   c1.106-2.685,1.324-5.632,0.662-8.418c6.37-0.141,12.656-1.575,18.27-4.22c2.565-1.208,4.749-2.618,6.503-3.751   c1.075-0.694,2.09-1.35,2.87-1.75c0.161-0.082,0.365-0.166,0.595-0.245l0.317-0.112c1.387-0.357,2.981-0.64,4.661-0.938   c2.261-0.402,4.821-0.857,7.508-1.6c1.692-0.468,3.258-1,4.802-1.632c9.463-3.887,16.71-10.507,20.404-18.637   c0.806-1.774,1.369-3.453,1.821-4.802c0.269-0.802,0.637-1.9,0.812-2.227c0.033-0.048,0.854-1.192,5.356-2.882   c0.858-0.321,1.726-0.629,2.593-0.936c4.538-1.611,10.187-3.614,15.293-7.636C444.516,179.562,448.676,167.649,445.805,156.009z"/>
	<g>
		<g>
			<path style="fill:#43AA99;" d="M326.497,126.635c-0.008,6.698,1.087,13.432,1.013,20.154c-0.106,9.595-2.781,19.412-8.942,26.768     c-6.161,7.356-16.129,11.835-25.552,10.019c-9.422-1.816-17.407-10.713-16.818-20.291c-7.58,5.958-22.587,3.751-29.823-1.527     c-12.012-8.762-14.42-26.458-9.597-40.522c4.905-14.305,15.014-26.524,25.775-36.873c3.784-3.64,7.309-7.693,11.944-10.154     c9.327-4.953,16.392-10.059,21.865-19.084c8.411-13.872,26.559-22.331,39.871-9.165c6.037,5.971,6.673,15.548,5.235,23.917     c-1.388,8.076-2.523,17.725-4.871,25.46c-2.715,8.944-8.593,15.917-9.778,25.626C326.59,122.848,326.5,124.74,326.497,126.635z"/>
		</g>
		<g>
			<path style="fill:#5ED3BD;" d="M327.505,146.582c-4.502,1.017-9.447,2.167-14.634,3.409     c-20.599,4.929-37.179,9.419-37.033,10.028c0.146,0.609,16.963-2.892,37.562-7.821c4.971-1.19,9.698-2.352,14.023-3.442     c0.031-0.656,0.081-1.312,0.088-1.967C327.511,146.72,327.505,146.651,327.505,146.582z"/>
			<path style="fill:#5ED3BD;" d="M288.679,126.459c0.128,0.614,13.82-1.739,30.58-5.254c2.698-0.566,5.296-1.126,7.781-1.672     c0.137-0.794,0.302-1.572,0.495-2.333c-2.773,0.55-5.704,1.147-8.742,1.784C302.033,122.499,288.55,125.846,288.679,126.459z"/>
			<path style="fill:#5ED3BD;" d="M304.618,91.939c-1.058,0.319-1.652,0.564-1.626,0.703c0.112,0.617,11.796-0.984,26.098-3.576     c3.348-0.607,6.533-1.213,9.461-1.795c0.146-0.733,0.289-1.466,0.425-2.208c-3.162,0.512-6.638,1.108-10.291,1.77     c-10.616,1.924-19.679,3.851-23.605,4.969c-0.313-2.486-3.246-12.211-7.196-23.714c-1.224-3.565-2.418-6.924-3.524-9.943     c-0.494,0.688-1.014,1.325-1.532,1.965c0.879,2.713,1.856,5.646,2.91,8.715C299.678,80.301,303.329,89.757,304.618,91.939z"/>
			<path style="fill:#5ED3BD;" d="M287.656,126.195c0.56-0.282-5.446-13.337-13.414-29.16c-3.01-5.977-5.867-11.49-8.291-16.026     c-0.471,0.466-0.942,0.931-1.412,1.399c2.155,4.536,4.782,9.904,7.675,15.648C280.183,113.878,287.096,126.477,287.656,126.195z"/>
			<path style="fill:#5ED3BD;" d="M269.954,148.648c4.385,6.332,7.227,10.16,7.487,9.985c0.26-0.175-2.111-4.32-6.152-10.877     c-4.042-6.557-9.754-15.527-16.181-25.357c-3.882-5.938-7.574-11.499-10.861-16.377c-0.402,0.629-0.789,1.266-1.173,1.904     c3.03,4.769,6.458,10.091,10.135,15.715C259.639,133.479,265.569,142.316,269.954,148.648z"/>
		</g>
		<g>
			<path style="fill:#114B44;" d="M260.568,252.982c0.732,0.046,1.708-11.486,4.557-29.896c0.375-2.34,0.76-4.745,1.156-7.216     c0.405-2.508,0.948-5.097,1.435-7.789c0.932-5.393,2.233-11.094,3.515-17.108c2.772-11.983,6.218-25.061,10.516-38.585     c4.375-13.499,9.182-26.14,13.901-37.498c2.457-5.637,4.716-11.031,7.096-15.959c1.17-2.473,2.235-4.894,3.365-7.17     c1.116-2.24,2.202-4.421,3.259-6.541c8.395-16.629,14.312-26.575,13.69-26.964c-0.265-0.167-2.019,2.146-4.971,6.485     c-1.493,2.159-3.257,4.842-5.16,8.046c-1.919,3.194-4.181,6.792-6.395,10.931c-1.15,2.094-2.332,4.247-3.547,6.46     c-1.222,2.253-2.376,4.657-3.63,7.117c-2.549,4.902-4.96,10.29-7.547,15.938c-4.979,11.381-9.96,24.12-14.383,37.768     c-4.345,13.673-7.707,26.932-10.281,39.086c-1.183,6.099-2.357,11.884-3.137,17.354c-0.412,2.73-0.872,5.357-1.189,7.9     c-0.3,2.506-0.591,4.945-0.874,7.318c-0.608,4.654-0.862,8.897-1.16,12.611c-0.317,3.713-0.443,6.921-0.485,9.546     C260.175,250.062,260.256,252.963,260.568,252.982z"/>
		</g>
		<g>
			<path style="fill:#43AA99;" d="M133.076,125.924c20.158,18.773,16.498,49.92,42.381,64.967c16.143,9.384,38,0.177,39.484-19.222     c11.728,1.765,24.247-4.043,30.473-14.137c23.928-38.79-42.688-70.515-70.642-77.376c-18.777-4.609-41.1-8.557-56.049,6.463     c-4.427,4.448-7.665,10.666-6.665,16.862c0.837,5.187,4.473,9.501,8.525,12.845C124.634,119.673,129.231,122.343,133.076,125.924     z"/>
		</g>
		<g>
			<path style="fill:#5ED3BD;" d="M209.006,168.371c-0.152,0.266-0.242,0.459-0.197,0.497c0.068,0.058,0.402-0.201,0.923-0.686     c0.827-0.223,1.307-0.395,1.292-0.491c-0.01-0.066-0.273-0.09-0.687-0.088c1.419-1.407,3.75-3.922,6.734-7.28     c4.87-5.48,11.444-13.184,18.518-21.848c3.819-4.679,7.379-9.144,10.551-13.199c-0.353-0.631-0.732-1.256-1.122-1.878     c-3.398,4.117-7.182,8.735-11.187,13.642c-7.066,8.654-13.437,16.511-17.989,22.252c-3.101,3.91-5.322,6.808-6.366,8.344     c-4.866,0.289-20.921,2.491-39.973,5.53c-3.518,0.561-6.912,1.116-10.169,1.658c0.418,0.683,0.851,1.358,1.299,2.025     c2.973-0.455,6.053-0.936,9.228-1.442C188.19,172.483,203.66,169.683,209.006,168.371z"/>
			<path style="fill:#5ED3BD;" d="M187.904,140.882c8.338-0.652,13.479-1.278,13.459-1.584c-0.021-0.319-5.194-0.26-13.544-0.018     c-11.022,0.343-21.395,0.667-32.613,1.016c-3.852,0.106-7.591,0.208-11.303,0.31c0.378,0.724,0.745,1.453,1.102,2.188     c3.307-0.053,6.734-0.127,10.268-0.23C168.029,142.188,179.566,141.535,187.904,140.882z"/>
			<path style="fill:#5ED3BD;" d="M199.733,138.726c0.269,0.128,2.122-3.055,4.659-8.431c2.539-5.373,5.701-12.967,8.595-21.57     c1.28-3.818,2.388-7.495,3.342-10.93c-0.624-0.374-1.25-0.744-1.879-1.108c-1.071,3.526-2.272,7.339-3.615,11.315     C205.134,125.085,199.123,138.438,199.733,138.726z"/>
			<path style="fill:#5ED3BD;" d="M166.681,114.131c7.412-0.941,11.972-1.729,11.939-2.036c-0.009-0.081-0.33-0.126-0.913-0.14     c0.604-0.438,0.931-11.511,0.732-25.135c-0.029-1.969-0.068-3.875-0.114-5.713c-0.755-0.216-1.497-0.422-2.21-0.609     c0.006,2.034,0.023,4.156,0.055,6.355c0.199,13.616,0.848,24.671,1.464,25.102c-1.723-0.034-5.645,0.188-11.11,0.579     c-10.219,0.788-19.323,1.491-29.062,2.242c-5.796,0.46-11.387,0.903-17.103,1.357c0.076,0.063,0.148,0.132,0.224,0.195     c0.721,0.595,1.473,1.152,2.221,1.713c4.611-0.263,9.601-0.594,14.834-1.003C149.003,116.148,159.269,115.073,166.681,114.131z"/>
		</g>
		<g>
			<path style="fill:#235E54;" d="M380.21,212.593c-4.072,1.127-8.226,1.474-12.344,2.584c-4.545,1.225-7.977,4.588-12.311,6.63     c-12.092,5.696-28.549,3.059-36.724-7.862c-4.67-6.239-5.745-14.987-2.724-22.171c-17.462-0.548-19.31-24.02-13.823-36.142     c4.182-9.238,13.859-17.593,24.362-17.281c6.285,0.187,12.484,2.119,18.758,1.692c7.103-0.484,13.166-4.298,19.999-5.666     c7.228-1.448,14.054-0.195,20.905,2.204c5.877,2.057,10.32,6.664,16.594,7.961c4.834,1,9.901,0.04,14.755,0.942     c14.537,2.702,21.188,21.034,8.78,30.812c-4.108,3.237-9.304,4.662-14.201,6.499c-4.897,1.836-9.904,4.409-12.483,8.959     c-1.439,2.538-1.991,5.48-3.198,8.137c-2.474,5.443-7.581,9.335-13.111,11.607C382.373,211.938,381.294,212.293,380.21,212.593z"/>
		</g>
		<g>
			<path style="fill:#114B44;" d="M217.6,231.846c0.566-0.005,1.284-9.024,0.829-23.67c-0.248-7.319-0.876-16.052-2.398-25.674     c-1.513-9.613-4.029-20.119-8.102-30.68c-4.155-10.549-9.629-19.982-15.698-27.714c-6.081-7.729-12.647-13.808-18.761-18.033     c-6.1-4.249-11.549-6.874-15.449-8.238c-3.895-1.386-6.154-1.781-6.238-1.522c-0.324,0.791,8.486,3.458,19.769,12.333     c5.639,4.386,11.695,10.445,17.356,18c5.649,7.56,10.794,16.677,14.791,26.822c7.885,20.451,10.177,40.525,11.526,54.908     C216.493,222.829,216.914,231.857,217.6,231.846z"/>
		</g>
		<g>
			<path style="fill:#114B44;" d="M326.956,192.371c-4.637-3.271-7.683-5.535-8.522-5.879c0.569-3.869,1.305-15.141,3.096-28.346     c1.008-7.623,2.182-14.514,3.089-19.745c-0.601,0.045-1.198,0.117-1.79,0.216c-1.232,5.121-2.553,11.822-3.548,19.228     c-1.102,8.259-1.586,15.795-1.68,21.25c-0.096,5.457,0.14,8.831,0.44,8.837c0.114,0.002,0.226-0.412,0.344-1.136     c0.655,0.87,3.332,3.418,7.607,6.857c5.094,4.105,12.496,9.357,21.191,14.301c6.2,3.513,12.182,6.369,17.337,8.55     c0.764-0.391,1.558-0.721,2.376-1.005c-5.345-2.475-11.801-5.671-18.593-9.519C339.709,201.094,332.257,196.117,326.956,192.371z     "/>
			<path style="fill:#114B44;" d="M372.248,187.777c-8.98-3.825-16.991-7.56-22.779-10.304c-5.33-2.524-8.762-4.142-9.402-4.162     c1.42-3.78,4.226-12.979,7.978-23.559c1.402-3.988,2.781-7.725,4.029-11.059c-0.821,0.253-1.652,0.476-2.491,0.674     c-1.211,2.936-2.465,6.18-3.678,9.629c-4.998,14.098-7.345,26.022-6.764,26.154c0.148,0.037,0.445-0.581,0.868-1.689     c0.45,0.558,3.63,2.612,8.729,5.44c5.625,3.122,13.583,7.114,22.622,10.964c9.043,3.842,17.437,6.808,23.588,8.695     c0.667,0.205,1.295,0.393,1.907,0.573c0.184-0.452,0.373-0.901,0.535-1.363c-0.614-0.233-1.248-0.473-1.921-0.729     C389.478,194.776,381.232,191.594,372.248,187.777z"/>
			<path style="fill:#114B44;" d="M368.519,164.084c2.047-2.641,7.264-10.809,14.695-19.48c2.063-2.437,4.109-4.686,6.044-6.731     c-0.673-0.34-1.364-0.649-2.07-0.932c-1.862,1.868-3.789,3.932-5.702,6.191c-7.797,9.105-12.567,17.981-13.661,20.856     c-0.002,0.003-0.015,0-0.017,0.003c-0.002,0.004,0.01,0.015,0.009,0.019c-0.214,0.568-0.296,0.918-0.21,0.957     c0.088,0.05,0.302-0.147,0.609-0.512c2.126,1.691,12.244,7.417,25.149,12.662c6.564,2.689,12.69,4.779,17.489,6.223     c0.461-0.187,0.922-0.374,1.383-0.546c0.35-0.131,0.704-0.257,1.057-0.385c-4.864-1.831-11.651-4.352-19.072-7.393     C381.554,169.87,371.244,164.928,368.519,164.084z"/>
		</g>
		<g>
			<path style="fill:#235E54;" d="M300.014,155.494c8.277-13.009,8.852-32.898-0.086-45.681c-3.292-4.708-7.776-8.82-9.362-14.341     c-1.925-6.7,0.877-13.841,0.377-20.795c-0.669-9.296-7.001-16.683-13.563-22.721c-7.389-6.799-10.137-10.212-11.457-20.512     c-1.197-9.342-7.799-14.696-16.701-17.083c-10.595-2.841-18.137,4.815-23.412,12.903c-6.829,10.469-3.896,22.421-10.095,33.112     c-8.244,14.22-19.662,26.817-14.361,44.626c1.771,5.949,3.553,10.001,2.053,16.374c-2.414,10.255-7.882,19.402-6.434,30.337     c1.438,10.852,10.123,20.216,20.699,23.04c12.669,3.383,27.05-1.97,34.709-12.323c10.263,8.694,26.146,9.983,37.677,3.058     C294.058,163.088,297.396,159.609,300.014,155.494z"/>
		</g>
		<g>
			<path style="fill:#114B44;" d="M286.941,142.103c-20.305,8.261-36.575,15.428-36.339,16.008     c0.236,0.58,16.889-5.646,37.194-13.906c6.741-2.742,13.017-5.357,18.412-7.657c0.066-0.718,0.113-1.437,0.146-2.158     C300.688,136.579,294.05,139.211,286.941,142.103z"/>
			<path style="fill:#114B44;" d="M253.451,155.844c0.185-0.599-15.786-6.056-35.672-12.188c-7.163-2.209-13.839-4.198-19.481-5.819     c-0.171,0.615-0.33,1.232-0.479,1.851c5.558,1.832,12.164,3.938,19.292,6.137C236.996,151.956,253.267,156.442,253.451,155.844z"/>
			<path style="fill:#114B44;" d="M282.862,106.467c-17.892,12.992-32.098,23.935-31.73,24.442     c0.368,0.507,15.172-9.614,33.064-22.605c3.262-2.369,6.397-4.666,9.348-6.848c-0.412-0.601-0.801-1.214-1.162-1.839     C289.36,101.77,286.165,104.069,282.862,106.467z"/>
			<path style="fill:#114B44;" d="M251.067,128.919c0.329-0.533-16.678-11.624-37.985-24.771c-4.576-2.823-8.958-5.498-13.053-7.975     c0.005,0.854,0.03,1.715,0.112,2.593c3.697,2.322,7.64,4.778,11.75,7.313C233.197,119.226,250.738,129.452,251.067,128.919z"/>
			<path style="fill:#235E54;" d="M285.629,61.025c0.404,0.567,0.788,1.146,1.157,1.732"/>
			<path style="fill:#114B44;" d="M250.791,92.526c-0.619,0.679-0.93,1.096-0.856,1.18c0.413,0.471,12.242-9.229,26.42-21.665     c3.744-3.284,7.266-6.422,10.431-9.283c-0.369-0.587-0.754-1.165-1.157-1.732c-3.305,2.81-6.946,5.954-10.771,9.309     c-11.421,10.018-20.871,18.747-23.903,22.013c-1.557-1.559-17.05-11.004-36.172-22.023c-1.292-0.745-2.57-1.478-3.83-2.2     c-0.403,0.638-0.801,1.276-1.2,1.913c1.28,0.742,2.579,1.493,3.896,2.253C232.645,83.236,248.494,91.858,250.791,92.526z"/>
			<path style="fill:#114B44;" d="M246.576,60.805c0.049-0.07-0.1-0.275-0.399-0.581c1.897-1.559,9.001-9.926,17.168-20.28     c1.137-1.442,2.241-2.854,3.303-4.224c-0.196-0.899-0.371-1.858-0.527-2.89c-1.462,1.81-2.988,3.718-4.558,5.709     c-8.1,10.27-14.552,19.078-15.704,21.374c-2.398-2.246-10.555-8.353-20.462-15.263c-1.542-1.075-3.05-2.117-4.51-3.116     c-0.138,0.812-0.269,1.625-0.399,2.439c1.174,0.832,2.374,1.677,3.61,2.539C236.154,54.92,246.218,61.319,246.576,60.805z"/>
		</g>
		<g>
			<path style="fill:#114B44;" d="M237.459,255.726c0.304,0.078,1.31-2.828,2.872-8.164c0.8-2.664,1.707-5.942,2.599-9.787     c0.91-3.841,2.028-8.202,2.949-13.088c0.493-2.478,1.001-5.03,1.524-7.656c0.517-2.665,0.929-5.46,1.419-8.343     c1.023-5.762,1.78-11.968,2.629-18.494c1.492-13.073,2.607-27.516,2.945-42.707c0.259-15.192-0.288-29.667-1.266-42.789     c-0.592-6.554-1.105-12.785-1.901-18.582c-0.376-2.901-0.678-5.709-1.09-8.392c-0.419-2.644-0.827-5.215-1.222-7.71     c-0.729-4.918-1.675-9.32-2.433-13.194c-0.74-3.878-1.518-7.189-2.213-9.882c-1.352-5.393-2.243-8.337-2.549-8.27     c-0.714,0.152,1.568,12.202,4.018,31.803c0.299,2.491,0.607,5.056,0.924,7.695c0.318,2.675,0.531,5.472,0.823,8.359     c0.628,5.77,0.997,11.961,1.47,18.465c0.741,13.023,1.156,27.36,0.9,42.409c-0.336,15.047-1.314,29.357-2.565,42.341     c-0.729,6.481-1.34,12.653-2.194,18.393c-0.405,2.873-0.728,5.659-1.151,8.32c-0.42,2.625-0.829,5.176-1.226,7.653     C239.505,243.595,236.751,255.547,237.459,255.726z"/>
		</g>
		<g>
			<path style="fill:#114B44;" d="M398.044,161.525c0.013-0.497-9.123-1.51-23.882,0.112c-7.349,0.883-16.124,2.484-25.443,5.8     c-4.672,1.614-9.418,3.761-14.194,6.261c-4.749,2.562-9.425,5.651-13.951,9.154c-8.95,7.136-16.301,15.276-21.897,23.404     c-5.671,8.087-9.583,16.124-12.314,23.028c-2.665,6.946-4.146,12.788-4.85,16.868c-0.733,4.077-0.816,6.376-0.538,6.427     c0.338,0.065,1.007-2.116,2.251-5.997c1.216-3.887,3.131-9.456,6.095-16.054c3.031-6.558,7.106-14.176,12.761-21.844     c5.573-7.705,12.753-15.45,21.3-22.267c4.321-3.342,8.762-6.316,13.273-8.817c4.54-2.44,9.047-4.581,13.505-6.238     c8.886-3.403,17.33-5.285,24.463-6.55C388.943,162.417,398.064,162.276,398.044,161.525z"/>
		</g>
		<g>
			<path style="fill:#D18E22;" d="M85.455,443.464c-4.138,4.966-6.448,11.422-6.4,17.885c10.785,5.896,22.344,10.375,34.286,13.285     c1.997-3.091,3.994-6.181,5.992-9.271c-0.28,3.539-0.56,7.077-0.84,10.616c21.439,5.861,43.229,10.54,65.295,13.286     c7.938,0.988,15.925,1.463,23.91,1.864c3.173,0.159,8.103,1.35,11.132,0.385c2.682-0.855,4.508-3.953,6.386-5.839     c3.983-3.999,7.964-8,11.946-12c-0.576,6.036-1.152,12.072-1.728,18.109c-0.026,2.224,41.381,6.544,45.427,6.461     c2.519-0.052,5.243-0.653,6.846-2.596c1.055-1.279,1.47-2.955,1.827-4.574c0.99-4.488,1.766-9.16,0.81-13.656     c-0.955-4.496-3.997-8.814-8.424-10.05"/>
		</g>
		<path style="fill:#FEC400;" d="M329.767,241.649c0,0-90.034-33.108-145.445-23.356c0,0-0.559,97.707,0.176,106.096    c0.734,8.389,1.323,65.256-37.512,73.559c-38.835,8.304-58.506,5.958-63.454,47.259c0,0,72.508,26.91,117.334,24.641    c44.826-2.269,60.365-4.951,86.752,2.703l-0.695-33.865c-0.402-19.585,1.776-39.126,6.484-58.141    C304.575,335.438,325.449,252.098,329.767,241.649z"/>
		<g>
			<g>
				<g>
					<path style="fill:#D86FAC;" d="M226.771,269.568c0.806,4.392,5.581,5.078,9.284,4.1c-2.578,2.832-4.167,7.398-0.644,10.142       c0.215,0.167,0.448,0.313,0.689,0.446c0.218,0.168,0.445,0.324,0.684,0.454c3.912,2.13,7.456-1.126,9.031-4.61       c0.589,3.778,3.138,7.86,7.476,6.849c0.266-0.062,0.525-0.151,0.78-0.255c0.268-0.064,0.531-0.142,0.784-0.246       c4.127-1.706,3.812-6.53,2.082-9.947c3.309,1.93,8.093,2.54,10.041-1.478c0.119-0.246,0.213-0.504,0.292-0.767       c0.119-0.249,0.224-0.503,0.301-0.764c1.266-4.27-2.658-7.056-6.394-7.869c3.571-1.366,7.031-4.711,5.136-8.742       c-0.116-0.247-0.258-0.482-0.413-0.71c-0.118-0.249-0.25-0.49-0.405-0.715c-2.531-3.679-7.183-2.364-10.162,0.042       c1.195-3.639,0.793-8.446-3.543-9.51c-0.265-0.065-0.537-0.103-0.812-0.125c-0.268-0.064-0.538-0.114-0.81-0.135       c-4.641-0.361-6.518,4.484-6.354,8.412c0.013,0.306,0.073,0.606,0.105,0.91c-0.151-0.266-0.276-0.544-0.444-0.801       c-2.152-3.289-6.498-6.138-10.062-3.145c-0.209,0.175-0.4,0.373-0.58,0.581c-0.21,0.178-0.409,0.367-0.587,0.574       c-2.9,3.381-0.457,7.527,2.621,9.794c-3.817-0.213-8.342,1.427-8.26,5.88c0.005,0.273,0.039,0.546,0.087,0.817       C226.7,269.025,226.722,269.299,226.771,269.568z M240.29,265.468c0.652-4.06,4.472-6.823,8.532-6.171       c4.06,0.652,6.823,4.472,6.171,8.532c-0.652,4.06-4.472,6.823-8.532,6.171C242.4,273.348,239.638,269.528,240.29,265.468z"/>
				</g>
			</g>
			<path style="fill:#FCF1B8;" d="M248.821,259.297c-4.06-0.652-7.88,2.111-8.532,6.171c-0.652,4.06,2.111,7.88,6.171,8.532     c4.06,0.652,7.88-2.111,8.532-6.171C255.644,263.769,252.881,259.949,248.821,259.297z"/>
			<g>
				<g>
					<path style="fill:#D86FAC;" d="M239.553,339.1c0.119-0.246,0.213-0.504,0.292-0.767c0.119-0.249,0.224-0.503,0.301-0.764       c1.266-4.27-2.658-7.056-6.394-7.869c3.571-1.366,7.03-4.711,5.136-8.742c-0.116-0.247-0.258-0.482-0.413-0.71       c-0.119-0.249-0.25-0.49-0.405-0.715c-2.531-3.679-7.182-2.364-10.162,0.042c1.196-3.639,0.794-8.445-3.543-9.51       c-0.265-0.065-0.537-0.103-0.812-0.126c-0.268-0.064-0.538-0.114-0.81-0.135c-4.641-0.361-6.517,4.484-6.354,8.412       c0.013,0.307,0.073,0.606,0.105,0.91c-0.151-0.266-0.276-0.544-0.444-0.801c-2.152-3.29-6.498-6.138-10.062-3.145       c-0.209,0.175-0.4,0.373-0.581,0.581c-0.21,0.178-0.409,0.367-0.587,0.574c-2.9,3.38-0.457,7.527,2.621,9.795       c-3.817-0.213-8.342,1.427-8.26,5.88c0.005,0.273,0.038,0.545,0.087,0.817c0.007,0.275,0.028,0.549,0.077,0.818       c0.806,4.392,5.581,5.078,9.284,4.1c-2.578,2.833-4.167,7.398-0.644,10.142c0.215,0.168,0.448,0.313,0.69,0.446       c0.218,0.168,0.445,0.324,0.684,0.454c3.912,2.13,7.456-1.126,9.031-4.609c0.589,3.777,3.138,7.86,7.476,6.849       c0.266-0.062,0.525-0.151,0.781-0.255c0.268-0.064,0.531-0.142,0.783-0.246c4.127-1.706,3.812-6.53,2.082-9.947       C232.821,342.507,237.606,343.118,239.553,339.1z M227.567,331.906c-0.652,4.06-4.472,6.823-8.532,6.171       c-4.06-0.652-6.823-4.472-6.171-8.532c0.652-4.06,4.472-6.823,8.532-6.171S228.219,327.846,227.567,331.906z"/>
				</g>
			</g>
			<path style="fill:#FCF1B8;" d="M221.396,323.374c-4.06-0.652-7.88,2.111-8.532,6.171c-0.652,4.06,2.111,7.88,6.171,8.532     c4.06,0.652,7.88-2.111,8.532-6.171C228.219,327.846,225.456,324.026,221.396,323.374z"/>
			<g>
				<path style="fill:#D86FAC;" d="M310.427,306.877c-4.641-0.361-6.518,4.484-6.354,8.412c0.013,0.307,0.073,0.606,0.105,0.91      c-0.151-0.266-0.276-0.544-0.444-0.801c-2.152-3.289-6.498-6.138-10.062-3.145c-0.209,0.175-0.4,0.373-0.58,0.581      c-0.21,0.178-0.41,0.367-0.587,0.574c-2.9,3.38-0.457,7.527,2.621,9.795c-3.817-0.213-8.342,1.427-8.26,5.88      c0.005,0.273,0.039,0.545,0.087,0.817c0.006,0.275,0.028,0.549,0.077,0.818c0.806,4.392,5.581,5.078,9.284,4.1      c-2.578,2.832-4.167,7.398-0.644,10.142c0.215,0.168,0.448,0.313,0.689,0.446c0.218,0.168,0.445,0.323,0.684,0.454      c1.796,0.978,3.511,0.813,4.997,0.02c0.931-3.715,1.878-7.487,2.835-11.286c-3.011-1.339-4.874-4.569-4.327-7.976      c0.619-3.854,4.094-6.534,7.918-6.238c1.131-4.459,2.261-8.899,3.38-13.274c-0.201-0.039-0.403-0.077-0.608-0.094      C310.969,306.948,310.699,306.898,310.427,306.877z"/>
			</g>
			<path style="fill:#FCF1B8;" d="M300.548,326.618c-0.547,3.407,1.315,6.638,4.327,7.976c0.231-0.917,0.462-1.835,0.694-2.754     c0.709-2.811,1.421-5.631,2.135-8.45c0.254-1.004,0.508-2.007,0.763-3.01C304.641,320.084,301.167,322.763,300.548,326.618z"/>
			<g>
				<g>
					<path style="fill:#D86FAC;" d="M265.222,395.557c3.309,1.929,8.093,2.54,10.041-1.478c0.119-0.246,0.213-0.504,0.292-0.768       c0.119-0.249,0.224-0.502,0.301-0.764c1.266-4.27-2.658-7.056-6.394-7.868c3.571-1.366,7.03-4.711,5.136-8.742       c-0.116-0.247-0.258-0.482-0.413-0.709c-0.119-0.249-0.25-0.49-0.405-0.715c-2.531-3.679-7.183-2.364-10.163,0.042       c1.196-3.639,0.794-8.446-3.543-9.51c-0.265-0.065-0.537-0.103-0.811-0.125c-0.268-0.064-0.538-0.114-0.81-0.135       c-4.641-0.361-6.518,4.484-6.355,8.412c0.013,0.307,0.073,0.606,0.105,0.91c-0.151-0.266-0.276-0.544-0.444-0.801       c-2.153-3.29-6.498-6.138-10.062-3.145c-0.209,0.175-0.4,0.373-0.58,0.581c-0.21,0.178-0.41,0.367-0.587,0.574       c-2.9,3.38-0.457,7.527,2.621,9.795c-3.817-0.213-8.342,1.427-8.26,5.88c0.005,0.273,0.038,0.545,0.087,0.817       c0.006,0.275,0.028,0.549,0.077,0.817c0.806,4.392,5.581,5.078,9.284,4.1c-2.578,2.833-4.167,7.398-0.644,10.142       c0.215,0.168,0.448,0.313,0.689,0.446c0.218,0.168,0.445,0.324,0.684,0.454c3.912,2.13,7.456-1.126,9.031-4.609       c0.589,3.777,3.139,7.86,7.476,6.849c0.266-0.062,0.525-0.151,0.78-0.255c0.268-0.064,0.531-0.142,0.783-0.247       C267.267,403.798,266.952,398.974,265.222,395.557z M263.276,386.885c-0.652,4.06-4.472,6.823-8.532,6.171       c-4.06-0.652-6.823-4.472-6.171-8.531c0.652-4.06,4.472-6.823,8.532-6.171C261.166,379.005,263.928,382.825,263.276,386.885z"/>
				</g>
			</g>
			<path style="fill:#FCF1B8;" d="M257.106,378.354c-4.06-0.652-7.88,2.111-8.532,6.171c-0.652,4.06,2.111,7.88,6.171,8.531     c4.06,0.652,7.88-2.111,8.532-6.171C263.928,382.825,261.166,379.005,257.106,378.354z"/>
			<g>
				<path style="fill:#D86FAC;" d="M162.838,393.648c-2.578,2.832-4.167,7.398-0.644,10.142c0.215,0.168,0.448,0.313,0.689,0.446      c0.218,0.168,0.445,0.324,0.684,0.454c3.912,2.13,7.456-1.126,9.031-4.61c0.589,3.778,3.138,7.86,7.476,6.849      c0.266-0.062,0.525-0.151,0.78-0.255c0.268-0.064,0.531-0.142,0.783-0.246c4.127-1.706,3.812-6.53,2.082-9.947      c3.309,1.929,8.093,2.54,10.041-1.478c0.119-0.246,0.213-0.504,0.292-0.767c0.119-0.249,0.224-0.503,0.301-0.764      c1.266-4.27-2.658-7.056-6.394-7.869c3.571-1.366,7.031-4.711,5.136-8.742c-0.116-0.247-0.258-0.482-0.413-0.71      c-0.118-0.249-0.25-0.49-0.405-0.715c-2.531-3.68-7.183-2.364-10.163,0.042c1.151-3.504,0.81-8.081-3.089-9.367      c-1.616,4.618-3.677,9.133-6.294,13.268c0.915-0.214,1.885-0.26,2.871-0.102c4.06,0.652,6.823,4.472,6.171,8.532      c-0.652,4.06-4.472,6.823-8.532,6.171c-3.61-0.58-6.188-3.665-6.258-7.195c-2.616,2.733-5.612,5.125-9.037,7.051      C159.516,394.173,161.271,394.062,162.838,393.648z"/>
			</g>
			<path style="fill:#FCF1B8;" d="M175.604,379.278c-0.985-0.158-1.955-0.112-2.871,0.102c-1.677,2.651-3.583,5.144-5.748,7.406     c0.071,3.531,2.648,6.615,6.258,7.195c4.06,0.652,7.88-2.111,8.532-6.171C182.427,383.75,179.664,379.93,175.604,379.278z"/>
			<g>
				<g>
					<path style="fill:#D86FAC;" d="M223.047,439.584c3.571-1.366,7.03-4.711,5.136-8.742c-0.116-0.247-0.258-0.482-0.413-0.71       c-0.119-0.249-0.25-0.49-0.405-0.715c-2.531-3.679-7.183-2.364-10.162,0.042c1.196-3.639,0.794-8.446-3.543-9.51       c-0.265-0.065-0.537-0.103-0.811-0.125c-0.268-0.064-0.538-0.114-0.81-0.135c-4.641-0.361-6.518,4.484-6.355,8.412       c0.013,0.306,0.073,0.606,0.105,0.91c-0.151-0.266-0.276-0.544-0.444-0.801c-2.153-3.289-6.498-6.138-10.062-3.145       c-0.209,0.175-0.4,0.373-0.58,0.581c-0.21,0.178-0.41,0.367-0.587,0.574c-2.9,3.381-0.457,7.527,2.621,9.794       c-3.817-0.213-8.342,1.427-8.26,5.88c0.005,0.273,0.038,0.545,0.087,0.817c0.006,0.275,0.028,0.549,0.077,0.818       c0.806,4.392,5.581,5.078,9.284,4.1c-2.578,2.832-4.167,7.398-0.644,10.142c0.215,0.167,0.448,0.313,0.689,0.446       c0.218,0.168,0.445,0.324,0.684,0.454c3.912,2.13,7.456-1.126,9.031-4.61c0.589,3.778,3.138,7.86,7.476,6.849       c0.266-0.062,0.525-0.151,0.78-0.255c0.268-0.064,0.531-0.142,0.783-0.246c4.127-1.706,3.812-6.53,2.082-9.947       c3.309,1.93,8.094,2.54,10.041-1.478c0.119-0.246,0.212-0.504,0.292-0.768c0.119-0.249,0.224-0.503,0.301-0.764       C230.707,443.182,226.783,440.396,223.047,439.584z M216.862,441.79c-0.652,4.06-4.472,6.823-8.532,6.171       c-4.06-0.652-6.823-4.472-6.171-8.532c0.652-4.06,4.472-6.823,8.532-6.171C214.751,433.91,217.514,437.73,216.862,441.79z"/>
				</g>
			</g>
			<path style="fill:#FCF1B8;" d="M210.691,433.258c-4.06-0.652-7.88,2.111-8.532,6.171c-0.652,4.06,2.111,7.88,6.171,8.532     c4.06,0.652,7.88-2.111,8.532-6.171C217.514,437.73,214.751,433.91,210.691,433.258z"/>
			<g>
				<g>
					<path style="fill:#D86FAC;" d="M145.471,426.13c3.571-1.365,7.03-4.711,5.136-8.742c-0.116-0.247-0.258-0.482-0.413-0.71       c-0.118-0.249-0.25-0.49-0.405-0.715c-2.531-3.679-7.183-2.364-10.163,0.042c1.196-3.639,0.794-8.446-3.543-9.51       c-0.265-0.065-0.537-0.103-0.812-0.126c-0.268-0.064-0.538-0.114-0.81-0.135c-4.641-0.361-6.518,4.484-6.355,8.412       c0.013,0.306,0.073,0.606,0.105,0.91c-0.151-0.266-0.276-0.544-0.444-0.801c-2.152-3.29-6.498-6.138-10.062-3.145       c-0.209,0.175-0.4,0.373-0.58,0.581c-0.21,0.178-0.41,0.367-0.587,0.574c-2.9,3.38-0.457,7.527,2.621,9.795       c-3.817-0.213-8.342,1.427-8.26,5.88c0.005,0.273,0.038,0.545,0.087,0.817c0.006,0.275,0.028,0.549,0.077,0.818       c0.806,4.392,5.581,5.078,9.284,4.1c-2.578,2.833-4.167,7.398-0.644,10.142c0.215,0.168,0.448,0.313,0.69,0.446       c0.218,0.168,0.445,0.324,0.684,0.454c3.912,2.13,7.456-1.126,9.031-4.609c0.589,3.777,3.138,7.86,7.476,6.849       c0.266-0.062,0.525-0.151,0.78-0.255c0.268-0.064,0.531-0.142,0.783-0.247c4.127-1.706,3.812-6.53,2.082-9.947       c3.308,1.929,8.093,2.54,10.041-1.478c0.119-0.246,0.213-0.504,0.292-0.768c0.119-0.249,0.224-0.503,0.301-0.764       C153.131,429.728,149.207,426.942,145.471,426.13z M139.285,428.336c-0.652,4.06-4.472,6.823-8.532,6.171       c-4.06-0.652-6.823-4.472-6.171-8.532c0.652-4.06,4.472-6.823,8.532-6.171C137.175,420.456,139.938,424.276,139.285,428.336z"/>
				</g>
			</g>
			<path style="fill:#FCF1B8;" d="M133.115,419.804c-4.06-0.652-7.88,2.111-8.532,6.171c-0.652,4.06,2.111,7.88,6.171,8.532     c4.06,0.652,7.88-2.111,8.532-6.171C139.938,424.276,137.175,420.456,133.115,419.804z"/>
			<g>
				<path style="fill:#D86FAC;" d="M283.351,425.787c0.013,0.307,0.073,0.606,0.105,0.91c-0.151-0.266-0.276-0.544-0.444-0.801      c-2.152-3.289-6.498-6.138-10.062-3.145c-0.209,0.175-0.4,0.373-0.58,0.581c-0.21,0.178-0.409,0.367-0.587,0.574      c-2.9,3.38-0.457,7.527,2.621,9.795c-3.817-0.213-8.342,1.427-8.26,5.88c0.005,0.273,0.038,0.545,0.087,0.817      c0.006,0.275,0.028,0.549,0.077,0.818c0.806,4.392,5.581,5.078,9.284,4.1c-2.578,2.832-4.167,7.398-0.644,10.142      c0.215,0.168,0.448,0.313,0.689,0.446c0.218,0.168,0.445,0.324,0.684,0.454c3.912,2.13,7.457-1.125,9.031-4.609      c0.262,1.679,0.914,3.417,1.935,4.742l-0.221-10.758c-0.354-0.006-0.71-0.027-1.07-0.085c-4.06-0.652-6.823-4.472-6.171-8.532      c0.573-3.57,3.596-6.134,7.077-6.259c0.064-4.41,0.261-8.814,0.587-13.208C284.465,418.717,283.217,422.559,283.351,425.787z"/>
			</g>
			<path style="fill:#FCF1B8;" d="M287.001,442.526l-0.079-3.84c-0.033-1.588-0.042-3.176-0.041-4.763     c0.001-1.022,0.006-2.044,0.021-3.066c-3.481,0.125-6.503,2.689-7.077,6.259c-0.652,4.06,2.111,7.88,6.171,8.532     c0.36,0.058,0.716,0.08,1.07,0.085L287.001,442.526z"/>
			<g>
				<path style="fill:#D86FAC;" d="M195.793,221.059c0.005,0.273,0.038,0.545,0.087,0.817c0.006,0.275,0.028,0.549,0.077,0.818      c0.806,4.392,5.581,5.078,9.284,4.1c-2.578,2.833-4.167,7.398-0.644,10.142c0.215,0.168,0.448,0.313,0.689,0.446      c0.218,0.168,0.445,0.323,0.684,0.454c3.912,2.13,7.456-1.126,9.031-4.609c0.589,3.777,3.138,7.86,7.476,6.849      c0.266-0.062,0.525-0.151,0.78-0.255c0.268-0.064,0.531-0.142,0.784-0.246c4.127-1.706,3.812-6.53,2.082-9.947      c3.309,1.929,8.093,2.54,10.041-1.478c0.119-0.245,0.213-0.504,0.292-0.767c0.119-0.249,0.224-0.503,0.301-0.764      c1.266-4.27-2.658-7.056-6.394-7.869c0.536-0.205,1.067-0.459,1.58-0.749c-2.718-0.305-5.431-0.571-8.13-0.789      c0.427,1.159,0.574,2.439,0.365,3.745c-0.652,4.06-4.472,6.823-8.532,6.171c-4.06-0.652-6.823-4.472-6.171-8.532      c0.118-0.737,0.344-1.43,0.653-2.068c-4.169-0.069-8.266-0.003-12.252,0.231C196.599,217.708,195.757,219.115,195.793,221.059z"/>
			</g>
			<path style="fill:#FCF1B8;" d="M223.813,217.209c-1.175-0.095-2.347-0.179-3.516-0.256c-2.323-0.153-4.632-0.269-6.923-0.346     c-1.086-0.036-2.169-0.064-3.246-0.082c-0.31,0.639-0.535,1.331-0.653,2.068c-0.652,4.06,2.111,7.88,6.171,8.532     c4.06,0.652,7.88-2.111,8.532-6.171C224.388,219.648,224.24,218.368,223.813,217.209z"/>
			<g>
				<path style="fill:#D86FAC;" d="M186.864,289.421c0.266-0.062,0.525-0.151,0.781-0.255c0.268-0.064,0.531-0.142,0.783-0.246      c4.127-1.706,3.812-6.53,2.082-9.947c3.309,1.929,8.093,2.54,10.041-1.478c0.119-0.245,0.213-0.504,0.292-0.767      c0.119-0.249,0.224-0.502,0.301-0.764c1.266-4.27-2.658-7.056-6.394-7.869c3.571-1.366,7.03-4.711,5.136-8.742      c-0.116-0.247-0.258-0.482-0.413-0.71c-0.119-0.249-0.25-0.49-0.405-0.715c-2.531-3.68-7.183-2.364-10.162,0.042      c1.196-3.638,0.793-8.445-3.543-9.51c-0.265-0.065-0.537-0.103-0.812-0.125c-0.12-0.029-0.242-0.039-0.363-0.06      c-0.015,4.455-0.03,9.179-0.042,14.011c3.065,1.313,4.97,4.574,4.418,8.016c-0.421,2.622-2.167,4.696-4.442,5.666      c-0.005,4.55-0.006,9.057-0.002,13.389C184.937,289.606,185.849,289.657,186.864,289.421z"/>
			</g>
			<path style="fill:#FCF1B8;" d="M184.146,262.284c-0.003,1.22-0.006,2.444-0.008,3.675c-0.004,2.07-0.008,4.151-0.011,6.231     c-0.002,1.26-0.004,2.519-0.005,3.776c2.275-0.969,4.021-3.043,4.442-5.666C189.117,266.859,187.211,263.597,184.146,262.284z"/>
		</g>
		<g>
			<path style="fill:#D18E22;" d="M313.554,236.225c-11.94-3.754-29.395-8.778-48.666-12.819     c-4.088,20.045-8.072,40.148-9.691,60.545c-1.153,14.525-0.922,29.866,6.606,42.937c1.902,3.303,4.477,6.579,8.256,7.969     c0.19,0.07,0.388,0.099,0.581,0.157l-0.006,0.036c0.221,0.063,0.45,0.092,0.674,0.144c0.285,0.067,0.569,0.138,0.857,0.184     c0.288,0.047,0.58,0.068,0.871,0.094c0.229,0.02,0.456,0.065,0.686,0.074l0.006-0.036c0.201,0.005,0.398,0.039,0.6,0.033     c4.024-0.137,7.496-2.442,10.336-4.983c11.242-10.057,16.264-24.555,19.717-38.71     C308.84,273.573,311.323,254.905,313.554,236.225z"/>
		</g>
	</g>
</g>















</svg>
