<?xml version="1.0" encoding="UTF-8"?>
<!-- Generator: Adobe Illustrator 25.2.1, SVG Export Plug-In . SVG Version: 6.00 Build 0)  -->
<svg xmlns="http://www.w3.org/2000/svg" xmlns:xlink="http://www.w3.org/1999/xlink" version="1.1" id="Capa_1" x="0px" y="0px" viewBox="0 0 512 512" style="enable-background:new 0 0 512 512;" xml:space="preserve" width="512" height="512">
<g>
	<path style="fill:#FFFFFF;" d="M457.111,127.12c-0.516-0.84-1.038-1.665-1.571-2.473c2.913-8.972,1.36-13.486,0.667-15.503   c-1.637-4.751-5.187-8.627-9.642-10.593c-3.594-1.612-7.696-1.993-11.545-1.073c-2.609,0.623-4.817,1.71-6.771,3.153   c-3.085-1.275-6.263-2.219-9.465-2.823c-4.092-13.759-14.802-14.696-18.221-14.625c-1.259,0.026-2.57,0.193-3.796,0.486   c-12.276,2.933-14.808,14.249-15.232,25.16c-9.046,8.781-14.89,21.874-16.644,37.607c-0.684,0.395-1.34,0.837-1.964,1.316   c-0.175-4.647-2.161-9.224-7.348-13.049c-1.383-1.021-2.889-1.828-4.472-2.408c-0.688-3.163-1.381-6.328-2.078-9.488   c-1.995-9.037-4.002-16.899-6.182-24.162c0.91-1.614,1.718-3.151,2.408-4.578c7.902-16.355-0.715-24.389-4.843-27.119   c-3.358-2.205-7.395-3.202-11.39-2.865c-2.633-4.954-5.459-9.565-8.501-13.888c-6.829-9.699-14.582-17.741-23.146-24.031   c0.136-1.109,0.24-2.17,0.31-3.177C298.89,5.412,287.15,1.297,283.507,0.451c-2.647-0.613-5.581-0.6-8.225,0.032   c-6.081,1.453-10.079,5.249-12.983,10.808c-1.055-0.164-2.113-0.307-3.172-0.424c-7.872-0.884-16.219-0.781-24.618,0.286   c-3.697-3.76-8.902-6.333-16.164-4.739c-0.146,0.032-0.299,0.066-0.445,0.101c-3.675,0.878-10.483,3.677-12.964,12.472   c-8.327,3.424-16.15,7.766-23.072,12.833c-1.465,1.074-2.967,2.249-4.77,3.741c-0.536,0.446-1.067,0.895-1.564,1.326   c-1.68,1.453-3.163,2.818-4.599,4.235c-0.263,0.262-0.519,0.527-0.947,0.975c-1.281,1.307-2.556,2.691-3.823,4.15l-0.178,0.204   c-0.25,0.284-0.499,0.568-0.751,0.868c-1.353,1.617-2.704,3.369-3.986,5.167c-0.278,0.389-0.545,0.778-0.877,1.266   c-1.476,2.155-2.652,4.019-3.685,5.846c-0.046,0.082-0.094,0.166-0.14,0.248c-3.084-1.05-6.408-1.32-10.016-0.458   c-2.456,0.587-4.9,1.763-6.889,3.323c-2.96,2.318-11.927,11.103-3.044,26.8c1.81,3.198,4.327,6.887,7.286,10.672   c0.163,0.208,0.324,0.414,0.486,0.617c-0.51,5.652-0.638,11.466-0.388,17.398c-0.727-1.142-1.488-2.274-2.285-3.391   c2.76-11.902-3.256-18.007-7.848-20.827c-5.54-3.413-12.548-3.594-18.474-0.353c-4.415-1.62-8.997-2.524-13.691-2.703   c-6.364-7.875-13.575-8.496-19.191-7.154c-0.663,0.158-1.366,0.369-2.006,0.603c-3.975,1.456-11.341,5.654-11.897,16.823   c-1.018,0.667-2.032,1.36-3.04,2.088c-2.674,1.934-5.127,4.043-7.348,6.319c-2.649-0.673-5.5-0.748-8.658,0.006   c-2.358,0.563-4.726,1.681-6.663,3.142c-4.153,3.137-6.742,7.948-7.104,13.195c-0.456,6.605,2.99,13.19,7.215,18.657   c-0.017,0.223-0.032,0.446-0.046,0.671c-0.492,7.625,0.268,15.968,2.259,24.807c0.171,0.768,0.357,1.546,0.548,2.327   c-2.758,1.773-4.99,4.265-6.434,7.255c-2.105,4.327-2.388,9.237-0.798,13.823c1.676,4.843,5.29,10.324,20.238,17.569   c0.978,0.475,1.956,0.929,2.927,1.363c4.778,9.1,10.447,18.616,17.216,28.904c1.108,1.684,2.268,3.343,3.48,4.974   c-0.319,0.533-0.597,1.058-0.845,1.571c-2.138,4.411-2.396,9.554-0.734,14.05c3.83,10.489,13.338,14,28.261,10.434   c0.1-0.024,0.2-0.048,0.3-0.072c3.895,2.669,7.932,5.06,12.004,7.109c1.471,0.743,2.957,1.444,4.447,2.101   c1.832,0.81,3.681,1.555,5.541,2.236c0.407,3.414,1.955,6.866,5.215,10.171c4.492,4.578,10.988,6.402,17.376,4.875   c5.838-1.395,11.367-5.822,15.585-10.124c4.152-0.284,8.357-0.789,12.567-1.518c3.023-0.526,6.125-1.194,9.201-1.921   c1.935,5.494,3.85,10.794,5.75,15.929c-1.826,1.545-3.342,3.453-4.432,5.632c-2.157,4.289-2.503,9.181-0.979,13.773   c0.963,2.901,2.44,6.024,7.276,9.94l-22.473,5.37c-9.441,2.256-15.265,11.737-13.009,21.177l25.531,106.853   c0.345,1.443,0.772,2.843,1.216,4.234c0.002,0.01,0.079,0.256,0.083,0.263c9.911,31.088,42.533,49.5,74.264,41.918L406.14,476.46   c1.786-0.427,3.601-0.956,5.466-1.591c0.728-0.245,1.44-0.513,2.148-0.79l0.358-0.138c0.041-0.017,0.233-0.091,0.274-0.109   c0.784-0.308,1.567-0.619,2.326-0.951c1.072-0.47,2.122-0.971,3.238-1.535c0.438-0.226,0.876-0.459,1.298-0.686   c19.672-10.571,32.303-31.003,32.957-53.279c0.027-0.856,0.048-1.708,0.038-2.585c-0.012-0.915-0.044-1.832-0.093-2.733   c-0.06-1.107-0.156-2.214-0.27-3.271l-0.031-0.287c-0.066-0.655-0.138-1.306-0.232-1.961c-0.297-2.054-0.642-3.9-1.058-5.643   l-25.531-106.853c-2.256-9.441-11.737-15.265-21.178-13.009l-11.866,2.835c0.507-1.994,0.512-3.447,0.517-4.399   c0.003-0.127,0.002-0.255,0-0.381c5.209-1.302,10.324-3.001,15.268-5.067c3.969,0.007,7.827-0.403,11.201-1.209   c11.027-2.635,15.203-9.665,16.25-15.632c4.892-4.179,9.318-8.786,13.234-13.79c7.466-9.538,13.204-20.806,16.806-32.919   c10.674-8.406,10.067-17.094,7.247-23.32c-0.348-0.761-1.243-2.511-2.869-4.369C472.182,162.912,467.196,143.576,457.111,127.12z"/>
	<g>
		<path style="fill:#FEC400;" d="M429.047,452.919l-12.658,3.024l-21.298-1.102l-15.442,9.88l-41.702,9.964l-19.219-2.892    l-17.051,11.558l-68.232,16.303c-9.337,2.231-18.714-3.53-20.945-12.866l-5.624-23.537l0.894-17.748l-8.782-15.266l-18.468-77.291    l229.415-54.815l20.058,83.949l-2.119,17.771l10.744,18.326l3.297,13.798C444.145,441.31,438.384,450.688,429.047,452.919z"/>
		<g>
			<path style="fill:#235E54;" d="M182.878,187.968c-3.475,4.576-10.214,5.742-15.662,3.911s-9.748-6.092-13.135-10.735     c-6.777-9.291-10.576-20.355-14.59-31.132c-4.014-10.776-8.493-21.697-16.278-30.16c-14.447-15.706-31.332-13.928-47.371-2.327     c-36.225,26.2,0.187,87.469,17.734,114.134c11.388,17.305,30.244,32.514,50.579,37.66c24.732,6.259,56.238-2.668,77.703-14.869"/>
		</g>
		<g>
			<path style="fill:#235E54;" d="M333.249,218.672c17.351,3.731,36.657-6.037,43.928-22.227     c6.127-13.641,3.995-29.344,4.861-44.273c0.865-14.929,6.872-31.885,21.1-36.487c7.552-2.443,16.046-0.69,22.827,3.436     s12.012,10.414,16.16,17.182c17.871,29.16,15.572,69.329-5.509,96.26s-59.524,38.807-92.122,28.459"/>
		</g>
		<g>
			<path style="fill:#235E54;" d="M371.454,345.725c-9.781-73.686-23.606-146.717-39.586-219.131     c-5.007-22.687-12.17-47.034-25.718-66.281c-11.726-16.658-28.226-29.652-48.983-31.983     c-31.302-3.514-69.224,11.732-85.195,39.934c-9.688,17.108-11.905,37.641-9.844,57.194c2.061,19.553,8.128,38.431,14.159,57.144     c19.514,60.545,37.074,121.22,65.242,178.515"/>
		</g>
		<g>
			<g>
				<path style="fill:#114B44;" d="M279.548,17.574c-1.17-0.271-3.487,5.412-5.175,12.693c-1.688,7.281-2.107,13.404-0.937,13.675      c1.17,0.271,3.487-5.412,5.175-12.693S280.718,17.845,279.548,17.574z"/>
			</g>
			<g>
				<path style="fill:#114B44;" d="M229.347,103.565c0.922-0.77-2.215-6.045-7.007-11.781c-4.791-5.737-9.423-9.763-10.345-8.993      c-0.922,0.77,2.215,6.045,7.007,11.781C223.793,100.309,228.425,104.335,229.347,103.565z"/>
			</g>
			<g>
				<path style="fill:#114B44;" d="M270.328,99.863c1.185,0.198,3.357-6.902,4.851-15.859c1.494-8.956,1.746-16.377,0.561-16.575      c-1.185-0.198-3.357,6.903-4.851,15.859C269.394,92.244,269.143,99.665,270.328,99.863z"/>
			</g>
			<g>
				<path style="fill:#114B44;" d="M231.416,156.413c1.036-0.608-1.435-6.739-5.52-13.692c-4.084-6.953-8.234-12.097-9.27-11.489      c-1.036,0.608,1.435,6.738,5.52,13.692C226.23,151.877,230.38,157.021,231.416,156.413z"/>
			</g>
			<g>
				<path style="fill:#114B44;" d="M257.753,147.294c-1.201-0.022-2.24,3.45-2.321,7.756c-0.081,4.306,0.828,7.815,2.028,7.837      c1.201,0.023,2.24-3.45,2.321-7.756C259.862,150.826,258.954,147.317,257.753,147.294z"/>
			</g>
			<g>
				<path style="fill:#114B44;" d="M296.929,148.11c-1.08-0.527-5.225,5.752-9.258,14.022c-4.033,8.271-6.428,15.402-5.348,15.929      c1.08,0.526,5.225-5.751,9.258-14.022C295.614,155.769,298.008,148.637,296.929,148.11z"/>
			</g>
			<g>
				<path style="fill:#114B44;" d="M330.767,81.638c-1.003-0.661-5.905,5.004-10.951,12.655c-5.045,7.65-8.322,14.388-7.319,15.049      c1.003,0.661,5.905-5.004,10.95-12.654C328.493,89.037,331.769,82.299,330.767,81.638z"/>
			</g>
			<g>
				<path style="fill:#114B44;" d="M232.495,54.545c1.106-0.519-1.094-7.477-3.944-15.913c-2.876-8.427-5.367-15.287-6.56-15.025      c-1.155,0.245-0.521,7.734,2.441,16.423C227.372,48.727,231.43,55.054,232.495,54.545z"/>
			</g>
			<g>
				<path style="fill:#114B44;" d="M168.402,99.49c0.946-0.74-2.3-6.475-7.25-12.81c-4.95-6.335-9.731-10.871-10.677-10.131      c-0.946,0.74,2.3,6.475,7.25,12.81C162.675,95.694,167.455,100.23,168.402,99.49z"/>
			</g>
			<g>
				<path style="fill:#114B44;" d="M195.214,110.124c1.026-0.624-1.009-5.843-4.547-11.657c-3.537-5.813-7.236-10.02-8.262-9.396      c-1.026,0.624,1.009,5.843,4.546,11.657C190.489,106.542,194.188,110.749,195.214,110.124z"/>
			</g>
			<g>
				<path style="fill:#114B44;" d="M188.714,151.366c0.675-0.994-3.144-4.761-8.529-8.414c-5.384-3.653-10.296-5.808-10.971-4.814      c-0.674,0.994,3.144,4.761,8.529,8.414C183.128,150.205,188.04,152.36,188.714,151.366z"/>
			</g>
			<g>
				<path style="fill:#114B44;" d="M237.837,233.799c0.952-0.733-2.346-6.614-7.365-13.137c-5.019-6.522-9.86-11.216-10.812-10.483      c-0.952,0.732,2.345,6.614,7.365,13.136C232.044,229.838,236.886,234.532,237.837,233.799z"/>
			</g>
			<g>
				<path style="fill:#114B44;" d="M202.358,234.43c0.629-1.024-4.372-5.238-11.169-9.414c-6.797-4.176-12.817-6.731-13.446-5.707      c-0.629,1.023,4.372,5.238,11.169,9.413C195.709,232.899,201.729,235.454,202.358,234.43z"/>
			</g>
			<g>
				<path style="fill:#114B44;" d="M282.051,209.937c-1.191-0.156-2.651,3.491-3.262,8.146c-0.61,4.655-0.14,8.555,1.051,8.712      c1.191,0.156,2.651-3.491,3.262-8.146C283.712,213.993,283.241,210.093,282.051,209.937z"/>
			</g>
			<g>
				<path style="fill:#114B44;" d="M345.139,148.837c-0.966-0.714-5.821,4.219-10.844,11.018      c-5.023,6.799-8.311,12.889-7.345,13.602c0.966,0.714,5.821-4.219,10.843-11.018      C342.816,155.641,346.105,149.551,345.139,148.837z"/>
			</g>
			<g>
				<path style="fill:#114B44;" d="M252.043,304.816c0.634-1.02-5.363-5.892-13.395-10.88c-8.031-4.988-15.055-8.205-15.689-7.185      c-0.634,1.02,5.363,5.891,13.394,10.88S251.409,305.836,252.043,304.816z"/>
			</g>
			<g>
				<path style="fill:#114B44;" d="M315.853,234.475c-1.096-0.492-4.162,3.962-6.847,9.947c-2.685,5.985-3.974,11.236-2.878,11.727      c1.096,0.492,4.161-3.961,6.847-9.946C315.66,240.217,316.949,234.966,315.853,234.475z"/>
			</g>
			<g>
				<path style="fill:#114B44;" d="M330.143,277.147c-1.003-0.661-5.772,4.807-10.651,12.212c-4.88,7.405-8.022,13.945-7.019,14.605      c1.003,0.661,5.772-4.807,10.651-12.212C328.004,284.347,331.146,277.808,330.143,277.147z"/>
			</g>
			<g>
				<path style="fill:#114B44;" d="M284.629,298.781c-1.168,0.279-1.171,4.459-0.006,9.336c1.165,4.877,3.057,8.604,4.225,8.325      c1.168-0.279,1.171-4.459,0.006-9.335C287.689,302.229,285.797,298.502,284.629,298.781z"/>
			</g>
			<g>
				<path style="fill:#114B44;" d="M357.268,189.021c-0.757-0.932-5.898,1.991-11.481,6.529c-5.583,4.538-9.495,8.972-8.738,9.904      c0.758,0.932,5.898-1.991,11.481-6.528C354.113,194.387,358.025,189.953,357.268,189.021z"/>
			</g>
			<g>
				<path style="fill:#114B44;" d="M388.568,176.999c0.859-0.84-1.792-4.944-5.922-9.167c-4.129-4.223-8.172-6.965-9.031-6.125      c-0.859,0.84,1.792,4.944,5.921,9.166C383.666,175.096,387.709,177.839,388.568,176.999z"/>
			</g>
			<g>
				<path style="fill:#114B44;" d="M400.912,100.753c-1.201,0.024-2.018,7.791-1.824,17.347c0.193,9.556,1.324,17.283,2.525,17.259      c1.201-0.024,2.018-7.791,1.824-17.347C403.243,108.456,402.113,100.729,400.912,100.753z"/>
			</g>
			<g>
				<path style="fill:#114B44;" d="M414.583,182.534c0.877-0.839-1.376-4.602-4.537-8.813c-3.176-4.198-6.173-7.401-7.221-6.789      c-1.029,0.594,0.401,4.978,3.747,9.407C409.908,180.777,413.728,183.36,414.583,182.534z"/>
			</g>
			<g>
				<path style="fill:#114B44;" d="M436.24,150.192c-1.068-0.549-4.183,3.379-6.958,8.774c-2.774,5.395-4.158,10.214-3.09,10.763      c1.068,0.549,4.183-3.379,6.958-8.774C435.925,155.56,437.308,150.741,436.24,150.192z"/>
			</g>
			<g>
				<path style="fill:#114B44;" d="M439.369,114.585c-1.113-0.499-4.756,5.275-8.975,12.445c-4.197,7.183-7.456,13.182-6.477,13.91      c0.944,0.712,5.895-4.294,10.229-11.71C438.5,121.826,440.451,115.061,439.369,114.585z"/>
			</g>
			<g>
				<path style="fill:#114B44;" d="M388.65,231.898c1.087-0.553-0.327-5.465-2.276-11.32c-1.975-5.846-3.808-10.618-5.009-10.404      c-1.166,0.197-1.202,5.596,0.885,11.787C384.317,228.158,387.601,232.443,388.65,231.898z"/>
			</g>
			<g>
				<path style="fill:#114B44;" d="M418.323,215.957c-0.934-0.756-4.515,2.12-8,6.423c-3.485,4.303-5.553,8.405-4.62,9.161      c0.934,0.756,4.515-2.12,8-6.423C417.188,220.814,419.256,216.713,418.323,215.957z"/>
			</g>
			<g>
				<path style="fill:#114B44;" d="M402.03,197.219c-1.179-0.229-2.993,3.995-4.05,9.435c-1.058,5.44-0.959,10.036,0.219,10.265      c1.179,0.23,2.993-3.995,4.05-9.434C403.307,202.044,403.208,197.448,402.03,197.219z"/>
			</g>
			<g>
				<path style="fill:#114B44;" d="M419.946,254.125c-0.143-1.224-6.182-1.464-13.459-2.184c-7.281-0.67-13.256-1.578-13.629-0.403      c-0.379,1.106,5.406,4.005,13.215,4.733C413.88,257.034,420.109,255.282,419.946,254.125z"/>
			</g>
			<g>
				<path style="fill:#114B44;" d="M458.509,194.434c-0.496-1.094-6.992,0.786-14.508,4.199c-7.516,3.413-13.206,7.066-12.71,8.16      c0.496,1.094,6.992-0.786,14.508-4.199C453.315,199.181,459.005,195.528,458.509,194.434z"/>
			</g>
			<g>
				<path style="fill:#114B44;" d="M72.73,146.064c0.746-0.966-3.419-5.402-8.631-10.643c-5.232-5.22-9.661-9.393-10.629-8.648      c-0.942,0.713,2.096,6.274,7.55,11.721C66.459,143.957,72.015,147.004,72.73,146.064z"/>
			</g>
			<g>
				<path style="fill:#114B44;" d="M99.125,135.165c-1.201-0.01-2.213,4.584-2.26,10.261c-0.047,5.677,0.888,10.288,2.09,10.298      c1.201,0.01,2.213-4.584,2.26-10.261C101.261,139.785,100.326,135.175,99.125,135.165z"/>
			</g>
			<g>
				<path style="fill:#114B44;" d="M124.621,108.94c-1.024-0.629-4.622,3.369-8.038,8.929c-3.416,5.56-5.354,10.577-4.331,11.206      c1.024,0.629,4.622-3.369,8.037-8.929C123.706,114.586,125.645,109.568,124.621,108.94z"/>
			</g>
			<g>
				<path style="fill:#114B44;" d="M93.838,120.918c1.128-0.412,0.406-5.232-1.614-10.766c-2.02-5.534-4.572-9.686-5.7-9.274      c-1.128,0.412-0.406,5.232,1.614,10.766C90.158,117.178,92.71,121.33,93.838,120.918z"/>
			</g>
			<g>
				<path style="fill:#114B44;" d="M79.631,199.23c0.524-1.081-4.539-4.617-11.308-7.898c-6.769-3.281-12.681-5.065-13.205-3.984      c-0.524,1.081,4.539,4.617,11.308,7.898C73.195,198.527,79.107,200.311,79.631,199.23z"/>
			</g>
			<g>
				<path style="fill:#114B44;" d="M98.161,191.104c0.746-0.963-1.789-4.154-5.087-7.727c-3.317-3.555-6.312-6.32-7.327-5.649      c-0.993,0.645,0.551,4.755,4.138,8.608C93.46,190.201,97.444,192.047,98.161,191.104z"/>
			</g>
			<g>
				<path style="fill:#114B44;" d="M131.418,168.532c-1.189-0.167-2.847,4.648-3.703,10.753c-0.855,6.105-0.584,11.19,0.605,11.357      c1.189,0.167,2.847-4.648,3.702-10.753C132.878,173.783,132.607,168.698,131.418,168.532z"/>
			</g>
			<g>
				<path style="fill:#114B44;" d="M134.783,233.894c0.59-1.067-4.471-4.968-10.786-9.502c-6.331-4.513-11.657-8.042-12.477-7.139      c-0.801,0.87,3.384,5.996,9.946,10.677C128.015,232.628,134.218,234.933,134.783,233.894z"/>
			</g>
			<g>
				<path style="fill:#114B44;" d="M158.907,205.083c-1.209,0.073-1.977,3.549-2.214,7.757c-0.222,4.209,0.164,7.748,1.358,7.951      c1.173,0.204,2.747-3.228,2.986-7.715C161.286,208.59,160.095,205.008,158.907,205.083z"/>
			</g>
			<g>
				<path style="fill:#114B44;" d="M125.437,247.39c-0.275-1.159-6.962-0.561-14.802,1.813c-7.843,2.363-13.743,5.568-13.33,6.685      c0.418,1.137,6.882-0.2,14.588-2.521C119.596,251.033,125.719,248.567,125.437,247.39z"/>
			</g>
			<g>
				<path style="fill:#114B44;" d="M165.221,263.075c-0.972-0.723-4.994,3.051-9.391,8.094c-4.386,5.052-7.568,9.557-6.717,10.42      c0.834,0.85,5.489-2.373,9.999-7.565C163.63,268.84,166.178,263.783,165.221,263.075z"/>
			</g>
			<g>
				<path style="fill:#114B44;" d="M168.246,249.348c0.789-0.906-2.125-4.732-6.507-8.545c-4.382-3.813-8.573-6.169-9.362-5.263      c-0.789,0.906,2.125,4.732,6.506,8.545C163.266,247.898,167.458,250.254,168.246,249.348z"/>
			</g>
			<g>
				<path style="fill:#114B44;" d="M242.309,194.292c0.631-1.022-2.974-4.393-8.053-7.528c-5.078-3.136-9.707-4.849-10.338-3.827      c-0.631,1.022,2.974,4.393,8.053,7.528C237.049,193.601,241.678,195.314,242.309,194.292z"/>
			</g>
			<g>
				<path style="fill:#114B44;" d="M262.31,274.666c1.201,0.011,2.228-5.711,2.293-12.78c0.065-7.069-0.856-12.809-2.057-12.82      c-1.201-0.011-2.228,5.711-2.293,12.78C260.188,268.915,261.109,274.654,262.31,274.666z"/>
			</g>
			<g>
				<path style="fill:#114B44;" d="M235.704,328.373c0.537-1.074-5.158-5.015-12.722-8.801c-7.564-3.787-14.131-5.986-14.669-4.912      c-0.538,1.074,5.158,5.015,12.722,8.801C228.599,327.248,235.166,329.447,235.704,328.373z"/>
			</g>
			<g>
				<path style="fill:#114B44;" d="M376.811,279.051c-0.886-0.831-6.301,3.524-12.558,9.246      c-6.245,5.735-11.054,10.75-10.304,11.705c0.731,0.936,6.86-2.638,13.243-8.498C373.585,285.655,377.68,279.861,376.811,279.051      z"/>
			</g>
		</g>
		<g>
			<path style="fill:#FCF1B8;" d="M296.16,393.157c10.1-2.413,16.331-12.557,13.918-22.657c-2.413-10.1-12.557-16.331-22.657-13.918     c-10.1,2.413-16.331,12.557-13.918,22.657C275.916,389.339,286.06,395.57,296.16,393.157z"/>
			<path style="fill:#FCF1B8;" d="M408.801,344.006c-2.413-10.1-12.557-16.331-22.657-13.918     c-10.1,2.413-16.331,12.557-13.918,22.657c2.413,10.1,12.557,16.331,22.657,13.918     C404.983,364.25,411.214,354.106,408.801,344.006z"/>
			<path style="fill:#FCF1B8;" d="M261.199,424.578c-10.1,2.413-16.332,12.557-13.918,22.657     c2.413,10.1,12.557,16.332,22.657,13.918c10.1-2.413,16.331-12.558,13.918-22.657     C281.443,428.396,271.299,422.165,261.199,424.578z"/>
			
				<ellipse transform="matrix(0.7729 -0.6345 0.6345 0.7729 -184.329 315.4366)" style="fill:#FCF1B8;" cx="348.489" cy="415.219" rx="18.803" ry="18.803"/>
			<path style="fill:#FCF1B8;" d="M393.567,442.064c-10.1,2.413-16.331,12.557-13.918,22.657l22.407-5.354     c4.903-1.171,9.198-1.967,14.333-3.424C413.095,447.215,402.878,439.839,393.567,442.064z"/>
			<path style="fill:#FCF1B8;" d="M428.818,382.298c-10.1,2.413-16.331,12.557-13.918,22.657c2.332,9.762,13.96,15,23.717,13.221     c-0.555-5.015-2.021-8.456-3.152-13.194l-5.472-22.903C429.601,382.147,429.21,382.205,428.818,382.298z"/>
			<path style="fill:#FCF1B8;" d="M315.036,459.41c-10.1,2.413-16.331,12.557-13.918,22.657c0.108,0.453,0.25,0.888,0.388,1.325     l36.44-8.707c-0.074-0.452-0.145-0.904-0.253-1.357C335.28,463.228,325.136,456.997,315.036,459.41z"/>
			<path style="fill:#FCF1B8;" d="M198.943,430.056l7.106,29.741c0.265,1.108,0.609,2.174,0.95,3.242     c5.431-4.417,8.182-11.688,6.447-18.952C211.695,436.758,205.866,431.486,198.943,430.056z"/>
			
				<ellipse transform="matrix(0.0664 -0.9978 0.9978 0.0664 -188.0171 579.3815)" style="fill:#FCF1B8;" cx="215.609" cy="390.166" rx="18.802" ry="18.803"/>
		</g>
		
			<rect x="182.368" y="324.94" transform="matrix(0.9726 -0.2324 0.2324 0.9726 -72.3694 79.2828)" style="fill:#D86FAC;" width="235.873" height="43.697"/>
	</g>
</g>















</svg>
