<?xml version="1.0" encoding="UTF-8"?>
<!-- Generator: Adobe Illustrator 24.3.0, SVG Export Plug-In . SVG Version: 6.00 Build 0)  -->
<svg xmlns="http://www.w3.org/2000/svg" xmlns:xlink="http://www.w3.org/1999/xlink" version="1.1" id="Capa_1" x="0px" y="0px" viewBox="0 0 512 512" style="enable-background:new 0 0 512 512;" xml:space="preserve" width="512" height="512">
<style type="text/css">
	.st0{fill:#FFFFFF;}
	.st1{fill:#9B377E;}
	.st2{fill:#FEC400;}
	.st3{fill:#C851A0;}
	.st4{fill:#D86FAC;}
	.st5{fill:#43AA99;}
	.st6{fill:#5ED3BD;}
	.st7{fill:#235E54;}
</style>
<g>
	<path class="st0" d="M421.87,322.426c-17.699-7.292-38.652-9.642-62.373-6.977c-10.386,1.165-20.653,3.196-30.689,6.035   c4.246-3.609,8.584-7.8,11.736-13.861c1.741-3.349,2.873-6.927,3.378-10.541c8.01-9.555,15.042-19.846,20.951-30.684   c0.986-1.805,1.905-3.612,2.807-5.469l0.737-1.565c0.608-1.292,1.194-2.589,1.752-3.88c0.011-0.024,0.126-0.295,0.137-0.318   l0.6-1.421c0.581-1.402,1.134-2.802,1.749-4.435c0.137-0.347,0.271-0.697,0.342-0.9c0.668-1.815,1.297-3.638,1.826-5.282   l0.253-0.794c0.505-1.581,0.981-3.167,1.421-4.714l0.373-1.329c0.395-1.426,0.773-2.857,1.134-4.285   c0.003-0.016,0.068-0.273,0.071-0.287l0.195-0.784c0.834-3.393,1.613-6.924,2.383-10.804c1.134-5.722,2.123-11.541,3.078-17.168   c0.418-2.462,0.839-4.946,1.278-7.455c5.051-28.872,0.6-69.371-20.735-94.762c-7.326-8.721-16.105-15.105-25.986-18.996   c1.847-1.457,3.562-3.112,5.119-4.951c6.121-7.221,9.063-16.394,8.281-25.825c-1.584-19.204-18.775-34.02-38.229-32.399   c-7.048,0.581-13.611,3.186-19.03,7.476c-4.883-15.258-19.98-25.999-36.69-24.623c-7.605,0.629-14.648,3.612-20.295,8.531   c-7.074-6.805-16.971-10.707-27.451-9.839c-8.734,0.721-16.726,4.551-22.718,10.849c-6.677-5.014-15.097-7.732-24.094-6.982   c-13.201,1.094-24.134,9.334-29.303,20.593c-6.372-4.209-14.14-6.413-22.324-5.737c-9.434,0.779-17.999,5.185-24.118,12.409   c-6.119,7.221-9.06,16.392-8.281,25.83c1.173,14.158,10.788,25.936,23.586,30.49c0.342,0.884,0.684,1.783,1.023,2.699   c-8.778,1.981-16.51,5.798-23.005,11.362c-2.807,2.405-5.39,5.151-7.668,8.152c-0.918,1.208-1.802,2.483-2.649,3.82   c-0.392,0.621-0.76,1.257-1.121,1.897l-0.342,0.603c-0.297,0.516-0.589,1.036-0.894,1.618c-0.347,0.666-0.671,1.344-0.989,2.026   l-0.184,0.397c-0.279,0.594-0.555,1.194-0.837,1.857c-0.316,0.744-0.61,1.494-0.921,2.309c-0.242,0.647-0.481,1.297-0.71,1.97   c-0.26,0.763-0.508,1.526-0.708,2.191c-0.202,0.665-0.392,1.336-0.61,2.136c-0.192,0.71-0.379,1.418-0.545,2.107   c-0.168,0.708-0.321,1.423-0.487,2.226c-0.142,0.666-0.281,1.329-0.403,1.997c-0.108,0.6-0.202,1.202-0.294,1.807l-0.076,0.492   c-0.15,0.989-0.287,1.981-0.41,3.001c-0.111,0.929-0.216,1.86-0.297,2.783c-0.045,0.476-0.076,0.95-0.108,1.426l-0.026,0.392   c-0.003,0.026-0.024,0.318-0.024,0.345c-0.047,0.663-0.092,1.323-0.121,1.915c-0.024,0.489-0.042,0.981-0.058,1.471l-0.016,0.486   c-0.021,0.692-0.042,1.381-0.058,2.218l-0.008,1.734c0,0.731,0.005,1.463,0.018,2.181c0.011,0.595,0.021,1.192,0.037,1.7   c0.021,0.76,0.05,1.523,0.084,2.331l0.068,1.408c0.034,0.71,0.082,1.415,0.126,2.12l0.113,1.652   c0.087,1.137,0.179,2.27,0.284,3.391c0.005,0.063,0.011,0.129,0.018,0.195c0.255,2.723,0.545,5.443,0.86,8.176   c0.494,4.285,1.065,8.539,1.691,12.64c0.484,3.188,1.018,6.366,1.599,9.547c0.871,4.746,1.773,9.134,2.765,13.421   c1.729,7.468,3.749,14.771,6.003,21.706c2.391,7.358,5.112,14.505,8.087,21.251c4.233,9.586,9.126,18.699,14.542,27.077   c7.108,11.007,15.542,21.148,25.063,30.14c2.354,2.226,4.814,4.414,7.295,6.487c0.263,0.221,0.529,0.442,0.794,0.663   c2.62,8.881,9.665,16.86,20.433,22.674c17.986,9.707,37.7,16.113,57.94,18.901c-2.983,30.008-10.822,70.531-31.095,98.063   c-7.208,9.796-7.474,23.234-0.655,33.451C183.947,505.673,195.288,512,208.202,512c1.989,0,4.022-0.158,6.051-0.468   c9.06-1.389,17.065-7.032,21.416-15.1c3.159-5.856,9.899-19.327,16.26-38.31c15.192,4.264,30.645,6.419,46.163,6.419   c0,0,0,0,0.003,0c14.618,0,29.79-1.907,45.087-5.664c25.909-6.366,49.256-17.704,67.508-32.786   c20.243-16.723,52.016-49.459,37.387-80.827C443.465,335.377,434.65,327.693,421.87,322.426z"/>
	<g>
		<g>
			<path class="st1" d="M111.989,139.171c-2.174-14.568,3.911-30.088,15.405-39.298c12.814-10.266,38.762-14.394,51.267-0.89     c10.837,11.703,15.879,36.087,14.737,51.343"/>
		</g>
		<g>
			<path class="st1" d="M240.237,145.443c-10.285-26.315-8.458-68.574,26.636-73.533c15.461-2.185,30.864,6.936,40.072,19.546     c9.208,12.61,13.26,28.203,16.13,43.551"/>
		</g>
		<g>
			<path class="st2" d="M121.221,67.784c5.428-2.692,8.958-8.474,8.429-14.881c-0.693-8.384-8.051-14.619-16.435-13.926     s-14.619,8.051-13.926,16.435s8.051,14.619,16.435,13.926c0.454-0.038,0.874-0.168,1.315-0.243     c2.58,6.108,5.786,13.931,8.673,22.683c6.755,19.992,9.248,37.101,10.878,36.942c1.437-0.043,1.391-17.97-5.598-38.706     C128.086,81.229,124.493,73.612,121.221,67.784z"/>
			<path class="st2" d="M181.281,38.049c-0.693-8.384-8.051-14.619-16.436-13.926c-8.384,0.693-14.619,8.051-13.926,16.436     c0.693,8.384,8.051,14.619,16.435,13.926c0.365-0.03,0.701-0.14,1.057-0.196c1.803,6.234,4.492,14.945,7.044,24.731     c5.015,18.86,7.63,34.575,9.226,34.42c1.467-0.1,1.303-16.46-3.842-35.837c-2.583-9.887-5.902-18.439-8.714-24.379     C177.952,50.698,181.833,44.73,181.281,38.049z"/>
			<path class="st2" d="M211.655,20.254c-8.384,0.693-14.619,8.051-13.926,16.435c0.558,6.757,5.471,12.049,11.736,13.512     c-0.714,6.314-1.097,15.263-0.489,25.237c1.11,19.263,5.442,34.384,6.893,34.072c1.561-0.305-0.255-15.575-1.336-34.401     c-0.588-9.589-0.876-18.27-1.228-24.509c0.289-0.007,0.567,0.04,0.859,0.016c8.384-0.693,14.619-8.051,13.926-16.435     S220.039,19.562,211.655,20.254z"/>
			<path class="st2" d="M259.401,21.562c-8.384,0.693-14.619,8.052-13.926,16.436c0.427,5.168,3.397,9.505,7.569,11.921     c-2.26,6.257-5.002,16.404-6.654,28.202c-2.866,19.943-1.437,36.308,0.039,36.27c1.597-0.004,2.669-16.015,5.472-35.488     c1.563-11.187,3.352-21.1,4.307-27.616c1.796,0.55,3.715,0.801,5.701,0.637c8.384-0.693,14.619-8.051,13.926-16.435     S267.785,20.869,259.401,21.562z"/>
			<path class="st2" d="M315.117,38.709c-8.384,0.693-14.619,8.051-13.926,16.435c0.325,3.936,2.156,7.361,4.835,9.855     c-3.965,4.149-9.651,11.614-14.375,21.235c-7.832,15.725-9.52,30.042-8.084,30.285c1.578,0.359,5.583-12.812,13.074-27.818     c4.49-9.166,9.212-16.876,11.95-21.754c2.633,1.572,5.746,2.395,9.035,2.123c8.384-0.693,14.619-8.051,13.926-16.435     C330.859,44.251,323.501,38.016,315.117,38.709z"/>
		</g>
		<g>
			<path class="st3" d="M304.685,98.209c-22.852,3.626-41.842,24.294-43.527,47.37c0.924-15.878-3.28-32.392-13.483-44.593     s-26.782-19.411-42.418-16.504c-24.016,4.465-34.984,32.307-32.444,54.468c-11.014-10.214-22.362-20.644-36.291-26.267     c-13.93-5.623-31.22-5.476-42.626,4.299c-13.887,11.9-14.545,32.909-12.838,51.117c3.445,36.743,12.375,73.746,32.404,104.742     c25.081,38.814,68.228,64.384,114.925,63.523c50.487-0.93,95.176-36.426,118.752-79.643     c11.419-20.931,13.955-41.777,17.966-64.697C372.086,152.14,357.404,89.842,304.685,98.209z"/>
		</g>
		<g>
			<path class="st4" d="M232.492,330.835c-2.341-30.905-5.184-68.43-8.326-109.908c-3.137-41.477-5.975-79.001-8.312-109.906     c-0.81-9.886-1.547-18.876-2.225-27.145c-0.572-0.019-1.145-0.019-1.718-0.014c0.297,7.28,0.743,16.503,1.324,27.332     c1.51,28.177,3.983,67.08,7.23,110.014c3.252,42.935,6.664,81.768,9.412,109.851c0.175,1.787,0.347,3.528,0.515,5.225     c0.824-0.03,1.65-0.05,2.471-0.098C232.74,334.411,232.619,332.668,232.492,330.835z"/>
			<path class="st4" d="M161.489,135.841c-0.227-2.636-0.419-5.144-0.594-7.578c-0.827-0.698-1.667-1.375-2.506-2.055     c0.115,3.102,0.273,6.378,0.483,9.83c1.51,26.834,7.205,63.728,18.08,103.266c10.36,37.774,22.686,71.164,32.179,95.868     c1.007,0.139,2.011,0.283,3.023,0.397c-8.952-25.027-21.127-58.979-31.621-97.241     C169.716,198.991,163.66,162.465,161.489,135.841z"/>
			<path class="st4" d="M172.508,314.822c-2.119-2.875-4.066-6.051-6.228-9.232c-4.421-6.306-8.456-13.478-12.867-20.916     c-8.359-15.14-16.561-32.336-23.448-51.079c-6.696-18.811-11.39-37.275-14.65-54.259c-1.367-8.538-2.853-16.632-3.488-24.307     c-0.373-3.828-0.908-7.514-1.118-11.08c-0.189-3.499-0.374-6.919-0.555-10.261c-0.519-6.538-0.293-12.465-0.362-17.673     c0.006-2.268-0.033-4.374-0.009-6.361c-0.614,0.114-1.224,0.239-1.83,0.381c-0.096,1.865-0.15,3.822-0.235,5.931     c-0.128,5.237-0.539,11.211-0.186,17.808c0.104,3.376,0.211,6.828,0.32,10.362c0.137,3.603,0.603,7.329,0.914,11.201     c0.51,7.762,1.893,15.954,3.184,24.598c3.106,17.194,7.755,35.899,14.527,54.921c6.962,18.953,15.355,36.304,23.966,51.509     c4.538,7.471,8.714,14.652,13.288,20.945c2.238,3.175,4.263,6.337,6.462,9.194c2.177,2.786,4.304,5.508,6.383,8.17     c0.597,0.801,1.202,1.54,1.805,2.299c1.486,0.602,3.004,1.123,4.512,1.67c-1.413-1.76-2.838-3.588-4.245-5.58     C176.646,320.38,174.601,317.633,172.508,314.822z"/>
			<path class="st4" d="M262.751,287.308c3.123-16.884,4.971-35.693,5.746-55.44c0.721-19.745,0.549-38.536,0.471-55.597     c-0.099-17.062-0.076-32.41,0.339-45.285c0.104-3.383,0.227-6.584,0.362-9.612c-0.973,1.462-1.851,2.981-2.676,4.528     c-0.107,1.615-0.211,3.268-0.307,4.971c-0.753,12.919-1.048,28.321-1.137,45.396c-0.109,17.074-0.042,35.827-0.76,55.457     c-0.77,19.617-2.499,38.254-5.403,54.981c-2.9,16.725-6.859,31.533-11.292,43.572c-0.532,1.458-1.067,2.874-1.601,4.254     c0.985-0.18,1.962-0.386,2.94-0.591c0.373-0.906,0.745-1.799,1.117-2.739C255.355,319.13,259.633,304.19,262.751,287.308z"/>
			<path class="st4" d="M287.048,304.81c3.885-7.379,7.26-15.62,10.966-24.227c6.911-17.412,13.343-37.043,18.138-58.15     c4.596-21.151,7.084-41.658,8.199-60.357c0.288-9.366,0.722-18.261,0.328-26.591c-0.14-4.162-0.106-8.187-0.389-12.042     c-0.303-3.787-0.599-7.479-0.887-11.08c-0.303-5.164-0.976-9.918-1.604-14.282c-0.749-0.12-1.508-0.22-2.278-0.305     c0.503,4.505,1.08,9.431,1.265,14.79c0.209,3.579,0.423,7.248,0.643,11.011c0.206,3.829,0.1,7.824,0.172,11.952     c0.26,8.262-0.288,17.076-0.665,26.351c-1.293,18.519-3.858,38.804-8.407,59.748c-4.75,20.9-11.018,40.363-17.691,57.687     c-3.587,8.561-6.825,16.778-10.559,24.152c-1.814,3.709-3.41,7.373-5.218,10.754c-1.793,3.316-3.541,6.549-5.246,9.702     c-0.49,0.961-0.996,1.859-1.496,2.776c1.322-0.564,2.633-1.152,3.937-1.759c1.738-3.055,3.515-6.178,5.34-9.385     C283.483,312.182,285.158,308.521,287.048,304.81z"/>
		</g>
		<g>
			<path class="st5" d="M232.63,416.312c28.086-44.36,76.944-74.929,129.12-80.786c17.651-1.982,36.001-1.186,52.423,5.581     c6.346,2.615,12.694,6.474,15.595,12.694c8.939,19.17-18.676,45.751-31.945,56.714c-17.167,14.184-38.212,23.519-59.464,28.741     c-35.104,8.624-68.296,6.476-101.575-7.883"/>
		</g>
		<g>
			<path class="st6" d="M388.071,370.583c2.844-1.697,5.228-3.264,7.149-4.587c3.86-2.618,5.923-4.165,5.786-4.382     c-0.321-0.51-9.138,4.793-23.877,12.364c-5.158,2.672-11.117,5.557-17.651,8.55c1.791-3.436,4.672-9.914,8.599-17.006     c5.809-10.652,11.735-18.623,10.917-19.323c-0.71-0.665-8.134,6.484-14.169,17.535c-4.687,8.479-6.975,16.394-7.355,19.713     c-2.155,0.976-4.355,1.96-6.631,2.955c-10.063,4.297-21.261,8.697-33.219,12.745c-0.193,0.064-0.38,0.12-0.573,0.183     c1.757-4.741,4.54-12.877,8.705-21.706c6.489-14.019,13.88-24.29,13.013-24.965c-0.704-0.64-9.655,8.902-16.375,23.394     c-4.659,9.896-6.866,19.101-7.493,23.966c-11.005,3.574-21.655,6.555-31.461,8.993c-2.851,0.683-5.618,1.319-8.318,1.922     c1.653-3.97,4.419-12.192,8.445-21.353c5.627-13.007,11.618-22.919,10.724-23.529c-0.775-0.581-8.324,8.651-14.126,22.045     c-4.402,10.031-6.417,19.187-6.746,23.205c-6.707,1.473-12.938,2.711-18.444,3.653c-16.323,2.848-26.554,3.934-26.502,4.535     c0.021,0.255,2.6,0.245,7.258,0.006c2.331-0.103,5.178-0.291,8.469-0.652c3.293-0.345,7.056-0.665,11.179-1.296     c5.395-0.7,11.488-1.715,18.026-2.978c2.081,2.764,10.173,10.118,21.979,15.528c14.253,6.654,27.183,7.317,27.222,6.376     c0.175-1.097-12.017-3.355-25.664-9.745c-10.357-4.733-18.372-10.354-21.985-12.456c3.004-0.593,6.075-1.226,9.266-1.932     c10.756-2.48,22.486-5.654,34.582-9.675c12.074-4.087,23.346-8.628,33.422-13.136c2.41-1.103,4.743-2.201,7.012-3.29     c2.176,2.082,9.277,6.555,18.8,9.348c11.873,3.561,22.031,2.87,22.002,1.906c0.042-1.085-9.624-2.055-20.946-5.464     c-8.271-2.417-15.055-5.417-18.366-6.519c6.573-3.191,12.531-6.303,17.648-9.221C382.04,374.308,385.235,372.293,388.071,370.583     z"/>
			<path class="st6" d="M341.563,413.725c-14.753-4.507-25.887-10.495-26.443-9.546c-0.544,0.779,10.079,8.415,25.345,13.091     c15.238,4.767,28.318,4.467,28.31,3.517C368.853,419.689,356.283,418.341,341.563,413.725z"/>
		</g>
		<path class="st7" d="M229.909,321.83c0,0,3.716,95.961-36.714,150.875c-2.221,3.017-2.213,7.133-0.131,10.248    c3.109,4.652,8.81,10.035,18.125,8.607c2.846-0.436,5.331-2.18,6.697-4.715c8.493-15.754,40.912-83.286,23.481-167.706"/>
		<g>
			<g>
				
					<ellipse transform="matrix(0.9966 -0.0824 0.0824 0.9966 -14.8911 16.9459)" class="st1" cx="197.859" cy="188.883" rx="8.906" ry="16.291"/>
				<path class="st1" d="M259.914,183.762c0.741,8.967-2.632,16.564-7.534,16.97c-4.902,0.405-9.476-6.536-10.217-15.503      c-0.741-8.967,2.632-16.564,7.534-16.969C254.598,167.854,259.173,174.795,259.914,183.762z"/>
			</g>
			<g>
				<path class="st1" d="M286.798,173.532c-1.201-0.195-1.663,10.28-9.631,24.031c-4.014,6.753-9.98,14.191-18.365,20.147      c-8.295,6.001-19.176,10.124-30.98,11.117c-11.811,0.907-23.21-1.423-32.358-6.02c-9.229-4.539-16.308-10.927-21.349-16.951      c-10.065-12.3-12.196-22.567-13.35-22.182c-0.395,0.089-0.384,2.711,0.835,7.245c1.208,4.518,3.794,10.927,8.669,17.886      c4.912,6.87,12.255,14.262,22.315,19.622c10.003,5.435,22.703,8.251,35.789,7.232c13.08-1.087,25.167-5.897,34.173-12.862      c9.074-6.9,15.14-15.371,18.891-22.939c3.7-7.649,5.227-14.389,5.697-19.043C287.61,176.147,287.202,173.557,286.798,173.532z"/>
			</g>
		</g>
		<g>
			<path class="st7" d="M229.87,344.06c-24.4-0.22-48.724-6.482-70.197-18.072c-5.817-3.14-12.259-8.502-10.704-14.927     c1.435-5.929,8.696-8.105,14.784-8.478c13.895-0.852,28.008,2.226,40.287,8.785c-5.993-12.035-7.786-26.112-5-39.266     c0.959-4.53,3.203-9.661,7.75-10.532c4.49-0.86,8.427,2.955,11.17,6.613c8.39,11.192,14.248,24.271,17.01,37.983     c2.14-15.438,9.962-30.025,21.638-40.349c4.195-3.709,10.565-6.918,15.058-3.576c2.939,2.186,3.624,6.267,3.715,9.929     c0.285,11.409-3.015,22.882-9.317,32.397c11.121-11.467,26.24-18.98,42.095-20.918c5.353-0.654,11.797-0.177,14.636,4.408     c1.882,3.039,1.472,7.075-0.178,10.246c-1.649,3.171-4.359,5.643-7.088,7.951c-22.94,19.402-51.42,32.177-81.165,36.409"/>
		</g>
	</g>
</g>
</svg>
