<?xml version="1.0" encoding="UTF-8"?>
<!-- Generator: Adobe Illustrator 25.2.1, SVG Export Plug-In . SVG Version: 6.00 Build 0)  -->
<svg xmlns="http://www.w3.org/2000/svg" xmlns:xlink="http://www.w3.org/1999/xlink" version="1.1" id="Capa_1" x="0px" y="0px" viewBox="0 0 512 512" style="enable-background:new 0 0 512 512;" xml:space="preserve" width="512" height="512">
<g>
	<path style="fill:#FFFFFF;" d="M466.47,103.68c-0.424-0.454-0.856-0.903-1.293-1.346c2.904-18.22-0.72-34.594-10.504-46.179   c-4.75-5.628-13.789-12.336-29.856-12.336c-2.826,0-5.778,0.211-8.771,0.626c-2.543-16.178-9.564-32.981-28.459-41.203   c-4.114-1.789-8.665-2.697-13.529-2.697c-14.347,0-28.487,8.08-33.902,11.554c-1.182,0.759-2.806,1.846-4.682,3.226   C327.973,6.405,317.637,0,304.552,0c-2.296,0-4.627,0.213-6.93,0.635c-10.412,1.912-27.421,8.445-37.624,30.28   c-8.324,0.913-15.085,7.086-16.827,15.182c-1.828-1.39-3.909-2.457-6.154-3.13c-0.129-0.039-0.255-0.077-0.384-0.114   c-6.137-15.004-16.362-25.769-29.144-30.3c-10.602-3.76-22.987-1.293-34.483,7.003c-8.354-9.67-19.6-17.71-35.132-17.71   c-1.651,0-3.331,0.1-4.995,0.297c-18.224,2.168-29.598,20.851-33.644,28.786c-0.343,0.674-0.755,1.509-1.21,2.484   c-3.826-1.148-7.801-1.802-11.834-1.802c-8.68,0-16.716,2.963-23.239,8.569C52.85,48.864,47.501,62.667,47.375,79.845   c-6.9,5.681-9.102,15.504-4.978,23.689c10.109,20.062,16.537,37.084,20.226,53.565c0.707,3.157,1.379,6.348,2.053,9.551   c0.983,4.667,1.998,9.493,3.117,14.222c0.015,0.069,0.053,0.237,0.071,0.306c0.487,2.061,1,4.114,1.523,6.094l0.154,0.572   l18.711-5.105l-18.638,5.377c0.482,1.796,0.99,3.581,1.551,5.445l0.298,0.996c0.626,2.038,1.293,4.061,2.015,6.099l0.313,0.855   c0.636,1.746,1.311,3.475,2.035,5.23l0.596,1.424c0.955,2.225,1.866,4.192,2.733,5.912c0.152,0.307,0.313,0.614,0.379,0.727   c0.889,1.736,1.849,3.475,2.932,5.312c0.301,0.509,0.606,1.016,0.932,1.548c1.351,2.191,2.558,4.009,3.809,5.738   c0.353,4.018,1.914,9.1,6.508,14.095c7.324,7.948,17.12,14.082,28.51,18.071c-14.476,0.284-28.558,3.033-41.897,8.186   c-7.011,2.71-16.918,7.588-21.949,18.594c-2.955,6.46-5.018,17.164,1.937,31.476c13.453,27.701,43.781,47.085,79.15,50.589   c4.296,0.426,8.733,0.641,13.188,0.641c20.777,0,40.816-4.689,57.517-9.779c7.124,6.291,14.734,11.983,22.769,17.034   c-3.541,38.926-1.429,76.836,6.304,112.874c1.978,9.213,8.435,16.615,17.264,19.797c5.543,2.004,11.175,3.019,16.736,3.019   c10.576,0,20.33-3.724,28.199-10.76c8.215-7.335,11.107-19.254,7.198-29.654c-2.371-6.311-7.347-20.99-11.072-41.684   c22.285-1.039,47.926-4.523,72.435-15.143c38.781-16.803,66.073-49.633,71.225-85.679c2.028-14.192-0.808-25.63-8.433-33.999   c-8.948-9.819-21.239-11.613-29.704-12.109c-8.67-0.508-17.486-0.217-26.139,0.842c1.639-0.81,3.306-1.681,4.897-2.576   c5.033-2.834,18.173-10.229,18.519-24.185c0.667-0.634,1.321-1.277,1.967-1.928l0.755-0.774c1.013-1.042,2.008-2.109,2.95-3.162   l0.854-0.96c1.013-1.157,2-2.34,2.998-3.586l0.505-0.625c1.154-1.465,2.273-2.962,3.359-4.502c0.048-0.07,0.111-0.162,0.174-0.254   c0.967-1.383,1.904-2.801,2.836-4.275l0.806-1.317c0.687-1.121,1.356-2.258,1.957-3.332c0.311-0.547,0.616-1.099,0.927-1.673   c0.624-1.153,1.222-2.322,1.758-3.407l0.131-0.26c0.222-0.441,0.445-0.883,0.659-1.336c0.798-1.673,1.566-3.369,2.301-5.128   c0.828-1.989,1.634-4.129,2.535-6.73c0.27-0.779,0.533-1.561,0.793-2.356c0.442-1.355,0.861-2.718,1.258-4.052   c1.849-6.212,3.301-12.37,4.703-18.325c1.889-8.016,3.672-15.587,6.23-22.532c4.958-13.475,13.314-25.569,24.164-34.975   c3.978-3.45,6.384-8.368,6.662-13.627C471.932,112.678,470.061,107.531,466.47,103.68z"/>
	<g>
		<g>
			<path style="fill:#D18E22;" d="M98.411,143.021c-14.629-9.997-24.961-25.749-29.165-42.887     c-3.236-13.193-5.175-35.339,6.352-45.247c11.714-10.069,29.569,1.488,36.476,11.592c-4.116-6.021,1.611-21.192,4.44-26.741     c3.305-6.483,10.671-17.385,18.657-18.335c18.341-2.18,28.991,18.096,36.5,31.329c-2.094-3.69,8.87-14.486,11.279-16.384     c4.779-3.765,11.847-7.718,18.056-5.516c16.588,5.883,23.702,31.357,21.972,46.847"/>
		</g>
		<g>
			<path style="fill:#FEC400;" d="M239.916,153.273c-2.142-15.892-9.096-30.776-11.905-46.564     c-2.673-15.023-1.48-30.718,3.432-45.165c-13.069-3.921-27.97-1.102-38.703,7.324c-10.733,8.425-17.01,22.23-16.305,35.857     c-3.81-15.632-11.511-30.299-22.216-42.31c-3.98-4.466-9.017-8.844-15-8.802c-7.322,0.051-12.856,6.654-16.112,13.212     c-8.608,17.339-8.608,38.703,0.002,56.04c-6.76-8.78-14.275-23.853-24.55-28.482c-11.355-5.115-27.922-6.354-38.842,0.424     c9.28,18.414,17.276,37.707,21.833,58.056c4.845,21.636,8.024,44.819,21.405,63.218c19.822,27.258,54.934,32.676,85.154,21.004     C222.609,223.759,245.003,191.024,239.916,153.273z"/>
		</g>
		<g>
			<g>
				<path style="fill:#D18E22;" d="M140.428,148.436c1.611,6.014,0.4,11.564-2.704,12.396c-3.105,0.832-6.928-3.37-8.539-9.384      c-1.611-6.014-0.4-11.564,2.705-12.396C134.994,138.221,138.817,142.422,140.428,148.436z"/>
				<path style="fill:#D18E22;" d="M185.749,136.296c1.611,6.014,0.4,11.564-2.704,12.396c-3.105,0.832-6.928-3.37-8.539-9.384      c-1.611-6.014-0.4-11.564,2.705-12.396C180.315,126.081,184.138,130.282,185.749,136.296z"/>
			</g>
			<g>
				<path style="fill:#D18E22;" d="M169.014,141.265c-0.604,0.266,0.143,2.542-0.528,5.866c-0.345,1.636-1.058,3.517-2.374,5.123      c-1.278,1.602-3.266,2.881-5.599,3.482c-2.34,0.573-4.696,0.385-6.58-0.423c-1.919-0.794-3.436-2.114-4.513-3.394      c-2.162-2.612-2.579-4.971-3.237-4.92c-0.512-0.059-1.332,2.707,0.655,6.605c1,1.876,2.73,3.947,5.364,5.334      c2.629,1.419,6.08,1.85,9.373,1.026c3.292-0.83,6.13-2.84,7.776-5.333c1.665-2.468,2.213-5.11,2.207-7.236      C171.467,143.021,169.437,140.972,169.014,141.265z"/>
			</g>
		</g>
		<g>
			<path style="fill:#F4A32C;" d="M127.932,177.075c-7.705-13.188-24.642-17.633-37.83-9.928c-1.738,1.015-3.314,2.199-4.74,3.506     c3.51,16.049,7.838,32.01,17.595,45.427c0.646,0.888,1.31,1.751,1.988,2.593c4.456-0.14,8.941-1.361,13.06-3.768     C131.192,207.201,135.637,190.263,127.932,177.075z"/>
			<path style="fill:#F4A32C;" d="M209.951,138.316c-13.188,7.705-17.633,24.642-9.928,37.831     c7.581,12.975,24.09,17.46,37.181,10.264c3.224-10.284,4.283-21.47,2.711-33.138c-0.717-5.322-1.994-10.527-3.455-15.695     C228.353,133.452,218.39,133.386,209.951,138.316z"/>
		</g>
		<g>
			<path style="fill:#43AA99;" d="M166.419,244.715c-19.202,2.715-44.659-1.405-58.443-16.362c-0.767-0.832-1.503-1.837-1.457-2.968     c0.241-5.875,19.944-4.168,23.415-3.592c9.173,1.523,17.818,5.229,26.359,8.904c-6.727-2.894-11.068-16.722-12.325-23.096     c-1.214-6.155-2.514-29.569,9.802-23.883c11.668,5.388,17.465,27.541,21.077,38.459c0.637-15.348,6.411-30.44,16.181-42.294     c1.762-2.137,4.099-4.354,6.85-4.04c3.957,0.451,5.352,5.463,5.464,9.445c0.365,12.918-2.803,25.918-9.07,37.219     c10.565-12.451,24.999-21.572,40.781-25.767c11.273-2.997-2.665,16.369-4.995,19.043c-11.102,12.738-27.475,20.137-42.992,26.07     c-4.274,1.634-10.634,5.453-15.228,3.788"/>
		</g>
		<g>
			<path style="fill:#C851A0;" d="M278.792,127.347c-9.242-26.011-18.448-100.151,22.334-107.635     c17.506-3.211,28.551,18.664,29.549,32.73c-0.595-8.382,13.919-20.145,19.958-24.02c7.055-4.528,20.72-11.092,29.214-7.395     c19.511,8.491,18.321,34.849,18.1,52.376c0.062-4.887,17.242-9.255,20.741-9.743c6.942-0.968,16.27-0.792,21.166,5.007     c13.082,15.493,5.353,44.967-5.371,59.37"/>
		</g>
		<g>
			<path style="fill:#D86FAC;" d="M407.401,213.079c7.106-17.054,8.838-35.9,15.22-53.238c6.072-16.498,16.38-31.417,29.663-42.933     c-10.722-11.496-27.183-17.351-42.756-15.208c-15.573,2.143-29.84,12.227-37.058,26.192c5.295-17.763,6.159-36.83,2.491-54.999     c-1.364-6.756-3.83-14.038-9.805-17.473c-7.312-4.204-16.655-0.852-23.705,3.779c-18.64,12.245-31.055,33.497-32.567,55.747     c-1.622-12.663-0.337-32.024-7.868-42.6c-8.323-11.688-24.082-22.548-38.884-22.153c-1.471,23.71-4.729,47.549-12.023,70.439     c-7.755,24.338-18.065,49.247-15.449,75.325c3.876,38.635,35.654,64.43,72.499,70.383     C349.221,273.136,390.522,253.587,407.401,213.079z"/>
		</g>
		<g>
			<path style="fill:#235E54;" d="M271.422,395.522c7.773-27.833,25.307-52.836,48.827-69.626     c23.52-16.79,52.863-25.251,81.712-23.56c5.975,0.35,12.469,1.387,16.5,5.812c4.304,4.723,4.474,11.865,3.569,18.19     c-4.56,31.895-30.172,57.817-59.735,70.626c-29.564,12.809-62.678,14.497-94.89,13.83"/>
		</g>
		<g>
			<path style="fill:#235E54;" d="M211.204,325.507c-12.892-19.573-32.623-34.544-54.944-41.69     c-22.321-7.146-47.078-6.417-68.94,2.029c-4.528,1.749-9.286,4.157-11.305,8.572c-2.155,4.713-0.518,10.271,1.746,14.932     c11.416,23.505,37.613,37.186,63.616,39.761c26.003,2.576,51.997-4.317,76.71-12.805"/>
		</g>
		<g>
			<path style="fill:#43AA99;" d="M386.881,349.027c-5.391-0.563-10.101-1.475-12.953-1.883c3.11-2.48,5.975-4.863,8.532-7.102     c2.7-2.261,5.008-4.461,7.068-6.352c2.068-1.881,3.781-3.575,5.153-4.989c2.761-2.808,4.216-4.428,4.072-4.578     c-0.337-0.354-6.744,5.515-17.653,14.286c-2.897,2.344-6.157,4.873-9.691,7.525c1.072-3.072,2.571-8.015,4.542-13.495     c3.254-9.191,6.597-16.42,5.842-16.84c-0.685-0.407-5.317,6.362-8.673,15.83c-2.448,6.818-3.489,12.952-3.586,15.896     c-2.565,1.903-5.226,3.847-8.061,5.858c-7.207,5.024-15.263,10.306-23.923,15.481c1.042-4.571,2.572-12.158,4.877-20.612     c3.678-13.747,7.982-24.522,7.18-24.882c-0.699-0.349-6.325,10.068-10.083,24.099c-2.58,9.471-3.588,17.931-3.732,22.446     c-9.062,5.281-17.919,9.924-26.098,13.92c-4.72,2.258-9.175,4.292-13.36,6.128c1.346-3.289,3.963-12.635,7.601-23.466     c4.527-13.63,8.95-24.448,8.165-24.815c-0.712-0.352-6.422,10.036-11.017,23.863c-3.936,11.724-5.733,21.922-5.711,24.836     c-2.85,1.241-5.597,2.407-8.128,3.427c-12.967,5.271-21.21,8.018-21.064,8.484c0.061,0.198,2.184-0.286,5.98-1.334     c1.902-0.511,4.215-1.185,6.864-2.078c2.653-0.881,5.698-1.829,8.986-3.089c2.495-0.894,5.196-1.94,7.99-3.058     c2.171,1.772,10.051,6.072,20.379,8.759c12.439,3.31,22.961,2.828,22.943,2.054c0.039-0.886-10.13-1.748-22.178-4.962     c-9.081-2.357-16.577-5.348-19.906-6.348c4.279-1.737,8.828-3.691,13.642-5.898c7.911-3.706,16.433-8.082,25.12-13.086     c0.032,0.058,0.065,0.111,0.103,0.114c0.087,0.009,0.185-0.126,0.289-0.336c0.366-0.212,0.728-0.407,1.094-0.621     c3.151,2.445,9.688,6.4,18.162,8.953c12.401,3.835,23.047,2.843,22.964,2.088c0.014-0.903-10.214-1.277-22.086-4.963     c-7.582-2.275-13.85-5.286-17.539-6.981c8.771-5.246,16.888-10.665,24.097-15.868c3.338-2.452,6.455-4.835,9.391-7.148     c2.405,1.25,7.657,3.051,14.084,3.728c9.041,1.001,16.313-0.67,16.182-1.449C402.638,349.703,395.515,349.991,386.881,349.027z"/>
			<path style="fill:#43AA99;" d="M191.385,327.309c-0.704-2.256-4.617-9.687-10.558-17.768     c-6.971-9.542-13.952-16.151-14.415-15.703c-0.515,0.478,5.578,7.738,12.449,17.144c5.49,7.465,9.825,14.036,11.678,16.243     c-10.104-1.038-22.358-2.805-35.438-5.718c-1.229-3.451-4.102-9.735-8.438-16.412c-6.375-9.906-13.299-16.559-13.752-16.117     c-0.53,0.477,5.461,7.733,11.704,17.44c3.873,5.96,6.934,11.442,8.87,14.714c-11.132-2.571-21.337-5.62-29.992-8.567     c-0.798-2.243-3.108-6.715-6.697-11.389c-4.935-6.482-10.189-10.563-10.617-10.08c-0.479,0.511,3.892,5.267,8.68,11.561     c2.888,3.757,5.265,7.196,6.853,9.302c-3.387-1.176-6.532-2.329-9.353-3.416c-10.596-4.074-16.997-7.021-17.17-6.664     c-0.074,0.152,1.451,1.043,4.278,2.528c2.816,1.508,6.996,3.482,12.245,5.735c2.529,1.09,5.33,2.225,8.345,3.374     c-2.101,1.02-5.513,2.891-9.536,4.66c-6.43,2.881-12.002,4.422-11.867,5.115c0.091,0.634,6.121,0.124,12.856-2.887     c4.815-2.121,8.406-4.809,9.944-6.367c8.939,3.341,19.724,6.75,31.57,9.491c-2.429,2.223-6.524,6.099-11.816,9.732     c-8.257,5.785-16.064,8.606-15.829,9.3c0.123,0.604,8.59-1.265,17.219-7.296c5.913-4.069,9.983-8.742,11.811-11.41     c0.337,0.075,0.666,0.137,1.002,0.211c0.131,0.135,0.24,0.214,0.304,0.186c0.028-0.011,0.04-0.06,0.051-0.111     c12.766,2.773,24.737,4.327,34.637,5.067c-2.322,1.595-7.37,5.759-13.803,9.829c-8.509,5.464-16.15,8.646-15.9,9.321     c0.177,0.602,8.423-1.63,17.211-7.265c7.364-4.665,12.361-9.939,13.554-11.811c2.442,0.171,4.793,0.308,6.946,0.386     c5.708,0.215,10.331,0.223,13.521,0.068c3.191-0.13,4.951-0.282,4.949-0.45c-0.003-0.396-7.049-0.477-18.369-1.339     C196.305,327.778,193.894,327.559,191.385,327.309z"/>
		</g>
		<path style="fill:#43AA99;" d="M164.115,233.786c0,0,11.193,93.658,93.29,134.063l6.939-24.69c0,0-64.058-13.91-89.783-115.557"/>
		<path style="fill:#43AA99;" d="M285.359,250.413c0,0-54.135,108.937-27.151,234.699c0.555,2.587,2.399,4.729,4.888,5.628    c5.681,2.051,16.346,4.156,25.431-3.966c2.334-2.087,3.057-5.439,1.957-8.369c-7.894-21.014-38.156-115.352,8.382-222.095"/>
		<g>
			<g>
				<path style="fill:#9B377E;" d="M311.248,150.447c-1.893,6.919-6.322,11.736-9.894,10.759c-3.572-0.977-4.933-7.378-3.04-14.297      c1.893-6.919,6.323-11.736,9.894-10.759C311.78,137.127,313.141,143.528,311.248,150.447z"/>
				<path style="fill:#9B377E;" d="M363.386,164.711c-1.893,6.919-6.323,11.736-9.894,10.759c-3.572-0.977-4.933-7.378-3.04-14.297      c1.893-6.919,6.323-11.736,9.894-10.759C363.918,151.39,365.279,157.791,363.386,164.711z"/>
			</g>
			<g>
				<path style="fill:#9B377E;" d="M343.851,159.927c-0.755-0.087-1.334,2.612-3.934,5.528c-1.293,1.428-3.096,2.884-5.339,3.717      c-2.202,0.85-4.923,0.968-7.593,0.209c-2.661-0.79-4.896-2.346-6.3-4.245c-1.447-1.905-2.189-4.1-2.517-5.999      c-0.633-3.855,0.324-6.444-0.361-6.775c-0.475-0.356-2.899,1.918-3.187,6.951c-0.096,2.447,0.422,5.512,2.236,8.424      c1.79,2.939,4.972,5.374,8.727,6.468c3.757,1.088,7.748,0.737,10.835-0.786c3.091-1.487,5.171-3.797,6.401-5.916      C345.271,163.1,344.443,159.881,343.851,159.927z"/>
			</g>
		</g>
		<g>
			<path style="fill:#C851A0;" d="M282.173,171.673c0-17.597-14.265-31.862-31.862-31.862c-2.319,0-4.575,0.262-6.753,0.733     c-5.836,18.005-10.806,36.397-8.898,55.414c0.126,1.259,0.286,2.503,0.47,3.735c4.513,2.45,9.684,3.842,15.181,3.842     C267.908,203.535,282.173,189.27,282.173,171.673z"/>
			<path style="fill:#C851A0;" d="M386.287,180.786c-17.597,0-31.862,14.265-31.862,31.862c0,17.312,13.816,31.369,31.02,31.819     c9.184-8.357,16.739-18.868,21.956-31.388c2.38-5.711,4.135-11.631,5.685-17.62C407.42,186.642,397.547,180.786,386.287,180.786z     "/>
		</g>
		<g>
			<path style="fill:#43AA99;" d="M281.148,261.325c-20.678-8.459-43.607-27.352-48.626-50.241c-0.279-1.274-0.428-2.7,0.276-3.798     c3.654-5.704,22.261,7.444,25.38,10.035c8.24,6.846,14.685,15.557,21.045,24.177c-5.009-6.789-1.291-23.067,1.163-30.137     c2.369-6.827,14.684-30.875,23.631-18.06c8.475,12.14,1.367,37.547-1.385,50.506c9.554-14.898,24.067-26.554,40.676-32.667     c2.994-1.102,6.607-1.949,9.162-0.038c3.674,2.748,2.148,8.545-0.054,12.57c-7.144,13.062-17.851,24.153-30.653,31.752     c17.746-6.246,37.405-6.93,55.541-1.931c12.955,3.57-12.164,14.735-16.036,16.04c-12.926,4.357-26.59,4.48-40.011,3.222     c-11.97-1.121-24.284-1.893-35.255-7.358"/>
		</g>
	</g>
</g>















</svg>
