<?xml version="1.0" encoding="UTF-8"?>
<!-- Generator: Adobe Illustrator 25.2.1, SVG Export Plug-In . SVG Version: 6.00 Build 0)  -->
<svg xmlns="http://www.w3.org/2000/svg" xmlns:xlink="http://www.w3.org/1999/xlink" version="1.1" id="Capa_1" x="0px" y="0px" viewBox="0 0 512 512" style="enable-background:new 0 0 512 512;" xml:space="preserve" width="512" height="512">
<g>
	<path style="fill:#FFFFFF;" d="M329.964,393.174l-1.354-2.173c6.582,0.169,12.723-3.684,15.253-9.947   c8.242-20.417,16.263-41.955,23.846-64.037l0.821-2.344c2.628-7.701,5.18-15.391,7.583-22.856c1.241-3.853,0.95-7.965-0.695-11.533   c3.338-1.96,5.954-5.127,7.157-9.061c2.359-7.707,4.76-15.83,7.557-25.552l1.216-4.234c0.662-2.296,1.325-4.592,1.962-6.885   c4.623-16.568,8.662-33.331,11.991-49.759l0.098-0.495c1.966-9.735,3.706-19.423,5.173-28.795c0.468-2.996,0.064-5.96-1.043-8.605   c1.793-2.218,3.012-4.94,3.402-7.957c1.536-11.871,2.741-24.18,3.582-36.583l0.209-2.922c1.533-24.434,1.483-48.592-0.155-71.803   C416.085,20.799,414.62,0,391.62,0c-1.7,0-3.564,0.109-5.695,0.332C370.15,1.987,353.477,8.1,333.448,19.573   c-0.897,0.514-1.793,1.03-2.69,1.556c-8.02,4.709-15.612,9.64-22.954,14.408c-3.418,2.219-6.755,4.389-10.007,6.446   c-4.407,2.791-8.824,5.711-13.131,8.682c-3.371,2.326-5.666,5.821-6.513,9.715c-3.861-0.342-7.849,0.724-11.132,3.265   c-9.094,7.038-18.06,14.618-26.667,22.547l-0.151,0.142c-0.005,0.004-0.011,0.009-0.015,0.013   c-1.867,1.721-3.715,3.458-5.559,5.224l-2.867,2.784c-2.292,2.241-4.567,4.498-6.815,6.803c-0.378,0.388-0.75,0.783-1.123,1.177   l-0.635,0.671c-1.906,1.979-3.808,3.961-5.67,5.979c-0.719,0.778-1.422,1.568-2.128,2.358l-2.157,2.4   c-1.001,1.104-2,2.209-2.974,3.325c-2.403,2.752-4.787,5.56-7.084,8.348c-4.625,5.611-9.427,11.217-14.072,16.638   c-4.17,4.869-8.327,9.723-12.414,14.636l-2.914,3.525c-0.888,1.071-1.777,2.141-2.652,3.228c-2.905,3.612-4.059,8.262-3.273,12.727   c-0.195,0.022-0.393,0.049-0.588,0.079c-4.35,0.66-8.231,3.092-10.723,6.718l-0.839,1.209c-0.626,0.892-1.247,1.786-1.86,2.713   c-8.662,13.112-17.117,27.347-25.155,42.34l-0.428,0.801c-5.501,10.305-10.79,20.911-15.717,31.529   c-1.185,2.556-2.417,5.384-3.762,8.644c-1.875,4.538-1.549,9.685,0.883,13.95c1.229,2.155,2.445,4.323,3.648,6.5   c-2.339,0.073-4.662,0.664-6.793,1.762c-4.185,2.159-7.2,6.063-8.229,10.659c-0.528,2.366-0.999,4.742-1.427,7.077l-0.047,0.262   c-0.115,0.61-0.228,1.223-0.333,1.842c-4.332,25.428-2.579,48.823,5.211,69.536c14.175,37.699,48.799,58.222,71.642,68.049   c-0.706,14.918-0.792,30.015-0.259,45.029c0.195,5.426,3.142,10.379,7.818,13.138c1.589,0.936,7.406,3.992,15.564,3.992   c4.951,0,9.771-1.114,14.325-3.309c5.646-2.721,9.168-8.502,8.994-14.767c-0.013-0.495-0.051-1.305-0.106-2.414   c-0.237-4.727-0.768-15.317-0.389-30.666c5.992,0.448,11.456,0.666,16.631,0.666c15.34,0,27.683-1.92,37.75-5.879   c2.148-0.848,4.372-1.796,6.826-2.914l1.056-0.479c2.121-0.99,4.245-2.053,6.314-3.16l0.987-0.537   c2.277-1.245,4.31-2.433,6.212-3.624c0.002,0,0.002-0.002,0.002-0.002c0.04-0.024,0.08-0.049,0.122-0.076   c2.042-1.285,4.108-2.683,6.143-4.154c0.107-0.075,0.249-0.177,0.32-0.229c1.949-1.42,3.915-2.96,5.839-4.571   c0.024-0.022,0.331-0.278,0.355-0.3c5.803-4.902,11.116-10.455,15.79-16.5c2.286-2.956,4.407-5.983,6.309-9.001   C333.189,404.919,333.2,398.35,329.964,393.174z"/>
	<g>
		<g>
			<g>
				<path style="fill:#43AA99;" d="M400.699,28.752c-0.777-11.02-2.075-13.757-13.113-12.599      c-15.703,1.648-31.364,8.692-46.227,17.206c0,0-1.054,2.022-1.443,2.247c-0.461,0.267-1.109-0.767-1.109-0.767      C327.35,41.563,316.4,49.036,306.31,55.423c-4.258,2.695-8.462,5.476-12.61,8.337c0.818,10.584,1.062,21.212,0.696,31.821      c-1.519-1.667-3.039-3.335-4.558-5.002c-0.643-0.705-1.11,1.172-1.753,0.467c-0.642-0.705-1.46-3.992-2.103-4.697      c-3.075-3.374-6.149-6.748-9.224-10.122c-10.831,8.38-21.223,17.348-31.111,26.82c-0.246,0.236-0.328,1.297-0.574,1.533      c-0.339,0.326-0.844-0.181-1.182,0.146c-10.039,9.739-19.544,20.013-28.443,30.809c-8.812,10.691-17.813,20.851-26.535,31.335      c-0.246,0.295,0.099,1.704-0.147,1.999c-0.323,0.389-1.227-0.334-1.548,0.056c-1.226,1.488-2.491,2.984-3.702,4.49      c5.253,13.303,10.506,26.606,15.759,39.909c-10.187-6.67-20.062-13.812-29.627-21.347c-0.844,1.228-1.71,2.427-2.537,3.679      c-8.779,13.294-16.89,27.017-24.415,41.056c-0.233,0.435,0.953,2.306,0.721,2.742c-0.209,0.392-1.836-0.652-2.043-0.26      c-5.061,9.555-9.854,19.252-14.404,29.057c-1.217,2.623-2.371,5.311-3.492,8.026c8.143,14.282,15.69,28.905,22.603,43.822      c-10.757-4.515-21.514-9.031-32.271-13.546c-0.427,1.899-0.82,3.805-1.179,5.717c-0.075,0.398,0.417,1.646,0.345,2.045      c-0.091,0.503-0.744,0.156-0.829,0.66c-3.503,20.612-2.874,41.787,4.433,61.218c11.176,29.721,39.747,50.091,68.376,61.22      c10.463,4.068,21.634,6.416,33.028,7.37c15.283,1.278,35.318,1.76,49.839-3.951c21.449-8.436,37.323-21.237,48.651-39.226      c-0.767-1.229-1.535-2.459-2.302-3.688c-0.217-0.347-2.165-0.306-2.382-0.653c-0.2-0.32,1.333-1.027,1.133-1.347      c-6.609-10.587-13.219-21.174-19.828-31.761c11.589,4.866,23.679,8.536,36.016,10.943c8.412-20.839,16.243-41.908,23.543-63.16      c0.126-0.367-2.235-0.414-2.109-0.782c0.151-0.44,2.788-1.2,2.938-1.64c2.561-7.503,5.057-15.028,7.488-22.574      c-7.542-8.1-15.084-16.2-22.626-24.3c9.673,1.308,19.346,2.616,29.02,3.924c2.438-7.97,4.816-15.958,7.126-23.965      c0.117-0.407-2.608-0.739-2.491-1.146c0.116-0.402,3.074-0.879,3.189-1.281c0.945-3.296,1.878-6.595,2.799-9.898      c4.486-16.081,8.422-32.336,11.742-48.721c0.08-0.394-1.737-0.449-1.657-0.844c0.071-0.354,2.038-1.047,2.108-1.401      c1.736-8.722,3.297-17.481,4.673-26.268c-3.724-1.419-7.456-2.947-11.085-4.595c0,0-2.753,0.196-3.517-0.163      c-0.673-0.317-0.742-1.869-0.742-1.869c-6.71-3.253-13.23-6.898-19.512-10.917c12.385,0.466,24.77,0.933,37.154,1.399      c1.532-11.833,2.718-23.712,3.526-35.621c0.034-0.507-1.656-0.652-1.623-1.16c0.028-0.437,1.781-1.238,1.808-1.675      C402.319,75.286,402.338,52.018,400.699,28.752z"/>
			</g>
		</g>
		<g>
			<path style="fill:#5ED3BD;" d="M205.42,421.616c0.162,0.707,31.924-5.944,70.943-14.854c13.932-3.181,26.895-6.219,37.811-8.844     c-0.416-0.666-0.831-1.332-1.247-1.997c-10.812,2.342-23.535,5.174-37.148,8.282C236.76,413.113,205.259,420.909,205.42,421.616z     "/>
			<path style="fill:#5ED3BD;" d="M179.594,403.576c4.748,5.581,8.654,10.044,11.423,13.068c2.763,3.029,4.355,4.647,4.493,4.53     c0.138-0.118-1.191-1.959-3.712-5.188c-3.425-4.32-6.985-8.812-10.771-13.588c-9.122-11.447-21.649-27.312-35.144-45.099     c-13.132-17.325-24.732-33.242-33.238-45.029c-0.166,0.884-0.333,1.769-0.484,2.655c8.064,11.877,19.032,27.338,31.631,43.96     C157.312,376.704,170.094,392.417,179.594,403.576z"/>
			<path style="fill:#5ED3BD;" d="M211.094,349.748c0.617-0.381-20.722-36.072-47.66-79.717     c-7.366-11.933-14.382-23.217-20.71-33.32c-0.434,0.81-0.877,1.616-1.307,2.428c6.012,9.879,12.7,20.794,19.784,32.27     C188.139,315.055,210.477,350.128,211.094,349.748z"/>
			<path style="fill:#5ED3BD;" d="M235.423,338.626c-8.018,2.091-14.497,3.827-18.96,5.085c-4.464,1.258-6.912,2.036-6.871,2.213     c0.041,0.177,2.569-0.266,7.106-1.219c4.536-0.952,11.081-2.413,19.156-4.274c16.149-3.72,38.419-9.037,62.979-15.067     c20.263-4.975,38.909-9.656,53.822-13.491c0.268-0.78,0.553-1.554,0.82-2.335c-15.211,3.552-34.405,8.155-55.268,13.277     C273.653,328.843,251.459,334.444,235.423,338.626z"/>
			<path style="fill:#5ED3BD;" d="M237.292,269.691c0.652-0.315-14.705-33.427-34.302-73.956     c-4.965-10.267-9.723-20.022-14.075-28.866c-0.568,0.682-1.13,1.37-1.695,2.055c4.104,8.633,8.628,18.069,13.406,27.953     C220.223,237.407,236.639,270.007,237.292,269.691z"/>
			<path style="fill:#5ED3BD;" d="M239.029,266.873c0.134,0.713,41.355-6.451,92.068-16c15.706-2.957,30.475-5.796,43.384-8.328     c0.238-0.825,0.472-1.652,0.709-2.478c-13.215,2.382-28.41,5.182-44.579,8.226C279.898,257.842,238.895,266.16,239.029,266.873z"/>
			<path style="fill:#5ED3BD;" d="M270.459,183.028c1.545,4.656,3.05,9.195,4.55,13.716c0.87,2.526,1.482,4.138,1.793,4.704     c0.074-0.025,0.135-0.048,0.224-0.076c-0.048-0.652-0.406-2.336-1.037-4.916c-0.806-3.321-2.087-8.095-3.755-13.97     c-3.332-11.75-8.291-27.885-14.311-45.526c-4.294-12.568-8.538-24.164-12.275-33.914c-0.585,0.56-1.174,1.115-1.755,1.68     c3.419,9.632,7.391,20.922,11.546,33.083C261.449,155.418,266.678,171.431,270.459,183.028z"/>
			<path style="fill:#5ED3BD;" d="M277.026,201.373c0.014,0.187,0.006,0.302-0.033,0.313c-0.038,0.011-0.105-0.08-0.191-0.237     c-0.367,0.124-0.573,0.219-0.562,0.274c0.133,0.713,32.458-4.741,72.199-12.181c15.386-2.88,29.616-5.634,41.286-7.972     c0.152-0.751,0.292-1.505,0.442-2.257c-11.88,2.065-26.457,4.7-42.211,7.649C311.925,193.707,282.169,199.768,277.026,201.373z"/>
			<path style="fill:#5ED3BD;" d="M276.993,201.685c0.039-0.011,0.047-0.126,0.033-0.313c-0.089,0.028-0.15,0.051-0.224,0.076     C276.888,201.606,276.955,201.696,276.993,201.685z"/>
			<path style="fill:#5ED3BD;" d="M306.147,156.163c0.692-0.187-6.587-29.447-16.31-65.584c-1.285-1.41-2.57-2.82-3.855-4.231     c0.335,1.247,0.671,2.501,1.012,3.764C296.872,126.779,305.447,156.352,306.147,156.163z"/>
			<path style="fill:#5ED3BD;" d="M330.682,153.037c-5.545,0.726-10.834,1.419-15.995,2.096c-3.774,0.529-5.855,0.907-5.837,1.088     c0.017,0.18,2.13,0.146,5.938-0.071c3.809-0.21,9.31-0.64,16.098-1.268c13.577-1.251,32.299-3.394,52.885-6.432     c0.044-0.006-2.834-1.342-4.259-2.032C360.474,149.19,343.351,151.422,330.682,153.037z"/>
			<path style="fill:#5ED3BD;" d="M337.492,103.783c0.215,5.932,0.475,10.729,0.748,14.04c0.265,3.311,0.498,5.137,0.679,5.13     c0.181-0.007,0.294-1.846,0.342-5.162c0.028-4.651,0.057-9.298,0.086-14.036c0.041-11.847,0.208-28.206,0.87-46.26     c0.318-8.532,0.719-16.654,1.141-24.12c-0.852,0.488-1.701,0.977-2.547,1.473c-0.493,7.033-0.921,14.605-1.217,22.549     C336.931,75.507,337.057,91.92,337.492,103.783z"/>
			<path style="fill:#5ED3BD;" d="M338.834,123.256c0.256,0.678,24.105-7.708,53.267-18.73c2.912-1.1,5.762-2.184,8.542-3.247     c0.064-0.947,0.143-1.893,0.203-2.84c-3.14,1.171-6.37,2.384-9.673,3.632C362.011,113.093,338.578,122.579,338.834,123.256z"/>
		</g>
		<path style="fill:#5ED3BD;" d="M350.085,112.97c0,0-170.064,130.004-161.112,381.334c0,0,6.755,3.984,14.902,0.058    C203.566,483.042,186.623,279.115,350.085,112.97z"/>
		<g>
			<g>
				<g>
					<path style="fill:#114B44;" d="M210.397,284.859c1.437,0.544,4.847-4.942,7.617-12.255c2.769-7.312,3.849-13.682,2.412-14.226       c-1.437-0.544-4.847,4.942-7.617,12.255C210.04,277.946,208.96,284.315,210.397,284.859z"/>
				</g>
				<g>
					<path style="fill:#114B44;" d="M256.103,302.17c1.437,0.544,4.847-4.943,7.617-12.255c2.769-7.312,3.849-13.682,2.412-14.226       c-1.437-0.544-4.847,4.943-7.617,12.255C255.746,295.256,254.666,301.625,256.103,302.17z"/>
				</g>
			</g>
			<g>
				<path style="fill:#114B44;" d="M295.546,294.217c-0.389-0.214-1.705,1.715-4.338,4.899c-2.621,3.182-6.694,7.563-12.563,11.866      c-5.885,4.226-13.675,8.314-22.974,10.281c-9.243,2.036-19.984,1.56-30.374-1.89c-10.365-3.524-19.214-9.629-25.353-16.834      c-6.225-7.183-9.966-15.146-12.105-22.068c-2.08-6.973-2.681-12.925-2.849-17.043c-0.176-4.128-0.06-6.461-0.5-6.525      c-0.318-0.053-1.168,2.185-1.665,6.451c-0.501,4.249-0.503,10.565,1.213,18.137c1.778,7.511,5.401,16.3,11.982,24.35      c6.507,8.091,16.162,14.963,27.503,18.807c11.362,3.785,23.208,4.136,33.28,1.616c10.107-2.443,18.303-7.261,24.256-12.175      c5.94-4.999,9.753-10.035,11.919-13.725C295.157,296.664,295.832,294.367,295.546,294.217z"/>
			</g>
		</g>
	</g>
</g>















</svg>
