<?xml version="1.0" encoding="UTF-8"?>
<!-- Generator: Adobe Illustrator 25.2.1, SVG Export Plug-In . SVG Version: 6.00 Build 0)  -->
<svg xmlns="http://www.w3.org/2000/svg" xmlns:xlink="http://www.w3.org/1999/xlink" version="1.1" id="Capa_1" x="0px" y="0px" viewBox="0 0 512 512" style="enable-background:new 0 0 512 512;" xml:space="preserve" width="512" height="512">
<g>
	<path style="fill:#FFFFFF;" d="M109.163,212.396c-3.387,2.221-5.907,5.342-7.28,9.147c-1.455,4.037-2.702,12.174,5.321,21.307   c5.997,6.828,13.09,11.603,20.234,15.45c-1.489,1.691-2.652,3.647-3.439,5.828c-1.455,4.037-2.702,12.174,5.321,21.307   c6.033,6.868,15.373,12.982,24.618,17.913l-4.838,0.77c-11.801,1.878-20.762,11.903-21.31,23.839l-0.523,11.356   c-0.174,3.773,0.481,7.468,1.893,10.866c-2.367,14.071-3.423,27.848-3.141,41.024c0.039,1.857,0.116,3.73,0.209,5.558l0.048,0.912   c0.468,8.347,1.511,16.471,3.095,24.138c0.51,2.472,1.102,5,1.723,7.365c0.012,0.051,0.046,0.176,0.058,0.227   c9.541,36.277,31.604,62.942,65.574,79.255c6.243,2.998,13.169,4.007,20.027,2.916l157.51-25.057   c6.86-1.091,13.131-4.199,18.137-8.989c1.602-1.534,3.127-3.082,4.587-4.614c0.37-0.389,0.729-0.777,1.086-1.167l0.19-0.207   c1.096-1.178,2.156-2.362,3.159-3.528c0.405-0.467,0.81-0.936,1.186-1.386c1.218-1.454,2.397-2.914,3.487-4.337l0.368-0.472   c1.267-1.668,2.53-3.425,3.737-5.203l0.314-0.474c1.072-1.592,2.092-3.191,3.04-4.759l0.467-0.772   c9.947-16.687,15.412-35.29,16.245-55.296c0.074-1.745,0.107-3.485,0.109-5.071l0.001-0.687c-0.003-1.718-0.037-3.432-0.104-5.165   c-0.296-7.35-1.196-14.963-2.679-22.628c-0.307-1.591-0.637-3.17-1.029-4.925c-0.006-0.023-0.058-0.263-0.064-0.286   c-0.356-1.57-0.725-3.13-1.12-4.676c-0.017-0.066-0.034-0.132-0.052-0.198c-3.689-14.401-9.326-29.057-16.787-43.653   c0.866-4.971,0.229-10.151-1.949-14.881l-4.84-10.515c-3.786-8.22-11.659-13.658-20.375-14.584   c8.456-11.036,4.812-19.99,2.835-23.346c-2.736-4.648-7.251-7.749-12.853-9.036c7.715-5.573,15.488-12.186,21.215-21.446   c7.106-11.487,3.075-19.934,1.013-23.032c-4.395-6.603-12.656-9.649-22.095-8.147c-2.801,0.446-5.581,1.251-8.264,2.395   c-0.308,0.131-0.613,0.265-0.919,0.404c0.684-4.275,1.145-8.733,1.209-13.323c0.213-15.395-4.446-29.309-13.118-39.179   c-4.878-5.554-11.366-8.152-17.803-7.128c-2.518,0.401-4.865,1.334-6.966,2.77c-0.142,0.097-0.282,0.195-0.421,0.296   c-0.261-3.213-1.321-5.646-1.933-6.815c-1.372-2.613-3.318-4.786-5.705-6.464c3.952-3.213,7.701-6.954,10.923-11.528   c7.607-10.796,3.858-19.296,1.891-22.449c-4.261-6.837-12.546-10.006-22.165-8.476c-1.269,0.202-2.534,0.482-3.781,0.834   c-0.024-7.212-1.26-13.987-3.69-20.179l-0.185-0.483c-1.772-4.675-4.737-12.5-12.639-15.458c-2.685-1.007-5.593-1.301-8.414-0.853   c-5.624,0.895-10.185,4.367-13.55,10.312c-2.463,4.34-3.628,9.041-4.066,13.617c-7.668-1.964-15.465,0.664-19.789,6.643   c-0.565,0.78-1.063,1.594-1.495,2.443c-0.885,0.082-1.785,0.227-2.645,0.422c1.961-6.165,3.323-12.758,3.355-19.857   c0.042-9.457-3.794-14.739-7.021-17.505c-4.11-3.525-9.417-4.982-14.94-4.103c-7.308,1.162-12.763,6.004-15.922,9.631   c-0.11-0.336-0.224-0.672-0.338-1.008c-4.1-11.976-9.928-21.89-17.327-29.465c-2.251-2.304-5.419-5.175-9.992-6.938   c-3.807-1.466-7.526-1.925-11.05-1.365c-5.951,0.947-10.832,4.66-13.394,10.189c-6.297,13.599,4.854,33.895,4.974,34.093   c2.186,3.599,4.565,6.906,6.999,10.053c-5.059-0.039-9.817,1.067-13.56,3.144c-5.561-5.768-11.913-5.63-14.852-5.163   c-4.902,0.78-9.122,3.596-12.538,8.369c-5.377,7.511-8.211,16.834-8.425,27.71c-0.161,8.31,1.248,16.309,2.755,23.26   c-0.362-0.181-0.725-0.358-1.092-0.53c-5.856-2.756-12.328-3.842-17.759-2.978c-6.495,1.033-11.746,4.798-14.403,10.326   c-2.044,4.256-3.395,11.241,1.782,20.341c6.112,10.744,14.982,18.177,23.45,24.536c-10.091-0.35-18.296,4.345-21.389,12.204   c-1.528,3.879-3.001,11.778,4.282,21.1C96.698,203.454,102.847,208.352,109.163,212.396z"/>
	<g>
		<path style="fill:#C851A0;" d="M377.524,285.603l-94.123,14.973l-37.969,6.04l-94.123,14.973c0,0-11.248,31.583-10.505,69.037    c0.045,2.267,6.593,6.995,6.731,9.299c0.095,1.578-6.247,0.725-6.105,2.316c0.492,5.501,1.278,11.068,2.428,16.627    c0.522,2.522,4.42,5.411,5.097,7.922c0.552,2.046-2.143,3.717-1.48,5.747c8.05,24.638,24.544,47.842,55.656,62.782    c3.506,1.683,7.457,2.252,11.298,1.641l59.77-9.508l37.969-6.04l59.77-9.508c3.84-0.611,7.421-2.378,10.231-5.066    c23.418-22.401,32.323-47.729,33.329-72.195c0.069-1.687-2.682-2.561-2.686-4.239c-0.003-1.554,2.747-3.91,2.684-5.454    c-0.281-6.954-1.143-13.794-2.428-20.432c-0.349-1.804-4.037-1.467-4.446-3.24c-0.285-1.234,2.724-4.586,2.413-5.802    C400.927,315.905,377.524,285.603,377.524,285.603z"/>
		<path style="fill:#235E54;" d="M197.332,249.473c-4.025,5.11-6.637,11.313-7.971,17.652c-2.013,9.565-1.426,19.432-0.507,29.197    c-1.124-1.895-2.264-3.816-3.437-5.793c-1.651-2.805-3.149-5.849-4.828-8.925c-3.439-6.113-6.537-12.938-9.943-20.039    c-0.497-1.114-0.992-2.258-1.487-3.394c5.449-16.923,18.235-31.744,19.218-50.054c0.599-11.154-8.198-7.53-13.161-1.229    c-4.025,5.109-6.637,11.313-7.971,17.652c-1.906,9.058-1.474,18.385-0.642,27.64c-4.871-11.667-9.525-24.322-13.543-37.742    c6.601-16.019,19.564-29.816,21.545-47.559c1.239-11.101-7.752-7.989-13.069-1.984c-4.312,4.869-7.276,10.913-8.972,17.165    c-1.94,7.152-2.388,14.563-2.341,21.999c-3.309-12.852-5.789-25.337-7.636-37.083c8.709-15.674,24.452-27.664,29.154-45.554    c2.839-10.804-6.509-9.03-12.642-3.862c-4.973,4.191-8.785,9.74-11.371,15.679c-3.631,8.337-5.103,17.385-6.154,26.455    c-0.802-6.415-1.593-12.567-1.915-18.412c-0.239-3.496-0.612-6.868-0.728-10.121c-0.02-0.615-0.039-1.21-0.058-1.819    c4.446-15.232,6.09-31.28,4.761-47.093c-0.323-3.847-0.896-7.852-2.613-11.354c-1.979-4.038-3.797-5.315-6.624-1.365    c-4.025,5.622-5.529,12.57-5.662,19.385c-0.164,8.381,1.67,16.659,3.544,24.83c0.939,4.094,1.893,8.206,2.617,12.344    c-0.006,1.712-0.013,3.446-0.02,5.214c0.011,3.296,0.285,6.716,0.432,10.264c0.171,5.948,0.834,12.216,1.532,18.756    c-3.289-8.279-6.994-16.408-12.511-23.356c-4.028-5.073-9.139-9.453-15.024-12.223c-7.257-3.415-16.746-2.723-11.222,6.986    c9.101,15.994,27.26,23.53,39.707,36.312c2.013,14.138,5.025,29.333,9.383,44.913c-4.861-8.586-10.047-17.074-17.217-23.806    c-4.723-4.434-10.416-8.025-16.641-9.911c-7.676-2.325-16.964-0.261-10.087,8.542c11.631,14.89,31.413,19.572,45.684,31.043    c3.57,11.527,7.641,22.469,11.95,32.648c-4.562-6.802-9.522-13.323-15.78-18.554c-4.97-4.155-10.86-7.413-17.183-8.937    c-7.797-1.88-16.951,0.715-9.58,9.108c12.287,13.991,31.907,17.631,46.742,27.91c0.398,0.869,0.793,1.754,1.192,2.61    c3.575,7.148,6.865,13.992,10.515,20.096c1.663,2.864,3.181,5.675,4.807,8.302c-4.182-6.053-8.755-11.799-14.379-16.502    c-4.97-4.155-10.86-7.413-17.183-8.938c-7.797-1.88-16.951,0.715-9.579,9.108c12.731,14.496,47.614,26.431,47.614,26.431    c2.866,4.454,5.821,8.318,8.33,11.796c1.428,1.922,2.718,3.738,3.991,5.346c1.249,1.494,2.446,2.926,3.601,4.306    c4.355,5.148,6.888,7.873,7.169,7.644c0.281-0.229-1.711-3.388-5.539-8.881c-1.028-1.458-2.096-2.971-3.209-4.549    c-1.143-1.683-2.305-3.569-3.606-5.554c-2.218-3.49-4.86-7.324-7.442-11.685c5.489-16.829,18.17-31.598,19.149-49.826    C211.092,239.548,202.295,243.173,197.332,249.473z"/>
		<path style="fill:#235E54;" d="M369.038,199.042c-5.982,2.552-11.251,6.742-15.462,11.664    c-5.262,6.149-9.052,13.339-12.403,20.742c1.538-9.497,2.478-18.66,2.935-27.083c0.061-1.847,0.123-3.645,0.175-5.418    c2.293-8.753,4.322-17.612,4.447-26.638c0.145-10.468-2.531-21.347-9.441-29.212c-1.364-1.552-3.613-3.062-5.319-1.897    c-0.968,0.66-1.28,1.925-1.472,3.081c-2.695,16.249,3.952,32.201,7.392,48.447c-0.123,3.611-0.377,7.368-0.618,11.333    c-0.777,9.447-2.005,19.796-3.94,30.556c-0.716-9.28-1.835-18.565-5.223-27.195c-2.367-6.03-5.972-11.715-10.789-16.086    c-5.939-5.39-15.216-7.505-12.775,3.396c4.038,18.035,19.309,30.587,27.443,46.551c-1.75,8.283-3.757,16.138-5.84,23.346    c-1.413,4.527-2.677,8.859-4.122,12.828c-0.673,2.048-1.369,4.005-2.06,5.879c0.352-9.641,0.345-19.354-2.159-28.635    c-1.687-6.254-4.643-12.302-8.949-17.177c-5.308-6.012-14.295-9.137-13.071,1.966c2.023,18.36,15.801,32.514,22.13,49.264    c-5.136,13.264-8.964,21.255-8.239,21.642c0.532,0.298,5.404-6.9,11.379-19.635c14.335-11.873,34.597-16.42,46.441-31.539    c6.889-8.794-2.396-10.87-10.075-8.556c-6.227,1.877-11.926,5.46-16.655,9.887c-6.436,6.026-11.274,13.469-15.719,21.125    c0.36-0.887,0.717-1.788,1.067-2.714c1.647-3.971,3.092-8.328,4.658-12.9c2.464-7.715,4.754-16.227,6.648-25.231    c12.882-12.052,31.002-18.93,40.571-34.4C385.873,196.935,376.415,195.895,369.038,199.042z"/>
		<path style="fill:#43AA99;" d="M278.928,124.125c11.815-10.104,28.241-15.07,37.478-28.18c5.574-7.911-2.551-9.3-9.093-6.96    c-5.305,1.897-10.078,5.248-13.975,9.286c-5.455,5.653-9.381,12.529-12.971,19.552c0.73-3.8,1.445-7.422,1.843-10.863    c0.397-2.604,0.636-5.044,0.834-7.395c3.691-7.206,6.158-14.249,6.549-22.593c0.275-5.87-0.456-11.879-2.612-17.37    c-0.659-1.679-2.415-6.805-4.247-7.492c-1.724-0.647-3.137,1.56-3.899,2.905c-3.568,6.294-2.294,15.463-1.282,22.286    c0.74,4.985,1.85,9.956,2.594,14.94c-0.172,1.301-0.358,2.664-0.565,4.095c-0.453,3.047-0.945,6.378-1.676,9.921    c-0.434,2.584-1.043,5.27-1.682,8.059c-0.241-6.829-0.907-13.626-3.011-20.099c-1.734-5.337-4.558-10.439-8.497-14.468    c-4.857-4.969-12.769-7.278-11.223,2.275c2.478,15.307,14.341,26.71,20.726,40.336c-1.762,6.499-3.887,13.358-6.502,20.371    c-0.756,1.977-1.539,3.91-2.332,5.818c0.851-7.114,1.283-14.27,0.106-21.308c-0.926-5.535-2.963-10.999-6.262-15.567    c-4.068-5.632-11.551-9.087-11.436,0.589c0.187,15.586,10.34,28.672,14.599,43.183c-1.806,3.974-3.657,7.763-5.5,11.332    c-1.951,3.557-3.734,6.984-5.641,10.054c-1.794,3.142-3.626,5.967-5.301,8.552c-0.098,0.15-0.191,0.289-0.287,0.437    c3.014-8.706,5.926-17.578,6.181-26.772c0.156-5.61-0.793-11.363-3.152-16.48c-2.91-6.31-9.589-11.139-11.336-1.621    c-2.991,16.299,5.611,31.991,6.206,48.04c-2.473,3.681-4.56,6.648-6.06,8.847c-1.443-8.618-3.136-17.443-5.154-26.415    c-2.207-9.506-4.667-18.712-7.279-27.573c5.553-17.598,19.74-32.445,21.312-51.422c0.922-11.132-7.977-7.764-13.12-1.61    c-4.171,4.991-6.962,11.116-8.479,17.414c-2.39,9.923-1.954,20.255-1.264,30.465c-2.507-8.186-5.13-16.063-7.81-23.53    c-1.912-4.998-3.739-9.833-5.594-14.489c4.829-16.702,16.335-31.843,16.416-49.759c0.051-11.171-8.558-7.118-13.206-0.582    c-3.769,5.301-6.074,11.625-7.095,18.022c-1.239,7.758-0.779,15.628,0.171,23.459c-0.063-0.14-0.122-0.289-0.185-0.429    c-1.613-3.67-3.066-7.26-4.665-10.62c-1.6-3.317-3.151-6.53-4.649-9.636c-0.634-1.364-1.279-2.673-1.924-3.96    c-1.527-8.234-3.16-16.465-5.87-24.382c-3.011-8.799-7.416-17.263-13.914-23.917c-1.376-1.409-2.887-2.762-4.725-3.47    c-11.784-4.537-3.798,17.657-1.507,21.429c5.938,9.777,14.216,17.907,20.672,27.301c1.289,2.69,2.617,5.538,3.903,8.582    c1.388,3.127,2.824,6.361,4.305,9.7c1.488,3.376,2.835,6.975,4.347,10.648c1.173,2.77,2.297,5.668,3.413,8.622    c-6.187-8.707-12.593-17.44-21.1-23.871c-5.168-3.906-11.211-6.871-17.601-8.084c-7.88-1.495-16.895,1.546-9.121,9.567    c13.315,13.738,33.834,16.171,49.315,26.373c1.329,3.617,2.659,7.325,4.048,11.122c1.809,5.286,3.598,10.781,5.352,16.424    c-4.064-6.296-8.527-12.3-14.113-17.253c-4.847-4.297-10.641-7.725-16.917-9.432c-7.739-2.105-16.964,0.223-9.84,8.827    c11.328,13.679,29.6,18.133,43.875,27.803c2.751,9.433,5.36,19.27,7.72,29.432c4.521,20.11,7.623,39.513,9.755,57.247    c0.018,0.181,0.036,0.356,0.054,0.537c-1.988-7.16-4.444-14.159-8.262-20.503c-3.341-5.55-7.845-10.552-13.324-14.057    c-6.756-4.322-16.255-4.858-12.028,5.482c6.997,17.113,24.159,26.94,34.845,41.328c0.41,4.282,0.759,8.445,0.956,12.477    c0.233,3.966,0.583,7.793,0.709,11.48c0.115,3.651,0.227,7.187,0.335,10.607c0.115,2.34,0.16,4.572,0.185,6.754    c-2.7-9.26-5.764-18.475-11.062-26.495c-3.57-5.405-8.28-10.214-13.901-13.487c-6.931-4.035-16.445-4.173-11.788,5.981    c7.76,16.92,25.506,26.03,36.774,40.122c-0.005,1.858-0.01,3.671,0.006,5.383c0.006,2.612,0.012,5.109,0.018,7.499    c-0.057,2.202-0.111,4.298-0.163,6.302c-0.157,7.579-0.073,11.796,0.288,11.826c0.362,0.03,0.968-4.133,1.755-11.709    c0.198-2.007,0.405-4.105,0.623-6.309c0.179-2.31,0.273-4.824,0.416-7.526c0.068-1.586,0.151-3.258,0.235-4.972l0.031,0.305    c9.84-15.901,27.78-26.606,34.292-44.767c3.77-10.515-5.697-9.563-12.257-4.949c-5.32,3.742-9.601,8.937-12.695,14.627    c-4.913,9.036-7.162,19.216-9.147,29.334c0.086-2.548,0.145-5.181,0.106-7.954c0.001-3.449,0.002-7.017,0.003-10.7    c-0.019-3.721-0.27-7.585-0.411-11.592c-0.103-4.096-0.369-8.329-0.703-12.684c10.645-14.528,27.924-24.402,34.922-41.615    c4.207-10.348-5.291-9.794-12.039-5.458c-5.472,3.516-9.967,8.527-13.297,14.083c-5.041,8.412-7.708,17.964-10.032,27.525    c-0.205-2.431-0.418-4.889-0.628-7.392c-0.978-9.303-2.261-19.07-3.9-29.147c2.321-2.175,5.879-6.001,10.071-11.336    c14.351-5.24,31.122-4.588,43.989-13.677c7.904-5.583,0.716-9.617-6.232-9.607c-5.634,0.008-11.254,1.564-16.28,4.062    c-5.714,2.84-10.746,6.782-15.511,11.06c0.338-0.504,0.677-1.004,1.013-1.527c2.112-3.041,4.083-6.467,6.201-10.052    c2.047-3.667,4.079-7.589,6.032-11.728c13.112-8.015,29.828-10.567,40.774-22.029c6.683-6.999-1.147-9.575-7.963-8.229    c-5.528,1.091-10.744,3.699-15.195,7.116c-5.515,4.234-9.986,9.594-14.124,15.217c0.667-1.602,1.336-3.203,1.968-4.856    C275.254,137.577,277.31,130.679,278.928,124.125z"/>
		<path style="fill:#FEC400;" d="M411.04,355.511c-11.544,4.282-24.587,3.662-36.938,0.344c-14.682-3.944-28.337-7.736-43.151-2.274    c-14.408,5.312-21.799,21.481-36.299,27.514c-28.255,11.757-52.701-24.891-79.387-5.777    c-14.595,10.454-23.988,23.278-43.077,25.722c-11.784,1.509-22.828-2.766-31.378-10.147c0.079,3.71,0.281,7.478,0.618,11.278    c16.356,10.114,37.51,11.719,55.158,0.163c7.92-5.186,14.355-12.064,21.688-17.994c10.189-8.239,20.655-5.933,31.549-0.825    c14.726,6.904,28.98,12.359,45.336,6.95c20.386-6.743,30.388-30.899,52.91-30.856c10.722,0.021,21.389,4.538,31.737,7.008    c8.82,2.106,17.704,1.786,26.499-0.112c2.341-0.505,4.591-1.162,6.764-1.932C412.476,361.506,411.798,358.482,411.04,355.511z"/>
		<path style="fill:#FEC400;" d="M378.778,385.247c-14.682-3.944-28.337-7.736-43.151-2.275    c-14.408,5.312-21.799,21.481-36.299,27.514c-28.256,11.757-52.701-24.891-79.387-5.777    c-14.595,10.454-23.988,23.278-43.077,25.722c-12.545,1.606-24.256-3.333-33.005-11.608c0.935,4.53,2.116,9.052,3.571,13.529    c16.163,9.396,36.657,10.619,53.831-0.628c7.92-5.186,14.355-12.064,21.688-17.994c10.189-8.239,20.655-5.933,31.549-0.825    c14.726,6.904,28.98,12.359,45.335,6.95c20.386-6.743,30.388-30.899,52.91-30.856c10.722,0.02,21.389,4.538,31.736,7.008    c8.82,2.105,17.704,1.786,26.499-0.112c1.542-0.333,3.035-0.745,4.505-1.194c0.135-3.258,0.133-6.5,0.004-9.718    C404.001,389.174,391.049,388.543,378.778,385.247z"/>
		<path style="fill:#9B377E;" d="M385.25,314.117l-231.044,36.755c-6.583,1.047-12.468-4.214-12.162-10.873l0.523-11.363    c0.229-4.984,3.928-9.122,8.856-9.906l225.684-35.902c4.657-0.741,9.238,1.708,11.209,5.991l4.837,10.51    C396.067,305.659,392.132,313.022,385.25,314.117z"/>
	</g>
</g>















</svg>
