<?xml version="1.0" encoding="UTF-8"?>
<!-- Generator: Adobe Illustrator 25.2.1, SVG Export Plug-In . SVG Version: 6.00 Build 0)  -->
<svg xmlns="http://www.w3.org/2000/svg" xmlns:xlink="http://www.w3.org/1999/xlink" version="1.1" id="Capa_1" x="0px" y="0px" viewBox="0 0 512 512" style="enable-background:new 0 0 512 512;" xml:space="preserve" width="512" height="512">
<g>
	<path style="fill:#FFFFFF;" d="M47.447,180.46c4.332,5.995,8.418,11.657,9.201,16.725l0.06,0.61   c0.055,0.492,0.087,0.986,0.101,1.451c0.082,3.228-0.574,7.143-1.267,11.29c-0.997,5.941-2.126,12.675-1.469,19.797   c0.096,1.036,0.231,2.065,0.404,3.094c0.507,3.025,1.341,5.916,2.477,8.598c5.865,13.812,18.714,20.805,27.866,24.862   c1.535,0.681,3.091,1.341,4.651,2.001c5.146,2.18,10.007,4.24,13.316,6.896c0.38,0.304,0.763,0.605,1.118,0.942   c0.187,0.181,0.364,0.374,0.57,0.592c2.067,2.181,4.036,5.348,6.12,8.701c3.69,5.93,7.869,12.653,14.818,18.015   c9.488,7.322,20.953,9.873,32.056,7.467c0.435,1.751,0.819,3.432,1.113,5.02c0.015,0.08,0.03,0.159,0.048,0.238   c0.09,0.456,0.186,0.909,0.282,1.359l-45.281-8.611c-17.861-3.397-35.157,8.371-38.554,26.233l-5.253,27.62   c-2.846,14.964,4.953,29.531,18.062,35.86l6.681,60.238c0.347,3.111,1.186,6.127,2.493,8.956   c3.92,8.49,11.744,14.601,20.928,16.348l140.488,26.717c12.593,2.395,25.082-3.61,31.078-14.947l28.606-54.109   c13.661-1.862,25.252-12.244,27.967-26.517l5.253-27.62c3.397-17.862-8.372-35.157-26.233-38.554l-38.223-7.269   c0.586-1.121,1.228-2.243,1.878-3.388c0.575-1.015,1.16-2.044,1.836-3.284c1.908-3.619,4.329-7.506,6.893-11.62l2.219-3.577   c0.435-0.659,0.872-1.319,1.312-1.978c11.589,5.474,25.392,7.654,38.705,6.043c16.436-1.99,26.145-8.087,36.483-17.278   c14.331-12.739,27.579-24.968,40.503-37.387c8.963-8.612,18.231-17.517,25.887-28.535c5.406-7.771,22.293-34.895,12.717-57.638   c-1.145-2.72-2.645-5.241-4.46-7.534c10.207-6.652,21.212-16.246,25.728-27.43c3.943-9.762,3.84-19.98-0.295-29.551   c-4.883-11.298-15.022-20.636-27.82-25.619c-4.013-1.562-8.24-2.772-12.559-3.593c-16.814-3.198-32.665-0.35-47.993,2.402   c-2.553,0.459-5.104,0.917-7.682,1.349c-0.815,0.136-1.63,0.272-2.389,0.392c-0.162,0.019-0.319,0.039-0.454,0.06   c-2.755,0.405-5.034,0.058-9.159-0.645c-2.542-0.432-5.422-0.923-8.774-1.188c-12.591-0.997-23.682,4.136-33.791,9.833   c-3.289,1.853-6.435,3.791-9.476,5.664c-5.626,3.465-10.938,6.739-16.303,8.959c-3.048,1.261-6.439,2.319-10.031,3.44l-2.647,0.829   c-3.293,1.043-6.918,2.242-10.642,3.825c-1.477-3.621-3.177-7.146-5.096-10.562c-3.41-6.068-7.304-11.475-11.069-16.703   c-1.396-1.94-2.792-3.877-4.15-5.839c-0.34-0.491-0.669-0.988-0.999-1.483l-0.452-0.681c-2.564-3.844-4.295-6.839-5.605-9.708   c-2.81-6.147-4.459-13.296-6.205-20.865c-0.472-2.047-0.944-4.094-1.441-6.134c-0.008-0.032-0.016-0.063-0.024-0.095   c-0.285-1.168-0.588-2.334-0.894-3.502l-0.171-0.658c-0.179-0.697-0.361-1.394-0.551-2.074   c-5.215-18.528-14.014-31.729-26.154-39.237c-5.436-3.361-11.107-5.62-16.851-6.712c-12.834-2.441-25.999,1.062-37.073,9.863   c-14.986,11.913-25.179,32.391-25.965,52.171c-0.189,4.764-0.027,9.764,0.51,15.734c0.003,0.02,0.004,0.041,0.007,0.062   c0.094,1.05,0.189,2.102,0.302,3.151c0.005,0.048,0.01,0.094,0.015,0.142c0.452,4.162,1.02,8.277,1.572,12.257   c0.604,4.365,1.175,8.489,1.592,12.601c0.767,7.572,0.589,15.843,0.312,22.955l-0.11,2.743c-0.048,1.096-0.098,2.194-0.149,3.296   l-0.304-0.276c-15.747-14.021-33.248-23.177-50.612-26.48c-1.58-0.3-3.17-0.556-4.77-0.765   c-15.968-2.083-36.345,1.835-45.639,19.083c-7.251,13.456-4.925,30.195,6.546,47.135C44.551,176.449,45.996,178.453,47.447,180.46z   "/>
	<g>
		<g>
			<path style="fill:#43AA99;" d="M134.713,291.979c30.293,23.376,70.328-38.494,47.979-62.102     c-3.91-4.13-9.157-6.813-13.033-10.975c-6.694-7.189-8.324-17.547-10.612-27.099c-4.214-17.596-18.276-33.188-31.516-44.978     c-13.333-11.872-29.524-21.208-47.226-23.518c-11.358-1.482-24.833,1.125-30.267,11.209c-5.31,9.855-0.527,22.105,5.75,31.374     c6.278,9.269,14.295,18.106,15.942,29.179c2.034,13.674-6.165,28.278-0.762,41.003c3.498,8.238,11.84,13.269,20.022,16.896     c8.181,3.627,16.976,6.576,23.443,12.762C122.461,273.407,125.92,285.193,134.713,291.979z"/>
		</g>
		<g>
			<path style="fill:#235E54;" d="M293.929,291.614c-13.925-16.392-13.981-47.713,2.333-62.783     c7.46-6.891,17.334-10.543,27.169-13.076c9.715-2.503,17.909-2.483,26.76-7.372c11.777-6.505,23.439-13.227,35.156-19.838     c7.829-4.418,15.808-8.895,24.592-10.814c10.956-2.394,26.543,0.5,31.383,11.996c5.049,11.993-2.36,29.223-9.258,40.133     c-0.256,0.406-2.939,0.092-3.193,0.479c-0.259,0.394,1.911,1.489,1.656,1.863c-0.13,0.19-0.259,0.378-0.387,0.563     c-6.772,9.74-15.385,18.029-23.938,26.248c-0.436,0.419-0.872,0.837-1.308,1.255c-0.345,0.33-3.411-0.162-3.756,0.168     c-0.33,0.315,2.062,1.453,1.733,1.767c-9.98,9.522-19.991,18.772-30.197,27.948c-0.367,0.33-0.734,0.659-1.101,0.989     c-0.455,0.408-0.91,0.816-1.365,1.223c-1.355,1.213-2.713,2.424-4.075,3.635c-8.823,7.844-15.803,12.042-28.196,13.543     c-16.259,1.969-33.826-3.022-44.719-15.251"/>
		</g>
		<g>
			<path style="fill:#43AA99;" d="M307.443,243.426c-2.053,20.889-3.115,37.883-2.372,37.956c0.744,0.073,3.011-16.802,5.064-37.691     c0.913-9.285,1.628-17.788,2.077-24.39c-0.742,0.289-1.471,0.604-2.201,0.918C309.203,226.616,308.305,234.656,307.443,243.426z"/>
			<path style="fill:#43AA99;" d="M322.138,279.916c-8.713-1.999-14.116-3.237-14.224-2.861c-0.098,0.342,5.125,2.232,13.747,4.713     c8.619,2.484,20.657,5.487,34.104,8.081c5.006,0.962,9.849,1.797,14.42,2.515c0.819-0.733,1.638-1.467,2.454-2.201     c-5.129-0.882-10.623-1.868-16.363-2.97C342.895,284.611,330.852,281.918,322.138,279.916z"/>
			<path style="fill:#43AA99;" d="M337.016,251.219c0.152,0.028,0.414-0.589,0.755-1.693c-0.408-0.167-0.699-0.306-0.849-0.409     C336.833,250.426,336.854,251.189,337.016,251.219z"/>
			<path style="fill:#43AA99;" d="M344.177,219.383c0.564-3.103,1.088-6.097,1.57-8.941c-0.949,0.376-1.897,0.724-2.842,1.022     c-0.458,2.388-0.923,4.869-1.39,7.436c-2.47,13.589-4.225,25.242-4.579,30.006c0.169-0.033,0.504-0.021,1.011,0.038     C339.301,244.26,341.733,232.827,344.177,219.383z"/>
			<path style="fill:#43AA99;" d="M336.77,248.96c-0.01,0.037,0.059,0.094,0.151,0.157c0.005-0.071,0.009-0.137,0.014-0.212     C336.865,248.919,336.779,248.928,336.77,248.96z"/>
			<path style="fill:#43AA99;" d="M349.105,250.995c-5.419-1.077-9.327-1.841-11.158-2.053c-0.062,0.213-0.119,0.399-0.176,0.583     c1.698,0.696,5.518,1.902,10.903,3.333c7.468,1.988,17.9,4.327,29.543,6.241c9.152,1.497,17.654,2.498,24.629,3.104     c0.682-0.651,1.365-1.293,2.047-1.947c-7.214-0.948-16.335-2.208-26.239-3.827C367.08,254.528,356.654,252.499,349.105,250.995z"/>
			<path style="fill:#43AA99;" d="M336.936,248.905c-0.006,0.075-0.009,0.141-0.014,0.212c0.15,0.103,0.441,0.242,0.849,0.409     c0.057-0.185,0.114-0.37,0.176-0.583C337.44,248.884,337.105,248.871,336.936,248.905z"/>
			<path style="fill:#43AA99;" d="M370.668,224.215c0.762,0.12,3.327-12.593,6.953-28.143c0.284-1.232,0.566-2.436,0.845-3.624     c-1.065,0.604-2.131,1.208-3.195,1.813c-0.095,0.401-0.191,0.794-0.285,1.2C371.335,211.123,369.954,224.11,370.668,224.215z"/>
			<path style="fill:#43AA99;" d="M415.868,227.466c-12.033-1.894-22.884-3.87-30.744-5.319c-7.86-1.446-12.741-2.305-12.832-1.928     c-0.085,0.349,4.645,1.868,12.429,3.798c7.782,1.933,18.634,4.217,30.727,6.121c5.289,0.829,10.352,1.508,15.069,2.064     c0.507-0.743,1.02-1.527,1.538-2.347C427.039,229.155,421.585,228.362,415.868,227.466z"/>
		</g>
		<g>
			<path style="fill:#5ED3BD;" d="M164.262,269.185c0.012-0.163-0.983-0.394-2.729-0.671c-0.217,0.396-0.395,0.695-0.547,0.927     C163.067,269.443,164.249,269.363,164.262,269.185z"/>
			<path style="fill:#5ED3BD;" d="M160.53,269.441c0.042-0.253,0.125-0.6,0.25-1.047c-6.776-1-22.716-2.549-41.326-3.958     c-2.432-0.184-4.802-0.356-7.13-0.521c0.722,0.579,1.436,1.17,2.11,1.816c0.377,0.36,0.734,0.738,1.092,1.116     c1.231,0.096,2.466,0.192,3.724,0.288C137.719,268.533,153.596,269.397,160.53,269.441z"/>
			<path style="fill:#5ED3BD;" d="M164.343,258.355c-1.815,4.672-3.037,8.162-3.563,10.039c0.283,0.042,0.502,0.08,0.753,0.12     c0.959-1.75,2.528-5.022,4.57-9.408c4.621-9.952,8.4-18.091,12.346-26.588c0.73-1.537,1.456-3.063,2.181-4.59     c-0.697-0.607-1.413-1.192-2.145-1.761c-0.823,1.7-1.651,3.426-2.486,5.201C171.119,241.763,167.067,251.34,164.343,258.355z"/>
			<path style="fill:#5ED3BD;" d="M160.529,269.947c0.074,0.03,0.239-0.17,0.458-0.505c-0.152,0-0.294,0.001-0.456,0     C160.483,269.721,160.469,269.922,160.529,269.947z"/>
			<path style="fill:#5ED3BD;" d="M160.53,269.441c0.162,0.001,0.304,0,0.456,0c0.151-0.232,0.33-0.532,0.547-0.927     c-0.251-0.04-0.47-0.078-0.753-0.12C160.655,268.841,160.573,269.188,160.53,269.441z"/>
			<path style="fill:#5ED3BD;" d="M142.865,234.389c0.045-0.746-19.438-2.54-43.516-4.007c-11.682-0.712-22.276-1.214-30.118-1.459     c0.061,0.665,0.151,1.327,0.261,1.985c7.776,0.7,18.194,1.474,29.692,2.175C123.263,234.55,142.82,235.135,142.865,234.389z"/>
			<path style="fill:#5ED3BD;" d="M147.043,220.195c-3.174,6.783-5.113,11.006-4.772,11.191c0.315,0.171,2.853-3.735,6.478-10.325     c3.299-5.993,7.452-14.245,11.606-23.618c-0.342-1.477-0.682-2.947-1.022-4.409c-0.077,0.179-0.15,0.352-0.227,0.531     C154.576,204.04,150.22,213.413,147.043,220.195z"/>
			<path style="fill:#5ED3BD;" d="M116.659,200.907c0.057-0.745-18.086-2.737-40.523-4.449c-1.451-0.111-2.882-0.217-4.294-0.32     c0.1,0.901,0.162,1.806,0.186,2.713c1.285,0.102,2.585,0.204,3.902,0.304C98.367,200.868,116.603,201.652,116.659,200.907z"/>
			<path style="fill:#5ED3BD;" d="M117.978,200.492c0.756,0.147,4.357-15.417,9.173-34.5c1.433-5.714,2.81-11.086,4.02-15.833     c-0.656-0.614-1.31-1.221-1.965-1.817c-1.5,4.984-3.118,10.766-4.679,16.99C119.69,184.5,117.266,200.359,117.978,200.492z"/>
		</g>
		<g>
			<path style="fill:#114B44;" d="M179.981,356.605c0.467,0.013,0.897-2.747,1.275-7.794c0.089-1.376,0.18-2.774,0.273-4.205     c0.046-1.538-0.01-3.206-0.029-5.003c-0.096-3.589-0.041-7.703-0.576-12.203c-0.225-2.313-0.454-4.674-0.688-7.084     c-0.263-2.462-0.768-4.989-1.175-7.626c-0.736-5.295-2.129-10.828-3.498-16.679c-3.102-11.6-7.442-24.132-13.361-36.693     c-6.049-12.498-13.068-23.75-20.141-33.453c-3.691-4.742-7.119-9.303-10.775-13.203c-1.795-1.974-3.443-3.955-5.193-5.707     c-1.728-1.697-3.42-3.359-5.078-4.987c-3.163-3.244-6.398-5.787-9.129-8.118c-1.386-1.143-2.648-2.236-3.873-3.166     c-1.171-0.827-2.316-1.635-3.442-2.431c-4.163-2.878-6.58-4.278-6.864-3.907c-0.283,0.371,1.588,2.475,5.182,5.933     c0.986,0.93,1.988,1.875,3.013,2.842c1.081,1.059,2.198,2.272,3.439,3.526c2.44,2.552,5.379,5.278,8.252,8.661     c1.516,1.686,3.063,3.406,4.644,5.163c1.607,1.799,3.113,3.818,4.77,5.816c3.379,3.95,6.544,8.516,9.995,13.217     c6.594,9.624,13.232,20.615,19.097,32.729c5.736,12.177,10.113,24.248,13.455,35.426c1.487,5.639,3.05,10.971,3.998,16.081     c0.513,2.545,1.136,4.985,1.526,7.366c0.373,2.333,0.739,4.618,1.097,6.857c0.826,4.361,1.099,8.36,1.551,11.862     c0.196,1.753,0.437,3.384,0.581,4.891c0.108,1.405,0.213,2.779,0.317,4.129C179.054,353.814,179.514,356.592,179.981,356.605z"/>
		</g>
		<g>
			<path style="fill:#114B44;" d="M400.314,208.17c-0.194-0.425-3.219,0.57-8.557,2.75c-1.437,0.601-2.91,1.217-4.428,1.853     c-1.595,0.726-3.28,1.611-5.113,2.524c-3.635,1.879-7.869,3.88-12.247,6.614c-2.262,1.353-4.58,2.739-6.957,4.161     c-2.408,1.467-4.781,3.193-7.308,4.881c-5.105,3.313-10.188,7.359-15.604,11.538c-10.585,8.654-21.627,18.936-32.11,30.764     c-10.372,11.925-19.137,24.205-26.348,35.821c-3.443,5.911-6.797,11.475-9.421,16.966c-1.347,2.724-2.751,5.3-3.894,7.878     c-1.102,2.541-2.177,5.02-3.225,7.437c-2.144,4.695-3.58,9.152-4.973,13c-0.669,1.935-1.328,3.72-1.841,5.396     c-0.434,1.589-0.854,3.128-1.265,4.631c-1.471,5.576-2.065,8.704-1.619,8.841c0.446,0.138,1.89-2.722,4.105-7.975     c0.585-1.422,1.184-2.878,1.803-4.381c0.757-1.661,1.534-3.367,2.335-5.127c1.706-3.661,3.422-7.917,5.807-12.402     c1.156-2.312,2.341-4.683,3.555-7.114c1.243-2.468,2.736-4.933,4.16-7.545c2.779-5.265,6.244-10.602,9.749-16.291     c7.338-11.173,16.034-23.036,26.154-34.675c10.231-11.541,20.868-21.701,30.998-30.423c5.188-4.212,10.031-8.339,14.892-11.776     c2.405-1.751,4.656-3.551,6.943-5.102c2.253-1.519,4.45-3.001,6.594-4.446c4.138-2.945,8.137-5.197,11.546-7.363     c1.641-1.022,3.232-2.014,4.781-2.979c1.41-0.807,2.777-1.591,4.11-2.355C397.859,210.397,400.509,208.595,400.314,208.17z"/>
		</g>
		<g>
			<path style="fill:#43AA99;" d="M350.84,223.089c-9.329,6.21-19.776,10.558-32.766,10.954     c-11.341,0.345-24.681,1.925-35.863,0.409c-6.125-0.83-12.245-3.309-16.287-7.985c-4.185-4.841-5.688-11.405-6.628-17.735     c-3.169-21.342-3.915-54.654,18.05-67.147c8.799-5.004,19.053-6.729,28.406-10.601c9.701-4.015,18.281-10.271,27.428-15.425     c7.478-4.214,16.294-8.618,25.115-7.92c7.84,0.621,13.423,2.965,21.609,1.69c20.961-3.266,42.336-9.533,63.079-1.457     c14.203,5.53,25.831,19.653,19.52,35.28c-4.477,11.088-21.041,22.084-31.413,26.743c-9.525,4.278-19.858,6.725-28.999,11.772     C382.444,192.516,368.688,211.209,350.84,223.089z"/>
		</g>
		<g>
			<path style="fill:#235E54;" d="M266.377,180.369c-4.517,23.753-21.265,36.384-38.802,50.649     c-2.752,2.238-5.606,4.531-9.018,5.497c-7.149,2.025-15.914-2.656-22.572-4.774c-6.758-2.15-12.998-5.045-18.73-9.283     c-16.059-11.874-22.131-27.756-24.104-45.093c-0.049-0.427,1.437-0.834,1.393-1.263c-0.043-0.426-1.616-0.876-1.655-1.303     c-1.222-13.484-0.176-27.76,0.432-41.652c0.024-0.538,2.437-0.196,2.459-0.733c0.017-0.425-2.356-1.729-2.339-2.153     c0.334-8.629,0.424-17.077-0.386-25.059c-0.844-8.322-2.28-16.615-3.181-24.926c-0.06-0.553,1.548-0.299,1.493-0.853     c-0.048-0.486-1.761-1.779-1.804-2.265c-0.413-4.577-0.622-9.162-0.439-13.762c1.077-27.086,26.871-61.402,56.668-42.977     c10.488,6.485,16.163,18.542,19.505,30.412c0.231,0.82,0.454,1.643,0.67,2.468c0.146,0.556-1.433,2.88-1.292,3.438     c0.143,0.568,2.005-0.63,2.143-0.06c2.445,10.05,4.283,20.297,8.573,29.683c1.899,4.155,4.24,8.057,6.773,11.853     c0.256,0.384-0.919,2.755-0.659,3.136c0.279,0.41,1.993-1.169,2.275-0.761c4.885,7.054,10.259,13.839,14.459,21.317     c3.223,5.737,5.71,11.876,7.433,18.224c0.137,0.503-1.035,2.198-0.908,2.704c0.134,0.533,1.566-0.122,1.689,0.414     C269.252,155.415,269.287,168.225,266.377,180.369z"/>
		</g>
		<g>
			<path style="fill:#5ED3BD;" d="M287.727,208.488c0.746,0.031,2.214-20.813,3.278-46.556c0.402-9.726,0.688-18.754,0.849-26.232     c-0.765,0.242-1.524,0.496-2.285,0.747c-0.44,7.301-0.88,16.004-1.268,25.373C287.238,187.563,286.98,208.456,287.727,208.488z"/>
			<path style="fill:#5ED3BD;" d="M304.758,204.605c-9.21-2.148-14.935-3.393-15.037-3.024c-0.097,0.351,5.453,2.249,14.556,4.875     c9.101,2.627,21.765,5.942,35.863,9.14c5.673,1.285,11.127,2.446,16.249,3.484c0.883-0.68,1.758-1.374,2.626-2.079     c-6.032-1.334-12.043-2.664-18.277-4.044C328.502,210.117,317.137,207.478,304.758,204.605z"/>
			<path style="fill:#5ED3BD;" d="M325.053,158.573c-0.159,6.672-0.02,10.807,0.348,10.826c0.137,0.006,0.295-0.541,0.47-1.533     c-0.537-0.283-0.821-0.478-0.792-0.558c0.03-0.082,0.353-0.052,0.874,0.052c0.793-4.964,1.927-18.56,3.279-34.584     c0.468-5.615,0.911-10.916,1.294-15.676c-0.882,0.52-1.762,1.046-2.638,1.578c-0.476,4.276-0.939,8.954-1.352,13.872     C325.688,142.695,325.211,151.902,325.053,158.573z"/>
			<path style="fill:#5ED3BD;" d="M338.996,171.146c-6.607-2.026-11.229-3.427-13.042-3.786c-0.028,0.173-0.056,0.355-0.083,0.507     c1.709,0.9,6.141,2.748,12.515,5.093c8.373,3.083,20.09,6.95,33.222,10.568c7.089,1.949,13.838,3.615,19.95,5.002     c0.858-0.641,1.734-1.258,2.611-1.873c-6.562-1.654-13.984-3.577-21.842-5.737C359.253,177.316,347.501,173.756,338.996,171.146z     "/>
			<path style="fill:#5ED3BD;" d="M325.872,167.866c0.027-0.152,0.055-0.334,0.083-0.507c-0.521-0.103-0.845-0.133-0.874-0.052     C325.051,167.389,325.335,167.583,325.872,167.866z"/>
			<path style="fill:#5ED3BD;" d="M368.513,140.961c0.113,0.04,0.349-0.286,0.673-0.866c-0.323-0.172-0.538-0.31-0.518-0.373     c0.023-0.073,0.307-0.058,0.725,0c1.917-3.675,6.525-15.073,12.333-28.371c0.367-0.844,0.729-1.673,1.09-2.498     c-0.971,0.162-1.942,0.325-2.912,0.476c-0.088,0.014-0.168,0.015-0.256,0.028c-0.134,0.306-0.269,0.604-0.403,0.914     C372.049,126.75,367.832,140.73,368.513,140.961z"/>
			<path style="fill:#5ED3BD;" d="M416.412,152.018c-13.177-3.366-25.057-6.603-33.666-8.94c-6.904-1.873-11.658-3.118-13.353-3.355     c-0.078,0.149-0.139,0.25-0.207,0.373c1.435,0.763,6.082,2.521,13.01,4.814c8.486,2.812,20.327,6.353,33.547,9.73     c11.261,2.87,21.68,5.149,29.963,6.751c0.751-0.535,1.494-1.082,2.231-1.643C439.497,157.732,428.473,155.092,416.412,152.018z"/>
			<path style="fill:#5ED3BD;" d="M369.186,140.095c0.069-0.123,0.13-0.225,0.207-0.373c-0.418-0.058-0.702-0.073-0.725,0     C368.648,139.785,368.863,139.923,369.186,140.095z"/>
		</g>
		<g>
			<path style="fill:#43AA99;" d="M214.639,201.645c0.048-0.115-0.462-0.459-1.382-0.967c-0.37,0.276-0.637,0.448-0.683,0.401     c-0.048-0.048,0.097-0.283,0.325-0.6c-5.036-2.692-20.447-9.544-38.838-17.208c-7.724-3.218-14.951-6.152-21.171-8.612     c0.079,0.888,0.172,1.77,0.272,2.651c5.862,2.56,12.626,5.445,19.858,8.458C195.718,195.226,214.352,202.334,214.639,201.645z"/>
			<path style="fill:#43AA99;" d="M252.258,156.147c-10.745,12.574-20.781,23.691-28.101,31.696     c-6.056,6.627-10.163,11.112-11.259,12.636c0.139,0.075,0.235,0.132,0.358,0.2c1.6-1.195,6.037-5.269,12.284-11.514     c7.692-7.685,17.991-18.64,28.775-31.26c4.327-5.071,8.384-10.008,12.124-14.689c-0.238-1.034-0.506-2.061-0.784-3.085     C261.523,145.161,257.033,150.551,252.258,156.147z"/>
			<path style="fill:#43AA99;" d="M213.257,200.678c-0.123-0.068-0.219-0.125-0.358-0.2c-0.228,0.317-0.373,0.552-0.325,0.6     C212.62,201.126,212.887,200.954,213.257,200.678z"/>
			<path style="fill:#43AA99;" d="M207.368,154.079c0.286-0.69-20.637-10.025-46.733-20.851c-2.451-1.017-4.843-2.002-7.198-2.967     c-0.037,0.948-0.074,1.896-0.115,2.848c2.057,0.862,4.141,1.732,6.276,2.618C185.694,146.552,207.082,154.769,207.368,154.079z"/>
			<path style="fill:#43AA99;" d="M207.418,156.147c0.633,0.396,13.991-19.786,29.834-45.079c2.261-3.609,4.438-7.11,6.528-10.49     c-0.546-0.788-1.07-1.589-1.602-2.386c-2.323,3.655-4.734,7.474-7.218,11.44C219.115,134.924,206.784,155.75,207.418,156.147z"/>
			<path style="fill:#43AA99;" d="M182.885,94.884c7.792,3.431,12.664,5.455,12.832,5.113c0.161-0.329-4.417-2.962-12.011-6.841     c-7.593-3.88-18.215-8.978-30.113-14.242c-1.351-0.597-2.685-1.18-4.008-1.755c0.093,1.026,0.185,2.052,0.296,3.077     c0.87,0.383,1.74,0.766,2.618,1.153C162.566,85.86,172.029,90.063,182.885,94.884z"/>
			<path style="fill:#43AA99;" d="M195.616,100.498c0.619,0.418,11.647-14.832,24.631-34.061c2.293-3.395,4.486-6.679,6.552-9.801     c-0.272-1.116-0.559-2.227-0.85-3.336c-2.508,3.624-5.176,7.524-7.944,11.623C205.021,84.152,194.997,100.079,195.616,100.498z"/>
		</g>
		<g>
			<path style="fill:#114B44;" d="M194.732,381.167c0.451,0.121,1.908-3.91,4.163-11.326c0.585-1.968,1.195-4.025,1.837-6.184     c0.625-2.273,1.214-4.764,1.88-7.435c1.283-5.351,2.884-11.424,4.138-18.243c0.677-3.445,1.377-7.006,2.099-10.682     c0.71-3.719,1.241-7.622,1.895-11.649c1.38-8.046,2.306-16.716,3.369-25.833c1.787-18.264,2.895-38.445,2.704-59.64     c-0.321-21.193-1.918-41.341-4.146-59.556c-1.283-9.088-2.418-17.733-3.993-25.743c-0.751-4.009-1.377-7.898-2.176-11.599     c-0.811-3.657-1.597-7.2-2.357-10.628c-1.419-6.786-3.166-12.818-4.578-18.137c-0.731-2.653-1.38-5.13-2.059-7.387     c-0.694-2.143-1.354-4.184-1.986-6.138c-2.434-7.36-3.988-11.354-4.436-11.222c-0.448,0.131,0.251,4.373,1.893,11.906     c0.448,1.991,0.915,4.071,1.406,6.255c0.481,2.384,0.982,4.872,1.507,7.475c1.054,5.367,2.463,11.426,3.57,18.216     c0.616,3.424,1.253,6.963,1.91,10.617c0.658,3.691,1.148,7.566,1.774,11.555c1.321,7.969,2.236,16.552,3.337,25.56     c1.864,18.056,3.254,37.969,3.572,58.91c0.188,20.943-0.719,40.885-2.146,58.981c-0.883,9.032-1.59,17.635-2.718,25.634     c-0.528,4.003-0.925,7.888-1.494,11.594c-0.569,3.668-1.12,7.222-1.652,10.66c-0.942,6.815-2.205,12.906-3.128,18.297     c-0.462,2.614-0.903,5.114-1.326,7.509c-0.438,2.195-0.855,4.287-1.254,6.288C194.877,376.79,194.28,381.047,194.732,381.167z"/>
		</g>
		<g>
			<path style="fill:#114B44;" d="M407.536,127.631c-0.036-0.231-1.188-0.243-3.363-0.052c-1.087,0.096-2.431,0.242-4.017,0.437     c-1.592,0.172-3.419,0.433-5.439,0.905c-8.172,1.468-19.832,4.835-33.38,11.081c-0.852,0.385-1.712,0.774-2.58,1.166     c-0.847,0.443-1.702,0.89-2.564,1.341c-1.737,0.912-3.503,1.84-5.297,2.782c-3.55,1.986-7.174,4.188-10.884,6.525     c-7.316,4.835-14.901,10.378-22.332,16.867c-7.379,6.53-14.873,13.711-21.869,21.846c-7.029,8.099-13.802,16.923-20.088,26.4     c-12.419,19.027-21.96,38.499-29.327,56.632c-7.383,18.145-12.785,34.912-16.885,49.081c-4.097,14.174-6.969,25.749-8.767,33.791     c-1.797,8.043-2.536,12.553-2.092,12.672c0.995,0.275,6.184-17.197,15.423-45.035c4.657-13.901,10.48-30.351,18.071-48.106     c7.577-17.748,17.105-36.743,29.228-55.32c6.121-9.226,12.674-17.838,19.444-25.777c6.739-7.975,13.93-15.041,20.988-21.516     c7.11-6.433,14.348-11.975,21.321-16.874c3.537-2.368,6.99-4.617,10.372-6.666c1.709-0.978,3.392-1.94,5.046-2.886     c0.821-0.472,1.635-0.939,2.443-1.403c0.827-0.414,1.646-0.825,2.458-1.232c12.908-6.614,24.053-10.595,31.896-12.816     c1.938-0.66,3.691-1.117,5.22-1.492c1.523-0.398,2.811-0.755,3.85-1.065C406.49,128.3,407.572,127.861,407.536,127.631z"/>
		</g>
		<path style="fill:#D18E22;" d="M213.268,381.689l0.219-1.15l-2.903,0.044l-2.685-1.107l-0.219,1.15l-106.36,1.597l8.379,75.549    c0.668,6.02,5.184,10.9,11.134,12.031l67.449,12.827l5.588,1.063l67.449,12.827c5.95,1.131,11.942-1.75,14.773-7.105l35.526-67.2    L213.268,381.689z"/>
		<path style="fill:#FCF1B8;" d="M298.724,446.605c-4.474-3.366-8.703-7.207-12.987-10.738c-7.789-6.42-16.462-9.612-26.528-9.048    c-13.095,0.733-24.262,9.938-37.302,11.551c-27.656,3.419-36.528-30.31-61.68-30.417c-12.036-0.051-21.353,7.105-32.777,9.543    c-8.28,1.767-16.342-0.695-22.824-5.469l1.556,14.031c11.274,4.296,24.441,3.648,36.641-1.547    c8.349-3.556,15.643-6.758,24.52-2.592c6.45,3.027,11.751,9.618,16.909,14.374c10.766,9.927,24.111,14.247,38.606,13.753    c15.01-0.512,27.436-12.744,42.535-11.556c10.173,0.801,19.135,10.632,28.06,18.089L298.724,446.605z"/>
		<path style="fill:#FCF1B8;" d="M288.721,465.526c-2.85-2.348-5.649-4.782-8.475-7.111c-21.756-17.932-39.084,0.226-62.101,3.072    c-16.365,2.023-28.304-8.243-39.271-18.592c-5.947-5.611-13.763-11.789-22.409-11.825c-11.96-0.051-21.383,7.111-32.777,9.543    c-5.515,1.177-10.997,0.567-16.038-1.319l0.77,6.943c9.43,2.153,19.826,1.039,29.667-3.151c8.964-3.818,16.82-6.954,26.337-2.487    c6.652,3.122,12.096,9.806,17.415,14.711c10.307,9.504,22.99,13.658,36.876,13.184c15.29-0.522,27.632-12.744,43.162-11.522    c8.737,0.687,16.367,7.571,23.864,14.194L288.721,465.526z"/>
		<path style="fill:#FEC400;" d="M320.784,429.151L88.533,384.983c-3.903-0.742-6.465-4.508-5.723-8.411l9.196-48.357    c0.742-3.903,4.508-6.465,8.411-5.723l232.252,44.168c3.903,0.742,6.465,4.508,5.723,8.411l-9.196,48.357    C328.453,427.331,324.687,429.893,320.784,429.151z"/>
	</g>
</g>















</svg>
