<?xml version="1.0" standalone="no"?>
<!DOCTYPE svg PUBLIC "-//W3C//DTD SVG 20010904//EN"
 "http://www.w3.org/TR/2001/REC-SVG-20010904/DTD/svg10.dtd">
<svg version="1.0" xmlns="http://www.w3.org/2000/svg"
 width="512.000000pt" height="512.000000pt" viewBox="0 0 512.000000 512.000000"
 preserveAspectRatio="xMidYMid meet">
<metadata>
Created by potrace 1.14, written by Peter Selinger 2001-2017
</metadata>
<g transform="translate(0.000000,512.000000) scale(0.100000,-0.100000)"
fill="#000000" stroke="none">
<path d="M1399 4789 c-161 -16 -358 -85 -519 -182 -90 -54 -226 -166 -314
-258 -210 -221 -356 -500 -417 -799 -21 -99 -24 -143 -24 -310 1 -163 5 -212
23 -300 150 -700 758 -1459 1787 -2232 157 -118 442 -313 553 -378 l72 -42 73
42 c86 51 376 247 485 327 85 63 294 225 302 233 3 3 25 21 50 40 25 19 47 37
50 40 3 3 34 30 70 60 353 296 675 629 899 927 302 404 459 756 506 1138 10
84 5 265 -10 367 -53 356 -204 658 -460 914 -117 117 -164 156 -272 222 -221
137 -419 195 -668 196 -150 0 -223 -10 -362 -50 -217 -63 -424 -185 -599 -354
l-64 -62 -63 60 c-90 87 -123 113 -215 175 -150 101 -348 183 -522 216 -71 14
-264 19 -361 10z m378 -425 c129 -32 239 -87 348 -174 116 -92 187 -183 330
-422 55 -92 102 -168 105 -168 3 0 36 53 74 118 164 278 248 385 379 485 165
127 349 188 565 188 386 0 708 -205 890 -566 101 -201 149 -510 118 -750 -42
-322 -267 -736 -611 -1125 -84 -95 -395 -401 -505 -496 -217 -188 -674 -544
-700 -544 -3 0 -6 234 -6 520 l0 520 121 1 c251 1 420 36 598 125 305 154 539
422 645 739 42 128 55 217 56 400 l1 160 -351 -2 c-264 -1 -372 -5 -440 -17
-167 -29 -322 -91 -464 -185 -82 -55 -219 -175 -265 -233 -17 -20 -32 -37 -35
-37 -3 0 -34 46 -70 101 -151 233 -395 424 -654 513 -151 51 -203 56 -605 61
l-374 4 7 -164 c8 -195 11 -227 36 -326 63 -248 218 -483 435 -659 88 -71 131
-99 231 -149 206 -103 330 -127 694 -132 l25 0 1 -620 c0 -341 -3 -620 -6
-620 -11 0 -276 195 -405 298 -318 254 -686 602 -856 808 -41 49 -89 108 -107
130 -57 68 -206 295 -259 394 -191 355 -244 691 -161 1030 105 430 404 733
797 807 120 22 300 17 418 -13z m-72 -1208 c286 -52 496 -224 598 -491 42
-111 48 -105 -105 -105 -283 1 -463 67 -629 230 -96 95 -175 231 -203 353 l-6
27 132 0 c73 0 169 -6 213 -14z m2055 -191 c0 -15 -46 -146 -63 -179 -115
-225 -304 -364 -568 -416 -84 -16 -330 -19 -336 -3 -6 16 21 96 58 174 108
221 340 385 594 417 58 7 315 13 315 7z"/>
</g>
</svg>
